%TF.GenerationSoftware,KiCad,Pcbnew,(6.0.7)*%
%TF.CreationDate,2022-10-07T16:54:50+08:00*%
%TF.ProjectId,__,5c1a2e6b-6963-4616-945f-706362585858,rev?*%
%TF.SameCoordinates,Original*%
%TF.FileFunction,Soldermask,Bot*%
%TF.FilePolarity,Negative*%
%FSLAX46Y46*%
G04 Gerber Fmt 4.6, Leading zero omitted, Abs format (unit mm)*
G04 Created by KiCad (PCBNEW (6.0.7)) date 2022-10-07 16:54:50*
%MOMM*%
%LPD*%
G01*
G04 APERTURE LIST*
%ADD10C,0.600000*%
%ADD11O,0.900000X2.000000*%
%ADD12O,0.900000X1.700000*%
%ADD13R,1.700000X1.700000*%
%ADD14O,1.700000X1.700000*%
G04 APERTURE END LIST*
D10*
%TO.C,J1*%
X113950000Y-29030000D03*
X119730000Y-29030000D03*
D11*
X121160000Y-28550000D03*
D12*
X121160000Y-32720000D03*
D11*
X112520000Y-28550000D03*
D12*
X112520000Y-32720000D03*
%TD*%
D13*
%TO.C,J2*%
X137160000Y-41140000D03*
D14*
X134620000Y-41140000D03*
X132080000Y-41140000D03*
X129540000Y-41140000D03*
%TD*%
D13*
%TO.C,J6*%
X162560000Y-96520000D03*
D14*
X160020000Y-96520000D03*
%TD*%
D13*
%TO.C,J7*%
X187945000Y-55880000D03*
D14*
X185405000Y-55880000D03*
X182865000Y-55880000D03*
%TD*%
D13*
%TO.C,J5*%
X120655000Y-106680000D03*
D14*
X123195000Y-106680000D03*
X125735000Y-106680000D03*
X128275000Y-106680000D03*
X130815000Y-106680000D03*
X133355000Y-106680000D03*
X135895000Y-106680000D03*
X138435000Y-106680000D03*
X140975000Y-106680000D03*
X143515000Y-106680000D03*
X146055000Y-106680000D03*
X148595000Y-106680000D03*
X151135000Y-106680000D03*
X153675000Y-106680000D03*
X156215000Y-106680000D03*
X158755000Y-106680000D03*
X161295000Y-106680000D03*
X163835000Y-106680000D03*
X166375000Y-106680000D03*
X168915000Y-106680000D03*
%TD*%
D13*
%TO.C,J4*%
X170180000Y-45720000D03*
D14*
X167640000Y-45720000D03*
X165100000Y-45720000D03*
X162560000Y-45720000D03*
X160020000Y-45720000D03*
X157480000Y-45720000D03*
X154940000Y-45720000D03*
X152400000Y-45720000D03*
X149860000Y-45720000D03*
X147320000Y-45720000D03*
X144780000Y-45720000D03*
X142240000Y-45720000D03*
X139700000Y-45720000D03*
X137160000Y-45720000D03*
X134620000Y-45720000D03*
X132080000Y-45720000D03*
X129540000Y-45720000D03*
X127000000Y-45720000D03*
X124460000Y-45720000D03*
%TD*%
M02*
