M48
; DRILL file {KiCad (6.0.7)} date Fri Oct  7 16:55:08 2022
; FORMAT={-:-/ absolute / inch / decimal}
; #@! TF.CreationDate,2022-10-07T16:55:08+08:00
; #@! TF.GenerationSoftware,Kicad,Pcbnew,(6.0.7)
; #@! TF.FileFunction,Plated,1,2,PTH
FMAT,2
INCH
; #@! TA.AperFunction,Plated,PTH,ViaDrill
T1C0.0118
; #@! TA.AperFunction,Plated,PTH,ComponentDrill
T2C0.0236
; #@! TA.AperFunction,Plated,PTH,ComponentDrill
T3C0.0394
%
G90
G05
T1
X4.17Y-2.235
X4.225Y-2.295
X4.265Y-2.37
X4.2762Y-2.1038
X4.475Y-1.98
X4.58Y-1.8
X4.6Y-2.0
X4.9Y-3.135
X4.915Y-3.09
X4.93Y-2.95
X5.005Y-2.635
X5.02Y-2.945
X5.075Y-3.085
X5.17Y-4.76
X5.225Y-2.71
X5.3025Y-3.4775
X5.3046Y-2.9246
X5.305Y-2.705
X5.34Y-2.9
X5.365Y-4.76
X5.4Y-2.695
X5.4Y-2.695
X5.405Y-2.9
X5.44Y-2.7
X5.485Y-2.695
X5.485Y-2.9
X5.555Y-1.28
X5.5631Y-0.9819
X5.62Y-3.175
X5.6539Y-2.8361
X5.665Y-2.69
X5.69Y-3.045
X5.73Y-3.0837
X5.79Y-2.95
X5.79Y-3.075
X5.805Y-1.34
X5.87Y-3.1
X5.9386Y-3.1336
X5.965Y-4.84
X6.0Y-2.245
X6.165Y-4.84
X6.2Y-2.08
X6.3626Y-4.8324
X6.4374Y-4.8369
X6.845Y-3.355
X6.88Y-2.62
X7.035Y-2.46
X7.19Y-2.7
X7.365Y-2.625
T3
X4.7502Y-4.2
X4.8502Y-4.2
X4.9Y-1.8
X4.9502Y-4.2
X5.0Y-1.8
X5.0502Y-4.2
X5.1Y-1.6197
X5.1Y-1.8
X5.1502Y-4.2
X5.2Y-1.6197
X5.2Y-1.8
X5.2502Y-4.2
X5.3Y-1.6197
X5.3Y-1.8
X5.3502Y-4.2
X5.4Y-1.6197
X5.4Y-1.8
X5.4502Y-4.2
X5.5Y-1.8
X5.5502Y-4.2
X5.6Y-1.8
X5.6502Y-4.2
X5.7Y-1.8
X5.7502Y-4.2
X5.8Y-1.8
X5.8502Y-4.2
X5.9Y-1.8
X5.9502Y-4.2
X6.0Y-1.8
X6.0502Y-4.2
X6.1Y-1.8
X6.1502Y-4.2
X6.2Y-1.8
X6.2502Y-4.2
X6.3Y-1.8
X6.3Y-3.8
X6.3502Y-4.2
X6.4Y-1.8
X6.4Y-3.8
X6.4502Y-4.2
X6.5Y-1.8
X6.5502Y-4.2
X6.6Y-1.8
X6.6502Y-4.2
X6.7Y-1.8
X7.1994Y-2.2
X7.2994Y-2.2
X7.3994Y-2.2
T2
G00X4.4299Y-1.1457
M15
G01X4.4299Y-1.1024
M16
G05
G00X4.4299Y-1.3039
M15
G01X4.4299Y-1.2724
M16
G05
G00X4.7701Y-1.1457
M15
G01X4.7701Y-1.1024
M16
G05
G00X4.7701Y-1.3039
M15
G01X4.7701Y-1.2724
M16
G05
T0
M30
