%TF.GenerationSoftware,KiCad,Pcbnew,(6.0.7)*%
%TF.CreationDate,2022-10-07T16:54:50+08:00*%
%TF.ProjectId,__,5c1a2e6b-6963-4616-945f-706362585858,rev?*%
%TF.SameCoordinates,Original*%
%TF.FileFunction,Copper,L2,Bot*%
%TF.FilePolarity,Positive*%
%FSLAX46Y46*%
G04 Gerber Fmt 4.6, Leading zero omitted, Abs format (unit mm)*
G04 Created by KiCad (PCBNEW (6.0.7)) date 2022-10-07 16:54:50*
%MOMM*%
%LPD*%
G01*
G04 APERTURE LIST*
%TA.AperFunction,ComponentPad*%
%ADD10O,0.900000X2.000000*%
%TD*%
%TA.AperFunction,ComponentPad*%
%ADD11O,0.900000X1.700000*%
%TD*%
%TA.AperFunction,ComponentPad*%
%ADD12R,1.700000X1.700000*%
%TD*%
%TA.AperFunction,ComponentPad*%
%ADD13O,1.700000X1.700000*%
%TD*%
%TA.AperFunction,ViaPad*%
%ADD14C,0.600000*%
%TD*%
%TA.AperFunction,Conductor*%
%ADD15C,0.250000*%
%TD*%
G04 APERTURE END LIST*
D10*
%TO.P,J1,S1,SHIELD*%
%TO.N,GND*%
X121160000Y-28550000D03*
D11*
X121160000Y-32720000D03*
D10*
X112520000Y-28550000D03*
D11*
X112520000Y-32720000D03*
%TD*%
D12*
%TO.P,J2,1,Pin_1*%
%TO.N,/PORT&POWER/3v3_Debug*%
X137160000Y-41140000D03*
D13*
%TO.P,J2,2,Pin_2*%
%TO.N,/STM32_MinimumSystem/PA13*%
X134620000Y-41140000D03*
%TO.P,J2,3,Pin_3*%
%TO.N,/STM32_MinimumSystem/PA14*%
X132080000Y-41140000D03*
%TO.P,J2,4,Pin_4*%
%TO.N,GND*%
X129540000Y-41140000D03*
%TD*%
D12*
%TO.P,J6,1,Pin_1*%
%TO.N,+3V3*%
X162560000Y-96520000D03*
D13*
%TO.P,J6,2,Pin_2*%
%TO.N,/STM32_MinimumSystem/BOOT0*%
X160020000Y-96520000D03*
%TD*%
D12*
%TO.P,J7,1,Pin_1*%
%TO.N,Net-(J7-Pad1)*%
X187945000Y-55880000D03*
D13*
%TO.P,J7,2,Pin_2*%
%TO.N,/STM32_MinimumSystem/PA0*%
X185405000Y-55880000D03*
%TO.P,J7,3,Pin_3*%
%TO.N,Net-(J7-Pad3)*%
X182865000Y-55880000D03*
%TD*%
D12*
%TO.P,J5,1,Pin_1*%
%TO.N,/STM32_MinimumSystem/PA8*%
X120655000Y-106680000D03*
D13*
%TO.P,J5,2,Pin_2*%
%TO.N,/STM32_MinimumSystem/PA9*%
X123195000Y-106680000D03*
%TO.P,J5,3,Pin_3*%
%TO.N,/STM32_MinimumSystem/PA10*%
X125735000Y-106680000D03*
%TO.P,J5,4,Pin_4*%
%TO.N,/STM32_MinimumSystem/PA11*%
X128275000Y-106680000D03*
%TO.P,J5,5,Pin_5*%
%TO.N,/STM32_MinimumSystem/PA12*%
X130815000Y-106680000D03*
%TO.P,J5,6,Pin_6*%
%TO.N,/STM32_MinimumSystem/PA15*%
X133355000Y-106680000D03*
%TO.P,J5,7,Pin_7*%
%TO.N,/STM32_MinimumSystem/PB3*%
X135895000Y-106680000D03*
%TO.P,J5,8,Pin_8*%
%TO.N,/STM32_MinimumSystem/PB4*%
X138435000Y-106680000D03*
%TO.P,J5,9,Pin_9*%
%TO.N,/STM32_MinimumSystem/PB5*%
X140975000Y-106680000D03*
%TO.P,J5,10,Pin_10*%
%TO.N,/STM32_MinimumSystem/PB6*%
X143515000Y-106680000D03*
%TO.P,J5,11,Pin_11*%
%TO.N,/STM32_MinimumSystem/PB7*%
X146055000Y-106680000D03*
%TO.P,J5,12,Pin_12*%
%TO.N,/STM32_MinimumSystem/PB8*%
X148595000Y-106680000D03*
%TO.P,J5,13,Pin_13*%
%TO.N,/STM32_MinimumSystem/PB9*%
X151135000Y-106680000D03*
%TO.P,J5,14,Pin_14*%
%TO.N,/STM32_MinimumSystem/PC13*%
X153675000Y-106680000D03*
%TO.P,J5,15,Pin_15*%
%TO.N,/STM32_MinimumSystem/PC14*%
X156215000Y-106680000D03*
%TO.P,J5,16,Pin_16*%
%TO.N,/STM32_MinimumSystem/PC15*%
X158755000Y-106680000D03*
%TO.P,J5,17,Pin_17*%
%TO.N,/STM32_MinimumSystem/BOOT0*%
X161295000Y-106680000D03*
%TO.P,J5,18,Pin_18*%
%TO.N,+3V3*%
X163835000Y-106680000D03*
%TO.P,J5,19,Pin_19*%
X166375000Y-106680000D03*
%TO.P,J5,20,Pin_20*%
%TO.N,GND*%
X168915000Y-106680000D03*
%TD*%
D12*
%TO.P,J4,1,Pin_1*%
%TO.N,/STM32_MinimumSystem/PAO*%
X170180000Y-45720000D03*
D13*
%TO.P,J4,2,Pin_2*%
%TO.N,/STM32_MinimumSystem/PA1*%
X167640000Y-45720000D03*
%TO.P,J4,3,Pin_3*%
%TO.N,/STM32_MinimumSystem/PA2*%
X165100000Y-45720000D03*
%TO.P,J4,4,Pin_4*%
%TO.N,/STM32_MinimumSystem/PA3*%
X162560000Y-45720000D03*
%TO.P,J4,5,Pin_5*%
%TO.N,/STM32_MinimumSystem/PA4*%
X160020000Y-45720000D03*
%TO.P,J4,6,Pin_6*%
%TO.N,/STM32_MinimumSystem/PA5*%
X157480000Y-45720000D03*
%TO.P,J4,7,Pin_7*%
%TO.N,/STM32_MinimumSystem/PA6*%
X154940000Y-45720000D03*
%TO.P,J4,8,Pin_8*%
%TO.N,/STM32_MinimumSystem/PA7*%
X152400000Y-45720000D03*
%TO.P,J4,9,Pin_9*%
%TO.N,/STM32_MinimumSystem/PB0*%
X149860000Y-45720000D03*
%TO.P,J4,10,Pin_10*%
%TO.N,/STM32_MinimumSystem/PB1*%
X147320000Y-45720000D03*
%TO.P,J4,11,Pin_11*%
%TO.N,/STM32_MinimumSystem/PB2*%
X144780000Y-45720000D03*
%TO.P,J4,12,Pin_12*%
%TO.N,/STM32_MinimumSystem/PB10*%
X142240000Y-45720000D03*
%TO.P,J4,13,Pin_13*%
%TO.N,/STM32_MinimumSystem/PB11*%
X139700000Y-45720000D03*
%TO.P,J4,14,Pin_14*%
%TO.N,/STM32_MinimumSystem/PB12*%
X137160000Y-45720000D03*
%TO.P,J4,15,Pin_15*%
%TO.N,/STM32_MinimumSystem/PB13*%
X134620000Y-45720000D03*
%TO.P,J4,16,Pin_16*%
%TO.N,/STM32_MinimumSystem/PB14*%
X132080000Y-45720000D03*
%TO.P,J4,17,Pin_17*%
%TO.N,/STM32_MinimumSystem/PB15*%
X129540000Y-45720000D03*
%TO.P,J4,18,Pin_18*%
%TO.N,VBUS*%
X127000000Y-45720000D03*
%TO.P,J4,19,Pin_19*%
%TO.N,GND*%
X124460000Y-45720000D03*
%TD*%
D14*
%TO.N,VBUS*%
X107315000Y-58293000D03*
X141097000Y-32512000D03*
X141302500Y-24940500D03*
%TO.N,GND*%
X174752000Y-66548000D03*
X113665000Y-50292000D03*
X125222000Y-74930000D03*
X105918000Y-56769000D03*
X116332000Y-45720000D03*
X108331000Y-60198000D03*
X173863000Y-85217000D03*
X127508000Y-74803000D03*
X145542000Y-78325500D03*
X143891000Y-68326000D03*
%TO.N,+3V3*%
X151511000Y-122936000D03*
X116840000Y-50800000D03*
X156591000Y-122936000D03*
X136271000Y-120904000D03*
X147066000Y-74930000D03*
X108616000Y-53436000D03*
X147066000Y-78105000D03*
X131318000Y-120904000D03*
X150839750Y-79592750D03*
X127127000Y-66929000D03*
X161610000Y-122743000D03*
X143608500Y-72037500D03*
%TO.N,Net-(C13-Pad1)*%
X149098000Y-78740000D03*
X128905000Y-78359000D03*
%TO.N,/STM32_MinimumSystem/PB9*%
X163510000Y-122857500D03*
%TO.N,/PORT&POWER/3v3_Debug*%
X147447000Y-34036000D03*
%TO.N,/STM32_MinimumSystem/PA13*%
X144526000Y-77343000D03*
X138176000Y-68580000D03*
%TO.N,/STM32_MinimumSystem/PA14*%
X142748000Y-80645000D03*
%TO.N,/STM32_MinimumSystem/PA4*%
X178689000Y-62484000D03*
%TO.N,/STM32_MinimumSystem/PA5*%
X187071000Y-66675000D03*
X157480000Y-52832000D03*
%TO.N,/STM32_MinimumSystem/PA7*%
X152400000Y-57023000D03*
X182626000Y-68580000D03*
%TO.N,/STM32_MinimumSystem/PB12*%
X139319000Y-73660000D03*
X139319000Y-68453000D03*
%TO.N,/STM32_MinimumSystem/PB13*%
X137160000Y-68453000D03*
X137160000Y-68453000D03*
X137287000Y-73660000D03*
%TO.N,/STM32_MinimumSystem/PB14*%
X135636000Y-73660000D03*
X134747000Y-68707000D03*
%TO.N,/STM32_MinimumSystem/PB15*%
X132715000Y-68834000D03*
X134737000Y-74285000D03*
%TO.N,/STM32_MinimumSystem/PA9*%
X134683500Y-88328500D03*
X124841000Y-78486000D03*
%TO.N,/STM32_MinimumSystem/PA10*%
X124460000Y-79629000D03*
%TD*%
D15*
%TO.N,VBUS*%
X127752000Y-46472000D02*
X127000000Y-45720000D01*
X127752000Y-67187884D02*
X127752000Y-46472000D01*
X141097000Y-32512000D02*
X141302500Y-32306500D01*
X127385884Y-67554000D02*
X127752000Y-67187884D01*
X107315000Y-58293000D02*
X116576000Y-67554000D01*
X116576000Y-67554000D02*
X127385884Y-67554000D01*
X141302500Y-32306500D02*
X141302500Y-24940500D01*
%TO.N,+3V3*%
X162560000Y-96520000D02*
X162560000Y-92710000D01*
X113898000Y-53436000D02*
X116713000Y-56251000D01*
X151511000Y-122936000D02*
X149352000Y-120777000D01*
X145034000Y-72898000D02*
X147066000Y-74930000D01*
X149352000Y-78105000D02*
X147066000Y-78105000D01*
X144018000Y-69596000D02*
X144272000Y-69342000D01*
X136398000Y-120777000D02*
X136271000Y-120904000D01*
X162560000Y-92710000D02*
X150839750Y-80989750D01*
X117338000Y-51298000D02*
X117338000Y-55884884D01*
X143891000Y-70612000D02*
X143891000Y-69723000D01*
X144399000Y-69342000D02*
X145034000Y-69977000D01*
X108616000Y-53436000D02*
X113898000Y-53436000D01*
X144272000Y-69342000D02*
X144399000Y-69342000D01*
X143891000Y-69723000D02*
X144018000Y-69596000D01*
X136271000Y-120904000D02*
X131318000Y-120904000D01*
X150839750Y-80989750D02*
X150839750Y-79592750D01*
X151511000Y-122936000D02*
X156591000Y-122936000D01*
X116971884Y-56251000D02*
X116713000Y-56251000D01*
X161610000Y-122743000D02*
X161417000Y-122936000D01*
X117338000Y-55884884D02*
X116971884Y-56251000D01*
X116840000Y-50800000D02*
X117338000Y-51298000D01*
X145034000Y-69977000D02*
X145034000Y-72898000D01*
X127127000Y-66929000D02*
X116713000Y-56515000D01*
X143891000Y-70612000D02*
X143608500Y-70894500D01*
X149352000Y-120777000D02*
X136398000Y-120777000D01*
X143608500Y-70894500D02*
X143608500Y-72037500D01*
X161417000Y-122936000D02*
X156591000Y-122936000D01*
X116713000Y-56515000D02*
X116713000Y-56251000D01*
X147066000Y-78105000D02*
X147066000Y-74930000D01*
X150839750Y-79592750D02*
X149352000Y-78105000D01*
%TO.N,Net-(C13-Pad1)*%
X132070000Y-81524000D02*
X128905000Y-78359000D01*
X149098000Y-78740000D02*
X146304000Y-81534000D01*
X146304000Y-81534000D02*
X132080000Y-81534000D01*
%TO.N,/STM32_MinimumSystem/PB9*%
X163510000Y-122857500D02*
X163510000Y-119055000D01*
X163510000Y-119055000D02*
X151135000Y-106680000D01*
%TO.N,/PORT&POWER/3v3_Debug*%
X137160000Y-40640000D02*
X147447000Y-30353000D01*
X137160000Y-41140000D02*
X137160000Y-40640000D01*
X147447000Y-30353000D02*
X147447000Y-34036000D01*
%TO.N,/STM32_MinimumSystem/PA13*%
X138557000Y-74549000D02*
X138109942Y-74101942D01*
X141224000Y-74549000D02*
X138557000Y-74549000D01*
X144018000Y-77343000D02*
X141224000Y-74549000D01*
X138109942Y-74101942D02*
X138109942Y-68519058D01*
X144526000Y-77343000D02*
X144018000Y-77343000D01*
%TO.N,/STM32_MinimumSystem/PA14*%
X142748000Y-70998116D02*
X142748000Y-72060884D01*
X142748000Y-72060884D02*
X146431000Y-75743884D01*
X146431000Y-79502000D02*
X145288000Y-80645000D01*
X132080000Y-41140000D02*
X133255000Y-42315000D01*
X133255000Y-61505116D02*
X142748000Y-70998116D01*
X145288000Y-80645000D02*
X142748000Y-80645000D01*
X146431000Y-75743884D02*
X146431000Y-79502000D01*
X133255000Y-42315000D02*
X133255000Y-61505116D01*
%TO.N,/STM32_MinimumSystem/PA4*%
X176784000Y-62484000D02*
X160020000Y-45720000D01*
X178689000Y-62484000D02*
X176784000Y-62484000D01*
%TO.N,/STM32_MinimumSystem/PA5*%
X186251000Y-67495000D02*
X187071000Y-66675000D01*
X172143000Y-67495000D02*
X186251000Y-67495000D01*
X157480000Y-52832000D02*
X172143000Y-67495000D01*
%TO.N,/STM32_MinimumSystem/PA7*%
X163322000Y-67945000D02*
X181991000Y-67945000D01*
X152400000Y-57023000D02*
X163322000Y-67945000D01*
X181991000Y-67945000D02*
X182626000Y-68580000D01*
%TO.N,/STM32_MinimumSystem/PB12*%
X139319000Y-68453000D02*
X139319000Y-73660000D01*
%TO.N,/STM32_MinimumSystem/PB13*%
X137160000Y-73533000D02*
X137287000Y-73660000D01*
X137160000Y-68580000D02*
X137160000Y-73533000D01*
%TO.N,/STM32_MinimumSystem/PB14*%
X134747000Y-68707000D02*
X134747000Y-72771000D01*
X134747000Y-72771000D02*
X135636000Y-73660000D01*
%TO.N,/STM32_MinimumSystem/PB15*%
X132715000Y-72263000D02*
X134620000Y-74168000D01*
X132715000Y-68834000D02*
X132715000Y-72263000D01*
X134620000Y-74168000D02*
X134737000Y-74285000D01*
%TO.N,/STM32_MinimumSystem/PA9*%
X134683500Y-88328500D02*
X134747000Y-88392000D01*
X124841000Y-78486000D02*
X134683500Y-88328500D01*
%TO.N,/STM32_MinimumSystem/PA10*%
X124460000Y-79629000D02*
X125735000Y-80904000D01*
X125735000Y-80904000D02*
X125735000Y-106680000D01*
%TD*%
%TA.AperFunction,Conductor*%
%TO.N,GND*%
G36*
X198107103Y-20576921D02*
G01*
X198120000Y-20579486D01*
X198132170Y-20577065D01*
X198142599Y-20577065D01*
X198155735Y-20576060D01*
X198478600Y-20590156D01*
X198535075Y-20592622D01*
X198546023Y-20593580D01*
X198952496Y-20647093D01*
X198963301Y-20648999D01*
X199363566Y-20737736D01*
X199374176Y-20740579D01*
X199765175Y-20863860D01*
X199775488Y-20867613D01*
X200154277Y-21024513D01*
X200164221Y-21029151D01*
X200466931Y-21186731D01*
X200527867Y-21218452D01*
X200537387Y-21223948D01*
X200883148Y-21444223D01*
X200892152Y-21450527D01*
X201217413Y-21700108D01*
X201225830Y-21707172D01*
X201309622Y-21783952D01*
X201528088Y-21984139D01*
X201535857Y-21991908D01*
X201812826Y-22294167D01*
X201819892Y-22302587D01*
X202069473Y-22627848D01*
X202075777Y-22636852D01*
X202296052Y-22982613D01*
X202301548Y-22992133D01*
X202490845Y-23355770D01*
X202495491Y-23365732D01*
X202652384Y-23744504D01*
X202656143Y-23754833D01*
X202779421Y-24145823D01*
X202782264Y-24156434D01*
X202871001Y-24556699D01*
X202872907Y-24567504D01*
X202904033Y-24803932D01*
X202926420Y-24973976D01*
X202927378Y-24984926D01*
X202943940Y-25364265D01*
X202942935Y-25377401D01*
X202942935Y-25387830D01*
X202940514Y-25400000D01*
X202942935Y-25412170D01*
X202943079Y-25412894D01*
X202945500Y-25437476D01*
X202945500Y-132048036D01*
X202943734Y-132069056D01*
X202943144Y-132072545D01*
X202940621Y-132087455D01*
X202943390Y-132099551D01*
X202943692Y-132110040D01*
X202945065Y-132123065D01*
X202939503Y-132492064D01*
X202938853Y-132503080D01*
X202897929Y-132900230D01*
X202896319Y-132911147D01*
X202820798Y-133303217D01*
X202818240Y-133313943D01*
X202708704Y-133697899D01*
X202705214Y-133708368D01*
X202562501Y-134081268D01*
X202558110Y-134091391D01*
X202383324Y-134450363D01*
X202378063Y-134460064D01*
X202172536Y-134802366D01*
X202166449Y-134811567D01*
X202029400Y-135000190D01*
X201931750Y-135134587D01*
X201924878Y-135143222D01*
X201662833Y-135444448D01*
X201655233Y-135452449D01*
X201402623Y-135696048D01*
X201367820Y-135729609D01*
X201359548Y-135736914D01*
X201048995Y-135987855D01*
X201040116Y-135994408D01*
X200708803Y-136217209D01*
X200699386Y-136222960D01*
X200629486Y-136261548D01*
X200349826Y-136415932D01*
X200339956Y-136420829D01*
X199974857Y-136582472D01*
X199964595Y-136586487D01*
X199586755Y-136715565D01*
X199576172Y-136718670D01*
X199188492Y-136814190D01*
X199177673Y-136816358D01*
X198961143Y-136849964D01*
X198783132Y-136877591D01*
X198772177Y-136878803D01*
X198554037Y-136893300D01*
X198404277Y-136903252D01*
X198390310Y-136902502D01*
X198380373Y-136902726D01*
X198368148Y-136900580D01*
X198356035Y-136903275D01*
X198351501Y-136903377D01*
X198332186Y-136905500D01*
X101637476Y-136905500D01*
X101612897Y-136903079D01*
X101600000Y-136900514D01*
X101587830Y-136902935D01*
X101577401Y-136902935D01*
X101564265Y-136903940D01*
X101241400Y-136889844D01*
X101184925Y-136887378D01*
X101173976Y-136886420D01*
X101113347Y-136878438D01*
X100767504Y-136832907D01*
X100756699Y-136831001D01*
X100356434Y-136742264D01*
X100345823Y-136739421D01*
X100280009Y-136718670D01*
X99954825Y-136616140D01*
X99944512Y-136612387D01*
X99565723Y-136455487D01*
X99555779Y-136450849D01*
X99192132Y-136261547D01*
X99182613Y-136256052D01*
X99126485Y-136220294D01*
X98836852Y-136035777D01*
X98827848Y-136029473D01*
X98502587Y-135779892D01*
X98494167Y-135772826D01*
X98447004Y-135729609D01*
X98191908Y-135495857D01*
X98184139Y-135488088D01*
X98147974Y-135448620D01*
X97907172Y-135185830D01*
X97900108Y-135177413D01*
X97873873Y-135143222D01*
X97650527Y-134852152D01*
X97644223Y-134843148D01*
X97423948Y-134497387D01*
X97418452Y-134487867D01*
X97229155Y-134124230D01*
X97224509Y-134114268D01*
X97212975Y-134086421D01*
X97067613Y-133735488D01*
X97063857Y-133725167D01*
X97058561Y-133708368D01*
X96940579Y-133334176D01*
X96937734Y-133323560D01*
X96935604Y-133313952D01*
X96848999Y-132923301D01*
X96847092Y-132912488D01*
X96846916Y-132911147D01*
X96793580Y-132506023D01*
X96792622Y-132495074D01*
X96776060Y-132115735D01*
X96777065Y-132102599D01*
X96777065Y-132092170D01*
X96779486Y-132080000D01*
X96776921Y-132067103D01*
X96774500Y-132042524D01*
X96774500Y-120904000D01*
X130758715Y-120904000D01*
X130777772Y-121048754D01*
X130780931Y-121056380D01*
X130825480Y-121163929D01*
X130833645Y-121183642D01*
X130922526Y-121299474D01*
X130929076Y-121304500D01*
X130929079Y-121304503D01*
X131031804Y-121383327D01*
X131038357Y-121388355D01*
X131173246Y-121444228D01*
X131318000Y-121463285D01*
X131326188Y-121462207D01*
X131454566Y-121445306D01*
X131462754Y-121444228D01*
X131597643Y-121388355D01*
X131700360Y-121309537D01*
X131766578Y-121283937D01*
X131777062Y-121283500D01*
X135811938Y-121283500D01*
X135880059Y-121303502D01*
X135888626Y-121309526D01*
X135991357Y-121388355D01*
X136126246Y-121444228D01*
X136271000Y-121463285D01*
X136279188Y-121462207D01*
X136407566Y-121445306D01*
X136415754Y-121444228D01*
X136550643Y-121388355D01*
X136557196Y-121383327D01*
X136659921Y-121304503D01*
X136659924Y-121304500D01*
X136666474Y-121299474D01*
X136671501Y-121292923D01*
X136671505Y-121292919D01*
X136738357Y-121205796D01*
X136795695Y-121163929D01*
X136838319Y-121156500D01*
X149142616Y-121156500D01*
X149210737Y-121176502D01*
X149231711Y-121193405D01*
X150918046Y-122879740D01*
X150952072Y-122942052D01*
X150953873Y-122952389D01*
X150963122Y-123022642D01*
X150970772Y-123080754D01*
X151026645Y-123215642D01*
X151050264Y-123246423D01*
X151105225Y-123318049D01*
X151115526Y-123331474D01*
X151122076Y-123336500D01*
X151122079Y-123336503D01*
X151201869Y-123397728D01*
X151231357Y-123420355D01*
X151366246Y-123476228D01*
X151511000Y-123495285D01*
X151519188Y-123494207D01*
X151647566Y-123477306D01*
X151655754Y-123476228D01*
X151790643Y-123420355D01*
X151893360Y-123341537D01*
X151959578Y-123315937D01*
X151970062Y-123315500D01*
X156131938Y-123315500D01*
X156200059Y-123335502D01*
X156208626Y-123341526D01*
X156311357Y-123420355D01*
X156446246Y-123476228D01*
X156591000Y-123495285D01*
X156599188Y-123494207D01*
X156727566Y-123477306D01*
X156735754Y-123476228D01*
X156870643Y-123420355D01*
X156973360Y-123341537D01*
X157039578Y-123315937D01*
X157050062Y-123315500D01*
X161363080Y-123315500D01*
X161387028Y-123318049D01*
X161388693Y-123318128D01*
X161398876Y-123320320D01*
X161409217Y-123319096D01*
X161432223Y-123316373D01*
X161438154Y-123316023D01*
X161438146Y-123315928D01*
X161443324Y-123315500D01*
X161448524Y-123315500D01*
X161453653Y-123314646D01*
X161453656Y-123314646D01*
X161467565Y-123312331D01*
X161473443Y-123311494D01*
X161514001Y-123306694D01*
X161514002Y-123306694D01*
X161524341Y-123305470D01*
X161531234Y-123302160D01*
X161538206Y-123300573D01*
X161541640Y-123300002D01*
X161542042Y-123302422D01*
X161581287Y-123298505D01*
X161610000Y-123302285D01*
X161618188Y-123301207D01*
X161746566Y-123284306D01*
X161754754Y-123283228D01*
X161889643Y-123227355D01*
X161896196Y-123222327D01*
X161998921Y-123143503D01*
X161998924Y-123143500D01*
X162005474Y-123138474D01*
X162043913Y-123088380D01*
X162089328Y-123029193D01*
X162094355Y-123022642D01*
X162099642Y-123009880D01*
X162147069Y-122895380D01*
X162150228Y-122887754D01*
X162169285Y-122743000D01*
X162150228Y-122598246D01*
X162100717Y-122478716D01*
X162097515Y-122470986D01*
X162097514Y-122470984D01*
X162094355Y-122463358D01*
X162029888Y-122379343D01*
X162010501Y-122354077D01*
X162010500Y-122354076D01*
X162005474Y-122347526D01*
X161998924Y-122342500D01*
X161998921Y-122342497D01*
X161896196Y-122263673D01*
X161896194Y-122263672D01*
X161889643Y-122258645D01*
X161754754Y-122202772D01*
X161610000Y-122183715D01*
X161601812Y-122184793D01*
X161473432Y-122201694D01*
X161473430Y-122201695D01*
X161465246Y-122202772D01*
X161417430Y-122222578D01*
X161337986Y-122255485D01*
X161337984Y-122255486D01*
X161330358Y-122258645D01*
X161214526Y-122347526D01*
X161125645Y-122463358D01*
X161119283Y-122478717D01*
X161074736Y-122533998D01*
X161002874Y-122556500D01*
X157050062Y-122556500D01*
X156981941Y-122536498D01*
X156973374Y-122530474D01*
X156870643Y-122451645D01*
X156735754Y-122395772D01*
X156591000Y-122376715D01*
X156582812Y-122377793D01*
X156454432Y-122394694D01*
X156454430Y-122394695D01*
X156446246Y-122395772D01*
X156414507Y-122408919D01*
X156318986Y-122448485D01*
X156318984Y-122448486D01*
X156311358Y-122451645D01*
X156286152Y-122470986D01*
X156208640Y-122530463D01*
X156142419Y-122556063D01*
X156131936Y-122556500D01*
X151970062Y-122556500D01*
X151901941Y-122536498D01*
X151893374Y-122530474D01*
X151790643Y-122451645D01*
X151655754Y-122395772D01*
X151527388Y-122378872D01*
X151462462Y-122350151D01*
X151454740Y-122343046D01*
X149658478Y-120546784D01*
X149643336Y-120528036D01*
X149642221Y-120526811D01*
X149636571Y-120518060D01*
X149628393Y-120511613D01*
X149628391Y-120511611D01*
X149610200Y-120497271D01*
X149605759Y-120493325D01*
X149605697Y-120493398D01*
X149601733Y-120490039D01*
X149598056Y-120486362D01*
X149582308Y-120475108D01*
X149577638Y-120471602D01*
X149537353Y-120439844D01*
X149528719Y-120436812D01*
X149521266Y-120431486D01*
X149472150Y-120416797D01*
X149466508Y-120414964D01*
X149425633Y-120400610D01*
X149425632Y-120400610D01*
X149418149Y-120397982D01*
X149412584Y-120397500D01*
X149409876Y-120397500D01*
X149407242Y-120397386D01*
X149407144Y-120397357D01*
X149407151Y-120397193D01*
X149406447Y-120397149D01*
X149400222Y-120395287D01*
X149346365Y-120397403D01*
X149341418Y-120397500D01*
X136522243Y-120397500D01*
X136474027Y-120387910D01*
X136415754Y-120363772D01*
X136271000Y-120344715D01*
X136262812Y-120345793D01*
X136134432Y-120362694D01*
X136134430Y-120362695D01*
X136126246Y-120363772D01*
X136078430Y-120383578D01*
X135998986Y-120416485D01*
X135998984Y-120416486D01*
X135991358Y-120419645D01*
X135968986Y-120436812D01*
X135888640Y-120498463D01*
X135822419Y-120524063D01*
X135811936Y-120524500D01*
X131777062Y-120524500D01*
X131708941Y-120504498D01*
X131700374Y-120498474D01*
X131597643Y-120419645D01*
X131462754Y-120363772D01*
X131318000Y-120344715D01*
X131309812Y-120345793D01*
X131181432Y-120362694D01*
X131181430Y-120362695D01*
X131173246Y-120363772D01*
X131125430Y-120383578D01*
X131045986Y-120416485D01*
X131045984Y-120416486D01*
X131038358Y-120419645D01*
X130922526Y-120508526D01*
X130833645Y-120624358D01*
X130777772Y-120759246D01*
X130758715Y-120904000D01*
X96774500Y-120904000D01*
X96774500Y-105804933D01*
X119550500Y-105804933D01*
X119550501Y-107555066D01*
X119565266Y-107629301D01*
X119572161Y-107639620D01*
X119572162Y-107639622D01*
X119612516Y-107700015D01*
X119621516Y-107713484D01*
X119705699Y-107769734D01*
X119779933Y-107784500D01*
X120654858Y-107784500D01*
X121530066Y-107784499D01*
X121565818Y-107777388D01*
X121592126Y-107772156D01*
X121592128Y-107772155D01*
X121604301Y-107769734D01*
X121614621Y-107762839D01*
X121614622Y-107762838D01*
X121678168Y-107720377D01*
X121688484Y-107713484D01*
X121744734Y-107629301D01*
X121759500Y-107555067D01*
X121759499Y-106650964D01*
X122086148Y-106650964D01*
X122099424Y-106853522D01*
X122100845Y-106859118D01*
X122100846Y-106859123D01*
X122122508Y-106944414D01*
X122149392Y-107050269D01*
X122151809Y-107055512D01*
X122189010Y-107136208D01*
X122234377Y-107234616D01*
X122351533Y-107400389D01*
X122496938Y-107542035D01*
X122665720Y-107654812D01*
X122671023Y-107657090D01*
X122671026Y-107657092D01*
X122802283Y-107713484D01*
X122852228Y-107734942D01*
X122925244Y-107751464D01*
X123044579Y-107778467D01*
X123044584Y-107778468D01*
X123050216Y-107779742D01*
X123055987Y-107779969D01*
X123055989Y-107779969D01*
X123115756Y-107782317D01*
X123253053Y-107787712D01*
X123360348Y-107772155D01*
X123448231Y-107759413D01*
X123448236Y-107759412D01*
X123453945Y-107758584D01*
X123459409Y-107756729D01*
X123459414Y-107756728D01*
X123640693Y-107695192D01*
X123640698Y-107695190D01*
X123646165Y-107693334D01*
X123823276Y-107594147D01*
X123862969Y-107561135D01*
X123974913Y-107468031D01*
X123979345Y-107464345D01*
X124109147Y-107308276D01*
X124208334Y-107131165D01*
X124210190Y-107125698D01*
X124210192Y-107125693D01*
X124271728Y-106944414D01*
X124271729Y-106944409D01*
X124273584Y-106938945D01*
X124274412Y-106933236D01*
X124274413Y-106933231D01*
X124302179Y-106741727D01*
X124302712Y-106738053D01*
X124304232Y-106680000D01*
X124285658Y-106477859D01*
X124284090Y-106472299D01*
X124232125Y-106288046D01*
X124232124Y-106288044D01*
X124230557Y-106282487D01*
X124219978Y-106261033D01*
X124143331Y-106105609D01*
X124140776Y-106100428D01*
X124019320Y-105937779D01*
X123870258Y-105799987D01*
X123865375Y-105796906D01*
X123865371Y-105796903D01*
X123703464Y-105694748D01*
X123698581Y-105691667D01*
X123510039Y-105616446D01*
X123504379Y-105615320D01*
X123504375Y-105615319D01*
X123316613Y-105577971D01*
X123316610Y-105577971D01*
X123310946Y-105576844D01*
X123305171Y-105576768D01*
X123305167Y-105576768D01*
X123203793Y-105575441D01*
X123107971Y-105574187D01*
X123102274Y-105575166D01*
X123102273Y-105575166D01*
X123014397Y-105590266D01*
X122907910Y-105608564D01*
X122717463Y-105678824D01*
X122543010Y-105782612D01*
X122538670Y-105786418D01*
X122538666Y-105786421D01*
X122394733Y-105912648D01*
X122390392Y-105916455D01*
X122264720Y-106075869D01*
X122262031Y-106080980D01*
X122262029Y-106080983D01*
X122249073Y-106105609D01*
X122170203Y-106255515D01*
X122110007Y-106449378D01*
X122086148Y-106650964D01*
X121759499Y-106650964D01*
X121759499Y-105804934D01*
X121744734Y-105730699D01*
X121718654Y-105691667D01*
X121695377Y-105656832D01*
X121688484Y-105646516D01*
X121604301Y-105590266D01*
X121530067Y-105575500D01*
X120655142Y-105575500D01*
X119779934Y-105575501D01*
X119744182Y-105582612D01*
X119717874Y-105587844D01*
X119717872Y-105587845D01*
X119705699Y-105590266D01*
X119695379Y-105597161D01*
X119695378Y-105597162D01*
X119646256Y-105629985D01*
X119621516Y-105646516D01*
X119565266Y-105730699D01*
X119550500Y-105804933D01*
X96774500Y-105804933D01*
X96774500Y-79629000D01*
X123900715Y-79629000D01*
X123901793Y-79637188D01*
X123917988Y-79760200D01*
X123919772Y-79773754D01*
X123922931Y-79781380D01*
X123960630Y-79872392D01*
X123975645Y-79908642D01*
X123980672Y-79915193D01*
X124046116Y-80000481D01*
X124064526Y-80024474D01*
X124071076Y-80029500D01*
X124071079Y-80029503D01*
X124173804Y-80108327D01*
X124180357Y-80113355D01*
X124315246Y-80169228D01*
X124443612Y-80186128D01*
X124508538Y-80214849D01*
X124516260Y-80221954D01*
X125318595Y-81024289D01*
X125352621Y-81086601D01*
X125355500Y-81113384D01*
X125355500Y-105554839D01*
X125335498Y-105622960D01*
X125281842Y-105669453D01*
X125273118Y-105673049D01*
X125257463Y-105678824D01*
X125083010Y-105782612D01*
X125078670Y-105786418D01*
X125078666Y-105786421D01*
X124934733Y-105912648D01*
X124930392Y-105916455D01*
X124804720Y-106075869D01*
X124802031Y-106080980D01*
X124802029Y-106080983D01*
X124789073Y-106105609D01*
X124710203Y-106255515D01*
X124650007Y-106449378D01*
X124626148Y-106650964D01*
X124639424Y-106853522D01*
X124640845Y-106859118D01*
X124640846Y-106859123D01*
X124662508Y-106944414D01*
X124689392Y-107050269D01*
X124691809Y-107055512D01*
X124729010Y-107136208D01*
X124774377Y-107234616D01*
X124891533Y-107400389D01*
X125036938Y-107542035D01*
X125205720Y-107654812D01*
X125211023Y-107657090D01*
X125211026Y-107657092D01*
X125342283Y-107713484D01*
X125392228Y-107734942D01*
X125465244Y-107751464D01*
X125584579Y-107778467D01*
X125584584Y-107778468D01*
X125590216Y-107779742D01*
X125595987Y-107779969D01*
X125595989Y-107779969D01*
X125655756Y-107782317D01*
X125793053Y-107787712D01*
X125900348Y-107772155D01*
X125988231Y-107759413D01*
X125988236Y-107759412D01*
X125993945Y-107758584D01*
X125999409Y-107756729D01*
X125999414Y-107756728D01*
X126180693Y-107695192D01*
X126180698Y-107695190D01*
X126186165Y-107693334D01*
X126363276Y-107594147D01*
X126402969Y-107561135D01*
X126514913Y-107468031D01*
X126519345Y-107464345D01*
X126649147Y-107308276D01*
X126748334Y-107131165D01*
X126750190Y-107125698D01*
X126750192Y-107125693D01*
X126811728Y-106944414D01*
X126811729Y-106944409D01*
X126813584Y-106938945D01*
X126814412Y-106933236D01*
X126814413Y-106933231D01*
X126842179Y-106741727D01*
X126842712Y-106738053D01*
X126844232Y-106680000D01*
X126841564Y-106650964D01*
X127166148Y-106650964D01*
X127179424Y-106853522D01*
X127180845Y-106859118D01*
X127180846Y-106859123D01*
X127202508Y-106944414D01*
X127229392Y-107050269D01*
X127231809Y-107055512D01*
X127269010Y-107136208D01*
X127314377Y-107234616D01*
X127431533Y-107400389D01*
X127576938Y-107542035D01*
X127745720Y-107654812D01*
X127751023Y-107657090D01*
X127751026Y-107657092D01*
X127882283Y-107713484D01*
X127932228Y-107734942D01*
X128005244Y-107751464D01*
X128124579Y-107778467D01*
X128124584Y-107778468D01*
X128130216Y-107779742D01*
X128135987Y-107779969D01*
X128135989Y-107779969D01*
X128195756Y-107782317D01*
X128333053Y-107787712D01*
X128440348Y-107772155D01*
X128528231Y-107759413D01*
X128528236Y-107759412D01*
X128533945Y-107758584D01*
X128539409Y-107756729D01*
X128539414Y-107756728D01*
X128720693Y-107695192D01*
X128720698Y-107695190D01*
X128726165Y-107693334D01*
X128903276Y-107594147D01*
X128942969Y-107561135D01*
X129054913Y-107468031D01*
X129059345Y-107464345D01*
X129189147Y-107308276D01*
X129288334Y-107131165D01*
X129290190Y-107125698D01*
X129290192Y-107125693D01*
X129351728Y-106944414D01*
X129351729Y-106944409D01*
X129353584Y-106938945D01*
X129354412Y-106933236D01*
X129354413Y-106933231D01*
X129382179Y-106741727D01*
X129382712Y-106738053D01*
X129384232Y-106680000D01*
X129381564Y-106650964D01*
X129706148Y-106650964D01*
X129719424Y-106853522D01*
X129720845Y-106859118D01*
X129720846Y-106859123D01*
X129742508Y-106944414D01*
X129769392Y-107050269D01*
X129771809Y-107055512D01*
X129809010Y-107136208D01*
X129854377Y-107234616D01*
X129971533Y-107400389D01*
X130116938Y-107542035D01*
X130285720Y-107654812D01*
X130291023Y-107657090D01*
X130291026Y-107657092D01*
X130422283Y-107713484D01*
X130472228Y-107734942D01*
X130545244Y-107751464D01*
X130664579Y-107778467D01*
X130664584Y-107778468D01*
X130670216Y-107779742D01*
X130675987Y-107779969D01*
X130675989Y-107779969D01*
X130735756Y-107782317D01*
X130873053Y-107787712D01*
X130980348Y-107772155D01*
X131068231Y-107759413D01*
X131068236Y-107759412D01*
X131073945Y-107758584D01*
X131079409Y-107756729D01*
X131079414Y-107756728D01*
X131260693Y-107695192D01*
X131260698Y-107695190D01*
X131266165Y-107693334D01*
X131443276Y-107594147D01*
X131482969Y-107561135D01*
X131594913Y-107468031D01*
X131599345Y-107464345D01*
X131729147Y-107308276D01*
X131828334Y-107131165D01*
X131830190Y-107125698D01*
X131830192Y-107125693D01*
X131891728Y-106944414D01*
X131891729Y-106944409D01*
X131893584Y-106938945D01*
X131894412Y-106933236D01*
X131894413Y-106933231D01*
X131922179Y-106741727D01*
X131922712Y-106738053D01*
X131924232Y-106680000D01*
X131921564Y-106650964D01*
X132246148Y-106650964D01*
X132259424Y-106853522D01*
X132260845Y-106859118D01*
X132260846Y-106859123D01*
X132282508Y-106944414D01*
X132309392Y-107050269D01*
X132311809Y-107055512D01*
X132349010Y-107136208D01*
X132394377Y-107234616D01*
X132511533Y-107400389D01*
X132656938Y-107542035D01*
X132825720Y-107654812D01*
X132831023Y-107657090D01*
X132831026Y-107657092D01*
X132962283Y-107713484D01*
X133012228Y-107734942D01*
X133085244Y-107751464D01*
X133204579Y-107778467D01*
X133204584Y-107778468D01*
X133210216Y-107779742D01*
X133215987Y-107779969D01*
X133215989Y-107779969D01*
X133275756Y-107782317D01*
X133413053Y-107787712D01*
X133520348Y-107772155D01*
X133608231Y-107759413D01*
X133608236Y-107759412D01*
X133613945Y-107758584D01*
X133619409Y-107756729D01*
X133619414Y-107756728D01*
X133800693Y-107695192D01*
X133800698Y-107695190D01*
X133806165Y-107693334D01*
X133983276Y-107594147D01*
X134022969Y-107561135D01*
X134134913Y-107468031D01*
X134139345Y-107464345D01*
X134269147Y-107308276D01*
X134368334Y-107131165D01*
X134370190Y-107125698D01*
X134370192Y-107125693D01*
X134431728Y-106944414D01*
X134431729Y-106944409D01*
X134433584Y-106938945D01*
X134434412Y-106933236D01*
X134434413Y-106933231D01*
X134462179Y-106741727D01*
X134462712Y-106738053D01*
X134464232Y-106680000D01*
X134461564Y-106650964D01*
X134786148Y-106650964D01*
X134799424Y-106853522D01*
X134800845Y-106859118D01*
X134800846Y-106859123D01*
X134822508Y-106944414D01*
X134849392Y-107050269D01*
X134851809Y-107055512D01*
X134889010Y-107136208D01*
X134934377Y-107234616D01*
X135051533Y-107400389D01*
X135196938Y-107542035D01*
X135365720Y-107654812D01*
X135371023Y-107657090D01*
X135371026Y-107657092D01*
X135502283Y-107713484D01*
X135552228Y-107734942D01*
X135625244Y-107751464D01*
X135744579Y-107778467D01*
X135744584Y-107778468D01*
X135750216Y-107779742D01*
X135755987Y-107779969D01*
X135755989Y-107779969D01*
X135815756Y-107782317D01*
X135953053Y-107787712D01*
X136060348Y-107772155D01*
X136148231Y-107759413D01*
X136148236Y-107759412D01*
X136153945Y-107758584D01*
X136159409Y-107756729D01*
X136159414Y-107756728D01*
X136340693Y-107695192D01*
X136340698Y-107695190D01*
X136346165Y-107693334D01*
X136523276Y-107594147D01*
X136562969Y-107561135D01*
X136674913Y-107468031D01*
X136679345Y-107464345D01*
X136809147Y-107308276D01*
X136908334Y-107131165D01*
X136910190Y-107125698D01*
X136910192Y-107125693D01*
X136971728Y-106944414D01*
X136971729Y-106944409D01*
X136973584Y-106938945D01*
X136974412Y-106933236D01*
X136974413Y-106933231D01*
X137002179Y-106741727D01*
X137002712Y-106738053D01*
X137004232Y-106680000D01*
X137001564Y-106650964D01*
X137326148Y-106650964D01*
X137339424Y-106853522D01*
X137340845Y-106859118D01*
X137340846Y-106859123D01*
X137362508Y-106944414D01*
X137389392Y-107050269D01*
X137391809Y-107055512D01*
X137429010Y-107136208D01*
X137474377Y-107234616D01*
X137591533Y-107400389D01*
X137736938Y-107542035D01*
X137905720Y-107654812D01*
X137911023Y-107657090D01*
X137911026Y-107657092D01*
X138042283Y-107713484D01*
X138092228Y-107734942D01*
X138165244Y-107751464D01*
X138284579Y-107778467D01*
X138284584Y-107778468D01*
X138290216Y-107779742D01*
X138295987Y-107779969D01*
X138295989Y-107779969D01*
X138355756Y-107782317D01*
X138493053Y-107787712D01*
X138600348Y-107772155D01*
X138688231Y-107759413D01*
X138688236Y-107759412D01*
X138693945Y-107758584D01*
X138699409Y-107756729D01*
X138699414Y-107756728D01*
X138880693Y-107695192D01*
X138880698Y-107695190D01*
X138886165Y-107693334D01*
X139063276Y-107594147D01*
X139102969Y-107561135D01*
X139214913Y-107468031D01*
X139219345Y-107464345D01*
X139349147Y-107308276D01*
X139448334Y-107131165D01*
X139450190Y-107125698D01*
X139450192Y-107125693D01*
X139511728Y-106944414D01*
X139511729Y-106944409D01*
X139513584Y-106938945D01*
X139514412Y-106933236D01*
X139514413Y-106933231D01*
X139542179Y-106741727D01*
X139542712Y-106738053D01*
X139544232Y-106680000D01*
X139541564Y-106650964D01*
X139866148Y-106650964D01*
X139879424Y-106853522D01*
X139880845Y-106859118D01*
X139880846Y-106859123D01*
X139902508Y-106944414D01*
X139929392Y-107050269D01*
X139931809Y-107055512D01*
X139969010Y-107136208D01*
X140014377Y-107234616D01*
X140131533Y-107400389D01*
X140276938Y-107542035D01*
X140445720Y-107654812D01*
X140451023Y-107657090D01*
X140451026Y-107657092D01*
X140582283Y-107713484D01*
X140632228Y-107734942D01*
X140705244Y-107751464D01*
X140824579Y-107778467D01*
X140824584Y-107778468D01*
X140830216Y-107779742D01*
X140835987Y-107779969D01*
X140835989Y-107779969D01*
X140895756Y-107782317D01*
X141033053Y-107787712D01*
X141140348Y-107772155D01*
X141228231Y-107759413D01*
X141228236Y-107759412D01*
X141233945Y-107758584D01*
X141239409Y-107756729D01*
X141239414Y-107756728D01*
X141420693Y-107695192D01*
X141420698Y-107695190D01*
X141426165Y-107693334D01*
X141603276Y-107594147D01*
X141642969Y-107561135D01*
X141754913Y-107468031D01*
X141759345Y-107464345D01*
X141889147Y-107308276D01*
X141988334Y-107131165D01*
X141990190Y-107125698D01*
X141990192Y-107125693D01*
X142051728Y-106944414D01*
X142051729Y-106944409D01*
X142053584Y-106938945D01*
X142054412Y-106933236D01*
X142054413Y-106933231D01*
X142082179Y-106741727D01*
X142082712Y-106738053D01*
X142084232Y-106680000D01*
X142081564Y-106650964D01*
X142406148Y-106650964D01*
X142419424Y-106853522D01*
X142420845Y-106859118D01*
X142420846Y-106859123D01*
X142442508Y-106944414D01*
X142469392Y-107050269D01*
X142471809Y-107055512D01*
X142509010Y-107136208D01*
X142554377Y-107234616D01*
X142671533Y-107400389D01*
X142816938Y-107542035D01*
X142985720Y-107654812D01*
X142991023Y-107657090D01*
X142991026Y-107657092D01*
X143122283Y-107713484D01*
X143172228Y-107734942D01*
X143245244Y-107751464D01*
X143364579Y-107778467D01*
X143364584Y-107778468D01*
X143370216Y-107779742D01*
X143375987Y-107779969D01*
X143375989Y-107779969D01*
X143435756Y-107782317D01*
X143573053Y-107787712D01*
X143680348Y-107772155D01*
X143768231Y-107759413D01*
X143768236Y-107759412D01*
X143773945Y-107758584D01*
X143779409Y-107756729D01*
X143779414Y-107756728D01*
X143960693Y-107695192D01*
X143960698Y-107695190D01*
X143966165Y-107693334D01*
X144143276Y-107594147D01*
X144182969Y-107561135D01*
X144294913Y-107468031D01*
X144299345Y-107464345D01*
X144429147Y-107308276D01*
X144528334Y-107131165D01*
X144530190Y-107125698D01*
X144530192Y-107125693D01*
X144591728Y-106944414D01*
X144591729Y-106944409D01*
X144593584Y-106938945D01*
X144594412Y-106933236D01*
X144594413Y-106933231D01*
X144622179Y-106741727D01*
X144622712Y-106738053D01*
X144624232Y-106680000D01*
X144621564Y-106650964D01*
X144946148Y-106650964D01*
X144959424Y-106853522D01*
X144960845Y-106859118D01*
X144960846Y-106859123D01*
X144982508Y-106944414D01*
X145009392Y-107050269D01*
X145011809Y-107055512D01*
X145049010Y-107136208D01*
X145094377Y-107234616D01*
X145211533Y-107400389D01*
X145356938Y-107542035D01*
X145525720Y-107654812D01*
X145531023Y-107657090D01*
X145531026Y-107657092D01*
X145662283Y-107713484D01*
X145712228Y-107734942D01*
X145785244Y-107751464D01*
X145904579Y-107778467D01*
X145904584Y-107778468D01*
X145910216Y-107779742D01*
X145915987Y-107779969D01*
X145915989Y-107779969D01*
X145975756Y-107782317D01*
X146113053Y-107787712D01*
X146220348Y-107772155D01*
X146308231Y-107759413D01*
X146308236Y-107759412D01*
X146313945Y-107758584D01*
X146319409Y-107756729D01*
X146319414Y-107756728D01*
X146500693Y-107695192D01*
X146500698Y-107695190D01*
X146506165Y-107693334D01*
X146683276Y-107594147D01*
X146722969Y-107561135D01*
X146834913Y-107468031D01*
X146839345Y-107464345D01*
X146969147Y-107308276D01*
X147068334Y-107131165D01*
X147070190Y-107125698D01*
X147070192Y-107125693D01*
X147131728Y-106944414D01*
X147131729Y-106944409D01*
X147133584Y-106938945D01*
X147134412Y-106933236D01*
X147134413Y-106933231D01*
X147162179Y-106741727D01*
X147162712Y-106738053D01*
X147164232Y-106680000D01*
X147161564Y-106650964D01*
X147486148Y-106650964D01*
X147499424Y-106853522D01*
X147500845Y-106859118D01*
X147500846Y-106859123D01*
X147522508Y-106944414D01*
X147549392Y-107050269D01*
X147551809Y-107055512D01*
X147589010Y-107136208D01*
X147634377Y-107234616D01*
X147751533Y-107400389D01*
X147896938Y-107542035D01*
X148065720Y-107654812D01*
X148071023Y-107657090D01*
X148071026Y-107657092D01*
X148202283Y-107713484D01*
X148252228Y-107734942D01*
X148325244Y-107751464D01*
X148444579Y-107778467D01*
X148444584Y-107778468D01*
X148450216Y-107779742D01*
X148455987Y-107779969D01*
X148455989Y-107779969D01*
X148515756Y-107782317D01*
X148653053Y-107787712D01*
X148760348Y-107772155D01*
X148848231Y-107759413D01*
X148848236Y-107759412D01*
X148853945Y-107758584D01*
X148859409Y-107756729D01*
X148859414Y-107756728D01*
X149040693Y-107695192D01*
X149040698Y-107695190D01*
X149046165Y-107693334D01*
X149223276Y-107594147D01*
X149262969Y-107561135D01*
X149374913Y-107468031D01*
X149379345Y-107464345D01*
X149509147Y-107308276D01*
X149608334Y-107131165D01*
X149610190Y-107125698D01*
X149610192Y-107125693D01*
X149671728Y-106944414D01*
X149671729Y-106944409D01*
X149673584Y-106938945D01*
X149674412Y-106933236D01*
X149674413Y-106933231D01*
X149702179Y-106741727D01*
X149702712Y-106738053D01*
X149704232Y-106680000D01*
X149701564Y-106650964D01*
X150026148Y-106650964D01*
X150039424Y-106853522D01*
X150040845Y-106859118D01*
X150040846Y-106859123D01*
X150062508Y-106944414D01*
X150089392Y-107050269D01*
X150091809Y-107055512D01*
X150129010Y-107136208D01*
X150174377Y-107234616D01*
X150291533Y-107400389D01*
X150436938Y-107542035D01*
X150605720Y-107654812D01*
X150611023Y-107657090D01*
X150611026Y-107657092D01*
X150742283Y-107713484D01*
X150792228Y-107734942D01*
X150865244Y-107751464D01*
X150984579Y-107778467D01*
X150984584Y-107778468D01*
X150990216Y-107779742D01*
X150995987Y-107779969D01*
X150995989Y-107779969D01*
X151055756Y-107782317D01*
X151193053Y-107787712D01*
X151300348Y-107772155D01*
X151388231Y-107759413D01*
X151388236Y-107759412D01*
X151393945Y-107758584D01*
X151530991Y-107712063D01*
X151601926Y-107709107D01*
X151660587Y-107742281D01*
X163093595Y-119175289D01*
X163127621Y-119237601D01*
X163130500Y-119264384D01*
X163130500Y-122398436D01*
X163110498Y-122466557D01*
X163104463Y-122475140D01*
X163025645Y-122577858D01*
X163022486Y-122585484D01*
X163022485Y-122585486D01*
X163017200Y-122598246D01*
X162969772Y-122712746D01*
X162950715Y-122857500D01*
X162951793Y-122865688D01*
X162961050Y-122936000D01*
X162969772Y-123002254D01*
X163025645Y-123137142D01*
X163030672Y-123143693D01*
X163097293Y-123230515D01*
X163114526Y-123252974D01*
X163121076Y-123258000D01*
X163121079Y-123258003D01*
X163223382Y-123336503D01*
X163230357Y-123341855D01*
X163365246Y-123397728D01*
X163510000Y-123416785D01*
X163518188Y-123415707D01*
X163521060Y-123415329D01*
X163654754Y-123397728D01*
X163789643Y-123341855D01*
X163796618Y-123336503D01*
X163898921Y-123258003D01*
X163898924Y-123258000D01*
X163905474Y-123252974D01*
X163922708Y-123230515D01*
X163989328Y-123143693D01*
X163994355Y-123137142D01*
X164050228Y-123002254D01*
X164058951Y-122936000D01*
X164068207Y-122865688D01*
X164069285Y-122857500D01*
X164050228Y-122712746D01*
X164002800Y-122598246D01*
X163997515Y-122585486D01*
X163997514Y-122585484D01*
X163994355Y-122577858D01*
X163915537Y-122475140D01*
X163889937Y-122408919D01*
X163889500Y-122398436D01*
X163889500Y-119108920D01*
X163892049Y-119084972D01*
X163892128Y-119083307D01*
X163894320Y-119073124D01*
X163890373Y-119039777D01*
X163890023Y-119033846D01*
X163889928Y-119033854D01*
X163889500Y-119028676D01*
X163889500Y-119023476D01*
X163888646Y-119018344D01*
X163886331Y-119004435D01*
X163885494Y-118998557D01*
X163880694Y-118957999D01*
X163880694Y-118957998D01*
X163879470Y-118947659D01*
X163875507Y-118939407D01*
X163874004Y-118930374D01*
X163849665Y-118885266D01*
X163846969Y-118879975D01*
X163828215Y-118840918D01*
X163828212Y-118840914D01*
X163824781Y-118833768D01*
X163821186Y-118829492D01*
X163819263Y-118827569D01*
X163817491Y-118825637D01*
X163817448Y-118825558D01*
X163817572Y-118825445D01*
X163817096Y-118824905D01*
X163814010Y-118819186D01*
X163774413Y-118782583D01*
X163770848Y-118779154D01*
X152197281Y-107205587D01*
X152163255Y-107143275D01*
X152167063Y-107075991D01*
X152175795Y-107050269D01*
X152213584Y-106938945D01*
X152214412Y-106933236D01*
X152214413Y-106933231D01*
X152242179Y-106741727D01*
X152242712Y-106738053D01*
X152244232Y-106680000D01*
X152241564Y-106650964D01*
X152566148Y-106650964D01*
X152579424Y-106853522D01*
X152580845Y-106859118D01*
X152580846Y-106859123D01*
X152602508Y-106944414D01*
X152629392Y-107050269D01*
X152631809Y-107055512D01*
X152669010Y-107136208D01*
X152714377Y-107234616D01*
X152831533Y-107400389D01*
X152976938Y-107542035D01*
X153145720Y-107654812D01*
X153151023Y-107657090D01*
X153151026Y-107657092D01*
X153282283Y-107713484D01*
X153332228Y-107734942D01*
X153405244Y-107751464D01*
X153524579Y-107778467D01*
X153524584Y-107778468D01*
X153530216Y-107779742D01*
X153535987Y-107779969D01*
X153535989Y-107779969D01*
X153595756Y-107782317D01*
X153733053Y-107787712D01*
X153840348Y-107772155D01*
X153928231Y-107759413D01*
X153928236Y-107759412D01*
X153933945Y-107758584D01*
X153939409Y-107756729D01*
X153939414Y-107756728D01*
X154120693Y-107695192D01*
X154120698Y-107695190D01*
X154126165Y-107693334D01*
X154303276Y-107594147D01*
X154342969Y-107561135D01*
X154454913Y-107468031D01*
X154459345Y-107464345D01*
X154589147Y-107308276D01*
X154688334Y-107131165D01*
X154690190Y-107125698D01*
X154690192Y-107125693D01*
X154751728Y-106944414D01*
X154751729Y-106944409D01*
X154753584Y-106938945D01*
X154754412Y-106933236D01*
X154754413Y-106933231D01*
X154782179Y-106741727D01*
X154782712Y-106738053D01*
X154784232Y-106680000D01*
X154781564Y-106650964D01*
X155106148Y-106650964D01*
X155119424Y-106853522D01*
X155120845Y-106859118D01*
X155120846Y-106859123D01*
X155142508Y-106944414D01*
X155169392Y-107050269D01*
X155171809Y-107055512D01*
X155209010Y-107136208D01*
X155254377Y-107234616D01*
X155371533Y-107400389D01*
X155516938Y-107542035D01*
X155685720Y-107654812D01*
X155691023Y-107657090D01*
X155691026Y-107657092D01*
X155822283Y-107713484D01*
X155872228Y-107734942D01*
X155945244Y-107751464D01*
X156064579Y-107778467D01*
X156064584Y-107778468D01*
X156070216Y-107779742D01*
X156075987Y-107779969D01*
X156075989Y-107779969D01*
X156135756Y-107782317D01*
X156273053Y-107787712D01*
X156380348Y-107772155D01*
X156468231Y-107759413D01*
X156468236Y-107759412D01*
X156473945Y-107758584D01*
X156479409Y-107756729D01*
X156479414Y-107756728D01*
X156660693Y-107695192D01*
X156660698Y-107695190D01*
X156666165Y-107693334D01*
X156843276Y-107594147D01*
X156882969Y-107561135D01*
X156994913Y-107468031D01*
X156999345Y-107464345D01*
X157129147Y-107308276D01*
X157228334Y-107131165D01*
X157230190Y-107125698D01*
X157230192Y-107125693D01*
X157291728Y-106944414D01*
X157291729Y-106944409D01*
X157293584Y-106938945D01*
X157294412Y-106933236D01*
X157294413Y-106933231D01*
X157322179Y-106741727D01*
X157322712Y-106738053D01*
X157324232Y-106680000D01*
X157321564Y-106650964D01*
X157646148Y-106650964D01*
X157659424Y-106853522D01*
X157660845Y-106859118D01*
X157660846Y-106859123D01*
X157682508Y-106944414D01*
X157709392Y-107050269D01*
X157711809Y-107055512D01*
X157749010Y-107136208D01*
X157794377Y-107234616D01*
X157911533Y-107400389D01*
X158056938Y-107542035D01*
X158225720Y-107654812D01*
X158231023Y-107657090D01*
X158231026Y-107657092D01*
X158362283Y-107713484D01*
X158412228Y-107734942D01*
X158485244Y-107751464D01*
X158604579Y-107778467D01*
X158604584Y-107778468D01*
X158610216Y-107779742D01*
X158615987Y-107779969D01*
X158615989Y-107779969D01*
X158675756Y-107782317D01*
X158813053Y-107787712D01*
X158920348Y-107772155D01*
X159008231Y-107759413D01*
X159008236Y-107759412D01*
X159013945Y-107758584D01*
X159019409Y-107756729D01*
X159019414Y-107756728D01*
X159200693Y-107695192D01*
X159200698Y-107695190D01*
X159206165Y-107693334D01*
X159383276Y-107594147D01*
X159422969Y-107561135D01*
X159534913Y-107468031D01*
X159539345Y-107464345D01*
X159669147Y-107308276D01*
X159768334Y-107131165D01*
X159770190Y-107125698D01*
X159770192Y-107125693D01*
X159831728Y-106944414D01*
X159831729Y-106944409D01*
X159833584Y-106938945D01*
X159834412Y-106933236D01*
X159834413Y-106933231D01*
X159862179Y-106741727D01*
X159862712Y-106738053D01*
X159864232Y-106680000D01*
X159861564Y-106650964D01*
X160186148Y-106650964D01*
X160199424Y-106853522D01*
X160200845Y-106859118D01*
X160200846Y-106859123D01*
X160222508Y-106944414D01*
X160249392Y-107050269D01*
X160251809Y-107055512D01*
X160289010Y-107136208D01*
X160334377Y-107234616D01*
X160451533Y-107400389D01*
X160596938Y-107542035D01*
X160765720Y-107654812D01*
X160771023Y-107657090D01*
X160771026Y-107657092D01*
X160902283Y-107713484D01*
X160952228Y-107734942D01*
X161025244Y-107751464D01*
X161144579Y-107778467D01*
X161144584Y-107778468D01*
X161150216Y-107779742D01*
X161155987Y-107779969D01*
X161155989Y-107779969D01*
X161215756Y-107782317D01*
X161353053Y-107787712D01*
X161460348Y-107772155D01*
X161548231Y-107759413D01*
X161548236Y-107759412D01*
X161553945Y-107758584D01*
X161559409Y-107756729D01*
X161559414Y-107756728D01*
X161740693Y-107695192D01*
X161740698Y-107695190D01*
X161746165Y-107693334D01*
X161923276Y-107594147D01*
X161962969Y-107561135D01*
X162074913Y-107468031D01*
X162079345Y-107464345D01*
X162209147Y-107308276D01*
X162308334Y-107131165D01*
X162310190Y-107125698D01*
X162310192Y-107125693D01*
X162371728Y-106944414D01*
X162371729Y-106944409D01*
X162373584Y-106938945D01*
X162374412Y-106933236D01*
X162374413Y-106933231D01*
X162402179Y-106741727D01*
X162402712Y-106738053D01*
X162404232Y-106680000D01*
X162401564Y-106650964D01*
X162726148Y-106650964D01*
X162739424Y-106853522D01*
X162740845Y-106859118D01*
X162740846Y-106859123D01*
X162762508Y-106944414D01*
X162789392Y-107050269D01*
X162791809Y-107055512D01*
X162829010Y-107136208D01*
X162874377Y-107234616D01*
X162991533Y-107400389D01*
X163136938Y-107542035D01*
X163305720Y-107654812D01*
X163311023Y-107657090D01*
X163311026Y-107657092D01*
X163442283Y-107713484D01*
X163492228Y-107734942D01*
X163565244Y-107751464D01*
X163684579Y-107778467D01*
X163684584Y-107778468D01*
X163690216Y-107779742D01*
X163695987Y-107779969D01*
X163695989Y-107779969D01*
X163755756Y-107782317D01*
X163893053Y-107787712D01*
X164000348Y-107772155D01*
X164088231Y-107759413D01*
X164088236Y-107759412D01*
X164093945Y-107758584D01*
X164099409Y-107756729D01*
X164099414Y-107756728D01*
X164280693Y-107695192D01*
X164280698Y-107695190D01*
X164286165Y-107693334D01*
X164463276Y-107594147D01*
X164502969Y-107561135D01*
X164614913Y-107468031D01*
X164619345Y-107464345D01*
X164749147Y-107308276D01*
X164848334Y-107131165D01*
X164850190Y-107125698D01*
X164850192Y-107125693D01*
X164911728Y-106944414D01*
X164911729Y-106944409D01*
X164913584Y-106938945D01*
X164914412Y-106933236D01*
X164914413Y-106933231D01*
X164942179Y-106741727D01*
X164942712Y-106738053D01*
X164944232Y-106680000D01*
X164941564Y-106650964D01*
X165266148Y-106650964D01*
X165279424Y-106853522D01*
X165280845Y-106859118D01*
X165280846Y-106859123D01*
X165302508Y-106944414D01*
X165329392Y-107050269D01*
X165331809Y-107055512D01*
X165369010Y-107136208D01*
X165414377Y-107234616D01*
X165531533Y-107400389D01*
X165676938Y-107542035D01*
X165845720Y-107654812D01*
X165851023Y-107657090D01*
X165851026Y-107657092D01*
X165982283Y-107713484D01*
X166032228Y-107734942D01*
X166105244Y-107751464D01*
X166224579Y-107778467D01*
X166224584Y-107778468D01*
X166230216Y-107779742D01*
X166235987Y-107779969D01*
X166235989Y-107779969D01*
X166295756Y-107782317D01*
X166433053Y-107787712D01*
X166540348Y-107772155D01*
X166628231Y-107759413D01*
X166628236Y-107759412D01*
X166633945Y-107758584D01*
X166639409Y-107756729D01*
X166639414Y-107756728D01*
X166820693Y-107695192D01*
X166820698Y-107695190D01*
X166826165Y-107693334D01*
X167003276Y-107594147D01*
X167042969Y-107561135D01*
X167154913Y-107468031D01*
X167159345Y-107464345D01*
X167289147Y-107308276D01*
X167388334Y-107131165D01*
X167390190Y-107125698D01*
X167390192Y-107125693D01*
X167451728Y-106944414D01*
X167451729Y-106944409D01*
X167453584Y-106938945D01*
X167454412Y-106933236D01*
X167454413Y-106933231D01*
X167482179Y-106741727D01*
X167482712Y-106738053D01*
X167484232Y-106680000D01*
X167465658Y-106477859D01*
X167464090Y-106472299D01*
X167412125Y-106288046D01*
X167412124Y-106288044D01*
X167410557Y-106282487D01*
X167399978Y-106261033D01*
X167323331Y-106105609D01*
X167320776Y-106100428D01*
X167199320Y-105937779D01*
X167050258Y-105799987D01*
X167045375Y-105796906D01*
X167045371Y-105796903D01*
X166883464Y-105694748D01*
X166878581Y-105691667D01*
X166690039Y-105616446D01*
X166684379Y-105615320D01*
X166684375Y-105615319D01*
X166496613Y-105577971D01*
X166496610Y-105577971D01*
X166490946Y-105576844D01*
X166485171Y-105576768D01*
X166485167Y-105576768D01*
X166383793Y-105575441D01*
X166287971Y-105574187D01*
X166282274Y-105575166D01*
X166282273Y-105575166D01*
X166194397Y-105590266D01*
X166087910Y-105608564D01*
X165897463Y-105678824D01*
X165723010Y-105782612D01*
X165718670Y-105786418D01*
X165718666Y-105786421D01*
X165574733Y-105912648D01*
X165570392Y-105916455D01*
X165444720Y-106075869D01*
X165442031Y-106080980D01*
X165442029Y-106080983D01*
X165429073Y-106105609D01*
X165350203Y-106255515D01*
X165290007Y-106449378D01*
X165266148Y-106650964D01*
X164941564Y-106650964D01*
X164925658Y-106477859D01*
X164924090Y-106472299D01*
X164872125Y-106288046D01*
X164872124Y-106288044D01*
X164870557Y-106282487D01*
X164859978Y-106261033D01*
X164783331Y-106105609D01*
X164780776Y-106100428D01*
X164659320Y-105937779D01*
X164510258Y-105799987D01*
X164505375Y-105796906D01*
X164505371Y-105796903D01*
X164343464Y-105694748D01*
X164338581Y-105691667D01*
X164150039Y-105616446D01*
X164144379Y-105615320D01*
X164144375Y-105615319D01*
X163956613Y-105577971D01*
X163956610Y-105577971D01*
X163950946Y-105576844D01*
X163945171Y-105576768D01*
X163945167Y-105576768D01*
X163843793Y-105575441D01*
X163747971Y-105574187D01*
X163742274Y-105575166D01*
X163742273Y-105575166D01*
X163654397Y-105590266D01*
X163547910Y-105608564D01*
X163357463Y-105678824D01*
X163183010Y-105782612D01*
X163178670Y-105786418D01*
X163178666Y-105786421D01*
X163034733Y-105912648D01*
X163030392Y-105916455D01*
X162904720Y-106075869D01*
X162902031Y-106080980D01*
X162902029Y-106080983D01*
X162889073Y-106105609D01*
X162810203Y-106255515D01*
X162750007Y-106449378D01*
X162726148Y-106650964D01*
X162401564Y-106650964D01*
X162385658Y-106477859D01*
X162384090Y-106472299D01*
X162332125Y-106288046D01*
X162332124Y-106288044D01*
X162330557Y-106282487D01*
X162319978Y-106261033D01*
X162243331Y-106105609D01*
X162240776Y-106100428D01*
X162119320Y-105937779D01*
X161970258Y-105799987D01*
X161965375Y-105796906D01*
X161965371Y-105796903D01*
X161803464Y-105694748D01*
X161798581Y-105691667D01*
X161610039Y-105616446D01*
X161604379Y-105615320D01*
X161604375Y-105615319D01*
X161416613Y-105577971D01*
X161416610Y-105577971D01*
X161410946Y-105576844D01*
X161405171Y-105576768D01*
X161405167Y-105576768D01*
X161303793Y-105575441D01*
X161207971Y-105574187D01*
X161202274Y-105575166D01*
X161202273Y-105575166D01*
X161114397Y-105590266D01*
X161007910Y-105608564D01*
X160817463Y-105678824D01*
X160643010Y-105782612D01*
X160638670Y-105786418D01*
X160638666Y-105786421D01*
X160494733Y-105912648D01*
X160490392Y-105916455D01*
X160364720Y-106075869D01*
X160362031Y-106080980D01*
X160362029Y-106080983D01*
X160349073Y-106105609D01*
X160270203Y-106255515D01*
X160210007Y-106449378D01*
X160186148Y-106650964D01*
X159861564Y-106650964D01*
X159845658Y-106477859D01*
X159844090Y-106472299D01*
X159792125Y-106288046D01*
X159792124Y-106288044D01*
X159790557Y-106282487D01*
X159779978Y-106261033D01*
X159703331Y-106105609D01*
X159700776Y-106100428D01*
X159579320Y-105937779D01*
X159430258Y-105799987D01*
X159425375Y-105796906D01*
X159425371Y-105796903D01*
X159263464Y-105694748D01*
X159258581Y-105691667D01*
X159070039Y-105616446D01*
X159064379Y-105615320D01*
X159064375Y-105615319D01*
X158876613Y-105577971D01*
X158876610Y-105577971D01*
X158870946Y-105576844D01*
X158865171Y-105576768D01*
X158865167Y-105576768D01*
X158763793Y-105575441D01*
X158667971Y-105574187D01*
X158662274Y-105575166D01*
X158662273Y-105575166D01*
X158574397Y-105590266D01*
X158467910Y-105608564D01*
X158277463Y-105678824D01*
X158103010Y-105782612D01*
X158098670Y-105786418D01*
X158098666Y-105786421D01*
X157954733Y-105912648D01*
X157950392Y-105916455D01*
X157824720Y-106075869D01*
X157822031Y-106080980D01*
X157822029Y-106080983D01*
X157809073Y-106105609D01*
X157730203Y-106255515D01*
X157670007Y-106449378D01*
X157646148Y-106650964D01*
X157321564Y-106650964D01*
X157305658Y-106477859D01*
X157304090Y-106472299D01*
X157252125Y-106288046D01*
X157252124Y-106288044D01*
X157250557Y-106282487D01*
X157239978Y-106261033D01*
X157163331Y-106105609D01*
X157160776Y-106100428D01*
X157039320Y-105937779D01*
X156890258Y-105799987D01*
X156885375Y-105796906D01*
X156885371Y-105796903D01*
X156723464Y-105694748D01*
X156718581Y-105691667D01*
X156530039Y-105616446D01*
X156524379Y-105615320D01*
X156524375Y-105615319D01*
X156336613Y-105577971D01*
X156336610Y-105577971D01*
X156330946Y-105576844D01*
X156325171Y-105576768D01*
X156325167Y-105576768D01*
X156223793Y-105575441D01*
X156127971Y-105574187D01*
X156122274Y-105575166D01*
X156122273Y-105575166D01*
X156034397Y-105590266D01*
X155927910Y-105608564D01*
X155737463Y-105678824D01*
X155563010Y-105782612D01*
X155558670Y-105786418D01*
X155558666Y-105786421D01*
X155414733Y-105912648D01*
X155410392Y-105916455D01*
X155284720Y-106075869D01*
X155282031Y-106080980D01*
X155282029Y-106080983D01*
X155269073Y-106105609D01*
X155190203Y-106255515D01*
X155130007Y-106449378D01*
X155106148Y-106650964D01*
X154781564Y-106650964D01*
X154765658Y-106477859D01*
X154764090Y-106472299D01*
X154712125Y-106288046D01*
X154712124Y-106288044D01*
X154710557Y-106282487D01*
X154699978Y-106261033D01*
X154623331Y-106105609D01*
X154620776Y-106100428D01*
X154499320Y-105937779D01*
X154350258Y-105799987D01*
X154345375Y-105796906D01*
X154345371Y-105796903D01*
X154183464Y-105694748D01*
X154178581Y-105691667D01*
X153990039Y-105616446D01*
X153984379Y-105615320D01*
X153984375Y-105615319D01*
X153796613Y-105577971D01*
X153796610Y-105577971D01*
X153790946Y-105576844D01*
X153785171Y-105576768D01*
X153785167Y-105576768D01*
X153683793Y-105575441D01*
X153587971Y-105574187D01*
X153582274Y-105575166D01*
X153582273Y-105575166D01*
X153494397Y-105590266D01*
X153387910Y-105608564D01*
X153197463Y-105678824D01*
X153023010Y-105782612D01*
X153018670Y-105786418D01*
X153018666Y-105786421D01*
X152874733Y-105912648D01*
X152870392Y-105916455D01*
X152744720Y-106075869D01*
X152742031Y-106080980D01*
X152742029Y-106080983D01*
X152729073Y-106105609D01*
X152650203Y-106255515D01*
X152590007Y-106449378D01*
X152566148Y-106650964D01*
X152241564Y-106650964D01*
X152225658Y-106477859D01*
X152224090Y-106472299D01*
X152172125Y-106288046D01*
X152172124Y-106288044D01*
X152170557Y-106282487D01*
X152159978Y-106261033D01*
X152083331Y-106105609D01*
X152080776Y-106100428D01*
X151959320Y-105937779D01*
X151810258Y-105799987D01*
X151805375Y-105796906D01*
X151805371Y-105796903D01*
X151643464Y-105694748D01*
X151638581Y-105691667D01*
X151450039Y-105616446D01*
X151444379Y-105615320D01*
X151444375Y-105615319D01*
X151256613Y-105577971D01*
X151256610Y-105577971D01*
X151250946Y-105576844D01*
X151245171Y-105576768D01*
X151245167Y-105576768D01*
X151143793Y-105575441D01*
X151047971Y-105574187D01*
X151042274Y-105575166D01*
X151042273Y-105575166D01*
X150954397Y-105590266D01*
X150847910Y-105608564D01*
X150657463Y-105678824D01*
X150483010Y-105782612D01*
X150478670Y-105786418D01*
X150478666Y-105786421D01*
X150334733Y-105912648D01*
X150330392Y-105916455D01*
X150204720Y-106075869D01*
X150202031Y-106080980D01*
X150202029Y-106080983D01*
X150189073Y-106105609D01*
X150110203Y-106255515D01*
X150050007Y-106449378D01*
X150026148Y-106650964D01*
X149701564Y-106650964D01*
X149685658Y-106477859D01*
X149684090Y-106472299D01*
X149632125Y-106288046D01*
X149632124Y-106288044D01*
X149630557Y-106282487D01*
X149619978Y-106261033D01*
X149543331Y-106105609D01*
X149540776Y-106100428D01*
X149419320Y-105937779D01*
X149270258Y-105799987D01*
X149265375Y-105796906D01*
X149265371Y-105796903D01*
X149103464Y-105694748D01*
X149098581Y-105691667D01*
X148910039Y-105616446D01*
X148904379Y-105615320D01*
X148904375Y-105615319D01*
X148716613Y-105577971D01*
X148716610Y-105577971D01*
X148710946Y-105576844D01*
X148705171Y-105576768D01*
X148705167Y-105576768D01*
X148603793Y-105575441D01*
X148507971Y-105574187D01*
X148502274Y-105575166D01*
X148502273Y-105575166D01*
X148414397Y-105590266D01*
X148307910Y-105608564D01*
X148117463Y-105678824D01*
X147943010Y-105782612D01*
X147938670Y-105786418D01*
X147938666Y-105786421D01*
X147794733Y-105912648D01*
X147790392Y-105916455D01*
X147664720Y-106075869D01*
X147662031Y-106080980D01*
X147662029Y-106080983D01*
X147649073Y-106105609D01*
X147570203Y-106255515D01*
X147510007Y-106449378D01*
X147486148Y-106650964D01*
X147161564Y-106650964D01*
X147145658Y-106477859D01*
X147144090Y-106472299D01*
X147092125Y-106288046D01*
X147092124Y-106288044D01*
X147090557Y-106282487D01*
X147079978Y-106261033D01*
X147003331Y-106105609D01*
X147000776Y-106100428D01*
X146879320Y-105937779D01*
X146730258Y-105799987D01*
X146725375Y-105796906D01*
X146725371Y-105796903D01*
X146563464Y-105694748D01*
X146558581Y-105691667D01*
X146370039Y-105616446D01*
X146364379Y-105615320D01*
X146364375Y-105615319D01*
X146176613Y-105577971D01*
X146176610Y-105577971D01*
X146170946Y-105576844D01*
X146165171Y-105576768D01*
X146165167Y-105576768D01*
X146063793Y-105575441D01*
X145967971Y-105574187D01*
X145962274Y-105575166D01*
X145962273Y-105575166D01*
X145874397Y-105590266D01*
X145767910Y-105608564D01*
X145577463Y-105678824D01*
X145403010Y-105782612D01*
X145398670Y-105786418D01*
X145398666Y-105786421D01*
X145254733Y-105912648D01*
X145250392Y-105916455D01*
X145124720Y-106075869D01*
X145122031Y-106080980D01*
X145122029Y-106080983D01*
X145109073Y-106105609D01*
X145030203Y-106255515D01*
X144970007Y-106449378D01*
X144946148Y-106650964D01*
X144621564Y-106650964D01*
X144605658Y-106477859D01*
X144604090Y-106472299D01*
X144552125Y-106288046D01*
X144552124Y-106288044D01*
X144550557Y-106282487D01*
X144539978Y-106261033D01*
X144463331Y-106105609D01*
X144460776Y-106100428D01*
X144339320Y-105937779D01*
X144190258Y-105799987D01*
X144185375Y-105796906D01*
X144185371Y-105796903D01*
X144023464Y-105694748D01*
X144018581Y-105691667D01*
X143830039Y-105616446D01*
X143824379Y-105615320D01*
X143824375Y-105615319D01*
X143636613Y-105577971D01*
X143636610Y-105577971D01*
X143630946Y-105576844D01*
X143625171Y-105576768D01*
X143625167Y-105576768D01*
X143523793Y-105575441D01*
X143427971Y-105574187D01*
X143422274Y-105575166D01*
X143422273Y-105575166D01*
X143334397Y-105590266D01*
X143227910Y-105608564D01*
X143037463Y-105678824D01*
X142863010Y-105782612D01*
X142858670Y-105786418D01*
X142858666Y-105786421D01*
X142714733Y-105912648D01*
X142710392Y-105916455D01*
X142584720Y-106075869D01*
X142582031Y-106080980D01*
X142582029Y-106080983D01*
X142569073Y-106105609D01*
X142490203Y-106255515D01*
X142430007Y-106449378D01*
X142406148Y-106650964D01*
X142081564Y-106650964D01*
X142065658Y-106477859D01*
X142064090Y-106472299D01*
X142012125Y-106288046D01*
X142012124Y-106288044D01*
X142010557Y-106282487D01*
X141999978Y-106261033D01*
X141923331Y-106105609D01*
X141920776Y-106100428D01*
X141799320Y-105937779D01*
X141650258Y-105799987D01*
X141645375Y-105796906D01*
X141645371Y-105796903D01*
X141483464Y-105694748D01*
X141478581Y-105691667D01*
X141290039Y-105616446D01*
X141284379Y-105615320D01*
X141284375Y-105615319D01*
X141096613Y-105577971D01*
X141096610Y-105577971D01*
X141090946Y-105576844D01*
X141085171Y-105576768D01*
X141085167Y-105576768D01*
X140983793Y-105575441D01*
X140887971Y-105574187D01*
X140882274Y-105575166D01*
X140882273Y-105575166D01*
X140794397Y-105590266D01*
X140687910Y-105608564D01*
X140497463Y-105678824D01*
X140323010Y-105782612D01*
X140318670Y-105786418D01*
X140318666Y-105786421D01*
X140174733Y-105912648D01*
X140170392Y-105916455D01*
X140044720Y-106075869D01*
X140042031Y-106080980D01*
X140042029Y-106080983D01*
X140029073Y-106105609D01*
X139950203Y-106255515D01*
X139890007Y-106449378D01*
X139866148Y-106650964D01*
X139541564Y-106650964D01*
X139525658Y-106477859D01*
X139524090Y-106472299D01*
X139472125Y-106288046D01*
X139472124Y-106288044D01*
X139470557Y-106282487D01*
X139459978Y-106261033D01*
X139383331Y-106105609D01*
X139380776Y-106100428D01*
X139259320Y-105937779D01*
X139110258Y-105799987D01*
X139105375Y-105796906D01*
X139105371Y-105796903D01*
X138943464Y-105694748D01*
X138938581Y-105691667D01*
X138750039Y-105616446D01*
X138744379Y-105615320D01*
X138744375Y-105615319D01*
X138556613Y-105577971D01*
X138556610Y-105577971D01*
X138550946Y-105576844D01*
X138545171Y-105576768D01*
X138545167Y-105576768D01*
X138443793Y-105575441D01*
X138347971Y-105574187D01*
X138342274Y-105575166D01*
X138342273Y-105575166D01*
X138254397Y-105590266D01*
X138147910Y-105608564D01*
X137957463Y-105678824D01*
X137783010Y-105782612D01*
X137778670Y-105786418D01*
X137778666Y-105786421D01*
X137634733Y-105912648D01*
X137630392Y-105916455D01*
X137504720Y-106075869D01*
X137502031Y-106080980D01*
X137502029Y-106080983D01*
X137489073Y-106105609D01*
X137410203Y-106255515D01*
X137350007Y-106449378D01*
X137326148Y-106650964D01*
X137001564Y-106650964D01*
X136985658Y-106477859D01*
X136984090Y-106472299D01*
X136932125Y-106288046D01*
X136932124Y-106288044D01*
X136930557Y-106282487D01*
X136919978Y-106261033D01*
X136843331Y-106105609D01*
X136840776Y-106100428D01*
X136719320Y-105937779D01*
X136570258Y-105799987D01*
X136565375Y-105796906D01*
X136565371Y-105796903D01*
X136403464Y-105694748D01*
X136398581Y-105691667D01*
X136210039Y-105616446D01*
X136204379Y-105615320D01*
X136204375Y-105615319D01*
X136016613Y-105577971D01*
X136016610Y-105577971D01*
X136010946Y-105576844D01*
X136005171Y-105576768D01*
X136005167Y-105576768D01*
X135903793Y-105575441D01*
X135807971Y-105574187D01*
X135802274Y-105575166D01*
X135802273Y-105575166D01*
X135714397Y-105590266D01*
X135607910Y-105608564D01*
X135417463Y-105678824D01*
X135243010Y-105782612D01*
X135238670Y-105786418D01*
X135238666Y-105786421D01*
X135094733Y-105912648D01*
X135090392Y-105916455D01*
X134964720Y-106075869D01*
X134962031Y-106080980D01*
X134962029Y-106080983D01*
X134949073Y-106105609D01*
X134870203Y-106255515D01*
X134810007Y-106449378D01*
X134786148Y-106650964D01*
X134461564Y-106650964D01*
X134445658Y-106477859D01*
X134444090Y-106472299D01*
X134392125Y-106288046D01*
X134392124Y-106288044D01*
X134390557Y-106282487D01*
X134379978Y-106261033D01*
X134303331Y-106105609D01*
X134300776Y-106100428D01*
X134179320Y-105937779D01*
X134030258Y-105799987D01*
X134025375Y-105796906D01*
X134025371Y-105796903D01*
X133863464Y-105694748D01*
X133858581Y-105691667D01*
X133670039Y-105616446D01*
X133664379Y-105615320D01*
X133664375Y-105615319D01*
X133476613Y-105577971D01*
X133476610Y-105577971D01*
X133470946Y-105576844D01*
X133465171Y-105576768D01*
X133465167Y-105576768D01*
X133363793Y-105575441D01*
X133267971Y-105574187D01*
X133262274Y-105575166D01*
X133262273Y-105575166D01*
X133174397Y-105590266D01*
X133067910Y-105608564D01*
X132877463Y-105678824D01*
X132703010Y-105782612D01*
X132698670Y-105786418D01*
X132698666Y-105786421D01*
X132554733Y-105912648D01*
X132550392Y-105916455D01*
X132424720Y-106075869D01*
X132422031Y-106080980D01*
X132422029Y-106080983D01*
X132409073Y-106105609D01*
X132330203Y-106255515D01*
X132270007Y-106449378D01*
X132246148Y-106650964D01*
X131921564Y-106650964D01*
X131905658Y-106477859D01*
X131904090Y-106472299D01*
X131852125Y-106288046D01*
X131852124Y-106288044D01*
X131850557Y-106282487D01*
X131839978Y-106261033D01*
X131763331Y-106105609D01*
X131760776Y-106100428D01*
X131639320Y-105937779D01*
X131490258Y-105799987D01*
X131485375Y-105796906D01*
X131485371Y-105796903D01*
X131323464Y-105694748D01*
X131318581Y-105691667D01*
X131130039Y-105616446D01*
X131124379Y-105615320D01*
X131124375Y-105615319D01*
X130936613Y-105577971D01*
X130936610Y-105577971D01*
X130930946Y-105576844D01*
X130925171Y-105576768D01*
X130925167Y-105576768D01*
X130823793Y-105575441D01*
X130727971Y-105574187D01*
X130722274Y-105575166D01*
X130722273Y-105575166D01*
X130634397Y-105590266D01*
X130527910Y-105608564D01*
X130337463Y-105678824D01*
X130163010Y-105782612D01*
X130158670Y-105786418D01*
X130158666Y-105786421D01*
X130014733Y-105912648D01*
X130010392Y-105916455D01*
X129884720Y-106075869D01*
X129882031Y-106080980D01*
X129882029Y-106080983D01*
X129869073Y-106105609D01*
X129790203Y-106255515D01*
X129730007Y-106449378D01*
X129706148Y-106650964D01*
X129381564Y-106650964D01*
X129365658Y-106477859D01*
X129364090Y-106472299D01*
X129312125Y-106288046D01*
X129312124Y-106288044D01*
X129310557Y-106282487D01*
X129299978Y-106261033D01*
X129223331Y-106105609D01*
X129220776Y-106100428D01*
X129099320Y-105937779D01*
X128950258Y-105799987D01*
X128945375Y-105796906D01*
X128945371Y-105796903D01*
X128783464Y-105694748D01*
X128778581Y-105691667D01*
X128590039Y-105616446D01*
X128584379Y-105615320D01*
X128584375Y-105615319D01*
X128396613Y-105577971D01*
X128396610Y-105577971D01*
X128390946Y-105576844D01*
X128385171Y-105576768D01*
X128385167Y-105576768D01*
X128283793Y-105575441D01*
X128187971Y-105574187D01*
X128182274Y-105575166D01*
X128182273Y-105575166D01*
X128094397Y-105590266D01*
X127987910Y-105608564D01*
X127797463Y-105678824D01*
X127623010Y-105782612D01*
X127618670Y-105786418D01*
X127618666Y-105786421D01*
X127474733Y-105912648D01*
X127470392Y-105916455D01*
X127344720Y-106075869D01*
X127342031Y-106080980D01*
X127342029Y-106080983D01*
X127329073Y-106105609D01*
X127250203Y-106255515D01*
X127190007Y-106449378D01*
X127166148Y-106650964D01*
X126841564Y-106650964D01*
X126825658Y-106477859D01*
X126824090Y-106472299D01*
X126772125Y-106288046D01*
X126772124Y-106288044D01*
X126770557Y-106282487D01*
X126759978Y-106261033D01*
X126683331Y-106105609D01*
X126680776Y-106100428D01*
X126559320Y-105937779D01*
X126410258Y-105799987D01*
X126405375Y-105796906D01*
X126405371Y-105796903D01*
X126243464Y-105694748D01*
X126238581Y-105691667D01*
X126193810Y-105673805D01*
X126137951Y-105629985D01*
X126114500Y-105556775D01*
X126114500Y-96490964D01*
X158911148Y-96490964D01*
X158924424Y-96693522D01*
X158925845Y-96699118D01*
X158925846Y-96699123D01*
X158946119Y-96778945D01*
X158974392Y-96890269D01*
X158976809Y-96895512D01*
X159014010Y-96976208D01*
X159059377Y-97074616D01*
X159176533Y-97240389D01*
X159321938Y-97382035D01*
X159490720Y-97494812D01*
X159496023Y-97497090D01*
X159496026Y-97497092D01*
X159627283Y-97553484D01*
X159677228Y-97574942D01*
X159750244Y-97591464D01*
X159869579Y-97618467D01*
X159869584Y-97618468D01*
X159875216Y-97619742D01*
X159880987Y-97619969D01*
X159880989Y-97619969D01*
X159940756Y-97622317D01*
X160078053Y-97627712D01*
X160185348Y-97612155D01*
X160273231Y-97599413D01*
X160273236Y-97599412D01*
X160278945Y-97598584D01*
X160284409Y-97596729D01*
X160284414Y-97596728D01*
X160465693Y-97535192D01*
X160465698Y-97535190D01*
X160471165Y-97533334D01*
X160648276Y-97434147D01*
X160687969Y-97401135D01*
X160799913Y-97308031D01*
X160804345Y-97304345D01*
X160934147Y-97148276D01*
X161033334Y-96971165D01*
X161035190Y-96965698D01*
X161035192Y-96965693D01*
X161096728Y-96784414D01*
X161096729Y-96784409D01*
X161098584Y-96778945D01*
X161099412Y-96773236D01*
X161099413Y-96773231D01*
X161127179Y-96581727D01*
X161127712Y-96578053D01*
X161129232Y-96520000D01*
X161110658Y-96317859D01*
X161109090Y-96312299D01*
X161057125Y-96128046D01*
X161057124Y-96128044D01*
X161055557Y-96122487D01*
X161044978Y-96101033D01*
X160968331Y-95945609D01*
X160965776Y-95940428D01*
X160844320Y-95777779D01*
X160695258Y-95639987D01*
X160690375Y-95636906D01*
X160690371Y-95636903D01*
X160528464Y-95534748D01*
X160523581Y-95531667D01*
X160335039Y-95456446D01*
X160329379Y-95455320D01*
X160329375Y-95455319D01*
X160141613Y-95417971D01*
X160141610Y-95417971D01*
X160135946Y-95416844D01*
X160130171Y-95416768D01*
X160130167Y-95416768D01*
X160028793Y-95415441D01*
X159932971Y-95414187D01*
X159927274Y-95415166D01*
X159927273Y-95415166D01*
X159839397Y-95430266D01*
X159732910Y-95448564D01*
X159542463Y-95518824D01*
X159368010Y-95622612D01*
X159363670Y-95626418D01*
X159363666Y-95626421D01*
X159219733Y-95752648D01*
X159215392Y-95756455D01*
X159089720Y-95915869D01*
X159087031Y-95920980D01*
X159087029Y-95920983D01*
X159074073Y-95945609D01*
X158995203Y-96095515D01*
X158935007Y-96289378D01*
X158911148Y-96490964D01*
X126114500Y-96490964D01*
X126114500Y-80957920D01*
X126117049Y-80933973D01*
X126117128Y-80932307D01*
X126119320Y-80922124D01*
X126118096Y-80911782D01*
X126118096Y-80911779D01*
X126115374Y-80888787D01*
X126115023Y-80882846D01*
X126114928Y-80882854D01*
X126114500Y-80877674D01*
X126114500Y-80872476D01*
X126111329Y-80853424D01*
X126110492Y-80847547D01*
X126105693Y-80806997D01*
X126105692Y-80806995D01*
X126104469Y-80796659D01*
X126100508Y-80788410D01*
X126099004Y-80779374D01*
X126094056Y-80770203D01*
X126074652Y-80734240D01*
X126071957Y-80728951D01*
X126053212Y-80689915D01*
X126049780Y-80682768D01*
X126046186Y-80678492D01*
X126044246Y-80676552D01*
X126042493Y-80674641D01*
X126042444Y-80674551D01*
X126042567Y-80674439D01*
X126042095Y-80673904D01*
X126039010Y-80668186D01*
X125999413Y-80631583D01*
X125995848Y-80628154D01*
X125052954Y-79685260D01*
X125018928Y-79622948D01*
X125017127Y-79612611D01*
X125015591Y-79600938D01*
X125002841Y-79504093D01*
X125013781Y-79433944D01*
X125060909Y-79380846D01*
X125129263Y-79361656D01*
X125197141Y-79382468D01*
X125216858Y-79398552D01*
X134090546Y-88272240D01*
X134124572Y-88334552D01*
X134126371Y-88344880D01*
X134143272Y-88473254D01*
X134199145Y-88608142D01*
X134288026Y-88723974D01*
X134294576Y-88729000D01*
X134294579Y-88729003D01*
X134397304Y-88807827D01*
X134403857Y-88812855D01*
X134538746Y-88868728D01*
X134683500Y-88887785D01*
X134691688Y-88886707D01*
X134820066Y-88869806D01*
X134828254Y-88868728D01*
X134963143Y-88812855D01*
X134969696Y-88807827D01*
X135072421Y-88729003D01*
X135072424Y-88729000D01*
X135078974Y-88723974D01*
X135167855Y-88608142D01*
X135223728Y-88473254D01*
X135242785Y-88328500D01*
X135223728Y-88183746D01*
X135167855Y-88048858D01*
X135078974Y-87933026D01*
X135072424Y-87928000D01*
X135072421Y-87927997D01*
X134969696Y-87849173D01*
X134969694Y-87849172D01*
X134963143Y-87844145D01*
X134828254Y-87788272D01*
X134699888Y-87771372D01*
X134634962Y-87742651D01*
X134627240Y-87735546D01*
X125433954Y-78542260D01*
X125399928Y-78479948D01*
X125398127Y-78469611D01*
X125383566Y-78359000D01*
X128345715Y-78359000D01*
X128346793Y-78367188D01*
X128363513Y-78494188D01*
X128364772Y-78503754D01*
X128367931Y-78511380D01*
X128417378Y-78630754D01*
X128420645Y-78638642D01*
X128509526Y-78754474D01*
X128516076Y-78759500D01*
X128516079Y-78759503D01*
X128618804Y-78838327D01*
X128625357Y-78843355D01*
X128760246Y-78899228D01*
X128888612Y-78916128D01*
X128953538Y-78944849D01*
X128961260Y-78951954D01*
X131773522Y-81764216D01*
X131788664Y-81782964D01*
X131789779Y-81784189D01*
X131795429Y-81792940D01*
X131803607Y-81799387D01*
X131803609Y-81799389D01*
X131866264Y-81848781D01*
X131894647Y-81871156D01*
X131904477Y-81874608D01*
X132006200Y-81910331D01*
X132013851Y-81913018D01*
X132019416Y-81913500D01*
X146250080Y-81913500D01*
X146274028Y-81916049D01*
X146275693Y-81916128D01*
X146285876Y-81918320D01*
X146296217Y-81917096D01*
X146319223Y-81914373D01*
X146325154Y-81914023D01*
X146325146Y-81913928D01*
X146330324Y-81913500D01*
X146335524Y-81913500D01*
X146340653Y-81912646D01*
X146340656Y-81912646D01*
X146354565Y-81910331D01*
X146360443Y-81909494D01*
X146401001Y-81904694D01*
X146401002Y-81904694D01*
X146411341Y-81903470D01*
X146419593Y-81899507D01*
X146428626Y-81898004D01*
X146437795Y-81893057D01*
X146437797Y-81893056D01*
X146473732Y-81873666D01*
X146479025Y-81870969D01*
X146518082Y-81852215D01*
X146518086Y-81852212D01*
X146525232Y-81848781D01*
X146529508Y-81845186D01*
X146531431Y-81843263D01*
X146533363Y-81841491D01*
X146533442Y-81841448D01*
X146533555Y-81841572D01*
X146534095Y-81841096D01*
X146539814Y-81838010D01*
X146576417Y-81798413D01*
X146579846Y-81794848D01*
X149041740Y-79332954D01*
X149104052Y-79298928D01*
X149114380Y-79297129D01*
X149242754Y-79280228D01*
X149377643Y-79224355D01*
X149384196Y-79219327D01*
X149486921Y-79140503D01*
X149486924Y-79140500D01*
X149493474Y-79135474D01*
X149514253Y-79108395D01*
X149545556Y-79067599D01*
X149558973Y-79050115D01*
X149616310Y-79008248D01*
X149687181Y-79004026D01*
X149748030Y-79037724D01*
X150246796Y-79536490D01*
X150280822Y-79598802D01*
X150282621Y-79609130D01*
X150289488Y-79661285D01*
X150292830Y-79686669D01*
X150299522Y-79737504D01*
X150355395Y-79872392D01*
X150383211Y-79908642D01*
X150434213Y-79975110D01*
X150459813Y-80041331D01*
X150460250Y-80051814D01*
X150460250Y-80935830D01*
X150457701Y-80959778D01*
X150457622Y-80961443D01*
X150455430Y-80971626D01*
X150456654Y-80981967D01*
X150459377Y-81004973D01*
X150459727Y-81010904D01*
X150459822Y-81010896D01*
X150460250Y-81016074D01*
X150460250Y-81021274D01*
X150461104Y-81026403D01*
X150461104Y-81026406D01*
X150463419Y-81040315D01*
X150464256Y-81046193D01*
X150466032Y-81061194D01*
X150470280Y-81097091D01*
X150474243Y-81105343D01*
X150475746Y-81114376D01*
X150480693Y-81123545D01*
X150480694Y-81123547D01*
X150500084Y-81159482D01*
X150502781Y-81164775D01*
X150521535Y-81203832D01*
X150521538Y-81203836D01*
X150524969Y-81210982D01*
X150528564Y-81215258D01*
X150530487Y-81217181D01*
X150532259Y-81219113D01*
X150532302Y-81219192D01*
X150532178Y-81219305D01*
X150532654Y-81219845D01*
X150535740Y-81225564D01*
X150543385Y-81232631D01*
X150575336Y-81262166D01*
X150578902Y-81265596D01*
X162143595Y-92830289D01*
X162177621Y-92892601D01*
X162180500Y-92919384D01*
X162180500Y-95289501D01*
X162160498Y-95357622D01*
X162106842Y-95404115D01*
X162054500Y-95415501D01*
X161684934Y-95415501D01*
X161649182Y-95422612D01*
X161622874Y-95427844D01*
X161622872Y-95427845D01*
X161610699Y-95430266D01*
X161600379Y-95437161D01*
X161600378Y-95437162D01*
X161539985Y-95477516D01*
X161526516Y-95486516D01*
X161470266Y-95570699D01*
X161455500Y-95644933D01*
X161455501Y-97395066D01*
X161470266Y-97469301D01*
X161477161Y-97479620D01*
X161477162Y-97479622D01*
X161517516Y-97540015D01*
X161526516Y-97553484D01*
X161610699Y-97609734D01*
X161684933Y-97624500D01*
X162559858Y-97624500D01*
X163435066Y-97624499D01*
X163470818Y-97617388D01*
X163497126Y-97612156D01*
X163497128Y-97612155D01*
X163509301Y-97609734D01*
X163519621Y-97602839D01*
X163519622Y-97602838D01*
X163583168Y-97560377D01*
X163593484Y-97553484D01*
X163649734Y-97469301D01*
X163664500Y-97395067D01*
X163664499Y-95644934D01*
X163649734Y-95570699D01*
X163623654Y-95531667D01*
X163600377Y-95496832D01*
X163593484Y-95486516D01*
X163509301Y-95430266D01*
X163435067Y-95415500D01*
X163065500Y-95415500D01*
X162997379Y-95395498D01*
X162950886Y-95341842D01*
X162939500Y-95289500D01*
X162939500Y-92763925D01*
X162942050Y-92739967D01*
X162942128Y-92738308D01*
X162944321Y-92728124D01*
X162943097Y-92717782D01*
X162943097Y-92717779D01*
X162940374Y-92694779D01*
X162940024Y-92688848D01*
X162939928Y-92688856D01*
X162939500Y-92683680D01*
X162939500Y-92678476D01*
X162936327Y-92659412D01*
X162935496Y-92653566D01*
X162930694Y-92613001D01*
X162929470Y-92602659D01*
X162925507Y-92594407D01*
X162924004Y-92585374D01*
X162899656Y-92540248D01*
X162896982Y-92535002D01*
X162874781Y-92488769D01*
X162871187Y-92484493D01*
X162869247Y-92482553D01*
X162867493Y-92480641D01*
X162867445Y-92480552D01*
X162867568Y-92480440D01*
X162867095Y-92479904D01*
X162864010Y-92474186D01*
X162824413Y-92437583D01*
X162820848Y-92434154D01*
X151256155Y-80869461D01*
X151222129Y-80807149D01*
X151219250Y-80780366D01*
X151219250Y-80051814D01*
X151239252Y-79983693D01*
X151245287Y-79975110D01*
X151296289Y-79908642D01*
X151324105Y-79872392D01*
X151379978Y-79737504D01*
X151386581Y-79687353D01*
X151397957Y-79600938D01*
X151399035Y-79592750D01*
X151393436Y-79550222D01*
X151381056Y-79456182D01*
X151381055Y-79456180D01*
X151379978Y-79447996D01*
X151352163Y-79380846D01*
X151327265Y-79320736D01*
X151327264Y-79320734D01*
X151324105Y-79313108D01*
X151258427Y-79227515D01*
X151240251Y-79203827D01*
X151240250Y-79203826D01*
X151235224Y-79197276D01*
X151228674Y-79192250D01*
X151228671Y-79192247D01*
X151125946Y-79113423D01*
X151125944Y-79113422D01*
X151119393Y-79108395D01*
X150984504Y-79052522D01*
X150856138Y-79035622D01*
X150791212Y-79006901D01*
X150783490Y-78999796D01*
X149658478Y-77874784D01*
X149643336Y-77856036D01*
X149642221Y-77854811D01*
X149636571Y-77846060D01*
X149628393Y-77839613D01*
X149628391Y-77839611D01*
X149610200Y-77825271D01*
X149605759Y-77821325D01*
X149605697Y-77821398D01*
X149601733Y-77818039D01*
X149598056Y-77814362D01*
X149582308Y-77803108D01*
X149577638Y-77799602D01*
X149537353Y-77767844D01*
X149528719Y-77764812D01*
X149521266Y-77759486D01*
X149472150Y-77744797D01*
X149466508Y-77742964D01*
X149425633Y-77728610D01*
X149425632Y-77728610D01*
X149418149Y-77725982D01*
X149412584Y-77725500D01*
X149409876Y-77725500D01*
X149407242Y-77725386D01*
X149407144Y-77725357D01*
X149407151Y-77725193D01*
X149406447Y-77725149D01*
X149400222Y-77723287D01*
X149346365Y-77725403D01*
X149341418Y-77725500D01*
X147571500Y-77725500D01*
X147503379Y-77705498D01*
X147456886Y-77651842D01*
X147445500Y-77599500D01*
X147445500Y-75389064D01*
X147465502Y-75320943D01*
X147471537Y-75312360D01*
X147545328Y-75216193D01*
X147550355Y-75209642D01*
X147606228Y-75074754D01*
X147625285Y-74930000D01*
X147615094Y-74852592D01*
X147607306Y-74793432D01*
X147607305Y-74793430D01*
X147606228Y-74785246D01*
X147550355Y-74650358D01*
X147461474Y-74534526D01*
X147454924Y-74529500D01*
X147454921Y-74529497D01*
X147352196Y-74450673D01*
X147352194Y-74450672D01*
X147345643Y-74445645D01*
X147210754Y-74389772D01*
X147082388Y-74372872D01*
X147017462Y-74344151D01*
X147009740Y-74337046D01*
X145450405Y-72777711D01*
X145416379Y-72715399D01*
X145413500Y-72688616D01*
X145413500Y-70030925D01*
X145416050Y-70006967D01*
X145416128Y-70005308D01*
X145418321Y-69995124D01*
X145417097Y-69984782D01*
X145417097Y-69984779D01*
X145414374Y-69961779D01*
X145414024Y-69955848D01*
X145413928Y-69955856D01*
X145413500Y-69950680D01*
X145413500Y-69945476D01*
X145410327Y-69926412D01*
X145409496Y-69920566D01*
X145404694Y-69880001D01*
X145403470Y-69869659D01*
X145399507Y-69861407D01*
X145398004Y-69852374D01*
X145373665Y-69807266D01*
X145370969Y-69801975D01*
X145352215Y-69762919D01*
X145352214Y-69762918D01*
X145348781Y-69755768D01*
X145345187Y-69751493D01*
X145343262Y-69749568D01*
X145341491Y-69747638D01*
X145341445Y-69747553D01*
X145341568Y-69747441D01*
X145341096Y-69746906D01*
X145338010Y-69741186D01*
X145298413Y-69704583D01*
X145294848Y-69701154D01*
X144705478Y-69111784D01*
X144690336Y-69093036D01*
X144689221Y-69091811D01*
X144683571Y-69083060D01*
X144675393Y-69076613D01*
X144675391Y-69076611D01*
X144657200Y-69062271D01*
X144652759Y-69058325D01*
X144652697Y-69058398D01*
X144648733Y-69055039D01*
X144645056Y-69051362D01*
X144629308Y-69040108D01*
X144624638Y-69036602D01*
X144584353Y-69004844D01*
X144575719Y-69001812D01*
X144568266Y-68996486D01*
X144519150Y-68981797D01*
X144513508Y-68979964D01*
X144472633Y-68965610D01*
X144472632Y-68965610D01*
X144465149Y-68962982D01*
X144459584Y-68962500D01*
X144456876Y-68962500D01*
X144454242Y-68962386D01*
X144454144Y-68962357D01*
X144454151Y-68962193D01*
X144453447Y-68962149D01*
X144447222Y-68960287D01*
X144393365Y-68962403D01*
X144388418Y-68962500D01*
X144325920Y-68962500D01*
X144301973Y-68959951D01*
X144300307Y-68959872D01*
X144290124Y-68957680D01*
X144279782Y-68958904D01*
X144279779Y-68958904D01*
X144256787Y-68961626D01*
X144250846Y-68961977D01*
X144250854Y-68962072D01*
X144245674Y-68962500D01*
X144240476Y-68962500D01*
X144235354Y-68963353D01*
X144235349Y-68963353D01*
X144221427Y-68965671D01*
X144215550Y-68966508D01*
X144209049Y-68967277D01*
X144174997Y-68971307D01*
X144174995Y-68971308D01*
X144164659Y-68972531D01*
X144156410Y-68976492D01*
X144147374Y-68977996D01*
X144138205Y-68982943D01*
X144138203Y-68982944D01*
X144102240Y-69002348D01*
X144096951Y-69005043D01*
X144083936Y-69011293D01*
X144050768Y-69027220D01*
X144046492Y-69030814D01*
X144044552Y-69032754D01*
X144042641Y-69034507D01*
X144042551Y-69034556D01*
X144042439Y-69034433D01*
X144041904Y-69034905D01*
X144036186Y-69037990D01*
X144029119Y-69045635D01*
X143999584Y-69077586D01*
X143996154Y-69081152D01*
X143660784Y-69416522D01*
X143642036Y-69431664D01*
X143640811Y-69432779D01*
X143632060Y-69438429D01*
X143625613Y-69446607D01*
X143625611Y-69446609D01*
X143611271Y-69464800D01*
X143607325Y-69469241D01*
X143607398Y-69469303D01*
X143604039Y-69473267D01*
X143600362Y-69476944D01*
X143589108Y-69492692D01*
X143585602Y-69497362D01*
X143553844Y-69537647D01*
X143550812Y-69546281D01*
X143545486Y-69553734D01*
X143542501Y-69563715D01*
X143530799Y-69602844D01*
X143528964Y-69608492D01*
X143511982Y-69656851D01*
X143511500Y-69662416D01*
X143511500Y-69665124D01*
X143511386Y-69667758D01*
X143511357Y-69667856D01*
X143511193Y-69667849D01*
X143511149Y-69668553D01*
X143509287Y-69674778D01*
X143509696Y-69685183D01*
X143511403Y-69728635D01*
X143511500Y-69733582D01*
X143511500Y-70402616D01*
X143491498Y-70470737D01*
X143474595Y-70491711D01*
X143378284Y-70588022D01*
X143359536Y-70603164D01*
X143358311Y-70604279D01*
X143349560Y-70609929D01*
X143343113Y-70618107D01*
X143343111Y-70618109D01*
X143328771Y-70636300D01*
X143324825Y-70640741D01*
X143324898Y-70640803D01*
X143321539Y-70644767D01*
X143317862Y-70648444D01*
X143306608Y-70664192D01*
X143303102Y-70668862D01*
X143271344Y-70709147D01*
X143268312Y-70717781D01*
X143262986Y-70725234D01*
X143260002Y-70735210D01*
X143259401Y-70736438D01*
X143211470Y-70788813D01*
X143142832Y-70806961D01*
X143075279Y-70785118D01*
X143053032Y-70764196D01*
X143052010Y-70762302D01*
X143012413Y-70725699D01*
X143008848Y-70722270D01*
X133671405Y-61384827D01*
X133637379Y-61322515D01*
X133634500Y-61295732D01*
X133634500Y-57023000D01*
X151840715Y-57023000D01*
X151859772Y-57167754D01*
X151915645Y-57302642D01*
X152004526Y-57418474D01*
X152011076Y-57423500D01*
X152011079Y-57423503D01*
X152113804Y-57502327D01*
X152120357Y-57507355D01*
X152255246Y-57563228D01*
X152383612Y-57580128D01*
X152448538Y-57608849D01*
X152456260Y-57615954D01*
X163015522Y-68175216D01*
X163030664Y-68193964D01*
X163031779Y-68195189D01*
X163037429Y-68203940D01*
X163045607Y-68210387D01*
X163045609Y-68210389D01*
X163063800Y-68224729D01*
X163068242Y-68228676D01*
X163068304Y-68228603D01*
X163072267Y-68231961D01*
X163075944Y-68235638D01*
X163080173Y-68238660D01*
X163091646Y-68246859D01*
X163096392Y-68250422D01*
X163110905Y-68261863D01*
X163136647Y-68282156D01*
X163145283Y-68285189D01*
X163152735Y-68290514D01*
X163199400Y-68304470D01*
X163201855Y-68305204D01*
X163207502Y-68307039D01*
X163248370Y-68321391D01*
X163248372Y-68321391D01*
X163255851Y-68324018D01*
X163261416Y-68324500D01*
X163264123Y-68324500D01*
X163266755Y-68324614D01*
X163266856Y-68324644D01*
X163266849Y-68324807D01*
X163267549Y-68324851D01*
X163273778Y-68326714D01*
X163324559Y-68324718D01*
X163327650Y-68324597D01*
X163332598Y-68324500D01*
X181781616Y-68324500D01*
X181849737Y-68344502D01*
X181870711Y-68361405D01*
X182033046Y-68523740D01*
X182067072Y-68586052D01*
X182068871Y-68596380D01*
X182073547Y-68631896D01*
X182084513Y-68715188D01*
X182085772Y-68724754D01*
X182090903Y-68737141D01*
X182138378Y-68851754D01*
X182141645Y-68859642D01*
X182146672Y-68866193D01*
X182220941Y-68962982D01*
X182230526Y-68975474D01*
X182237076Y-68980500D01*
X182237079Y-68980503D01*
X182339804Y-69059327D01*
X182346357Y-69064355D01*
X182481246Y-69120228D01*
X182626000Y-69139285D01*
X182634188Y-69138207D01*
X182762566Y-69121306D01*
X182770754Y-69120228D01*
X182905643Y-69064355D01*
X182912196Y-69059327D01*
X183014921Y-68980503D01*
X183014924Y-68980500D01*
X183021474Y-68975474D01*
X183031060Y-68962982D01*
X183105328Y-68866193D01*
X183110355Y-68859642D01*
X183113623Y-68851754D01*
X183161097Y-68737141D01*
X183166228Y-68724754D01*
X183167488Y-68715188D01*
X183184207Y-68588188D01*
X183185285Y-68580000D01*
X183177878Y-68523740D01*
X183167306Y-68443432D01*
X183167305Y-68443430D01*
X183166228Y-68435246D01*
X183120326Y-68324429D01*
X183113515Y-68307986D01*
X183113514Y-68307984D01*
X183110355Y-68300358D01*
X183055852Y-68229328D01*
X183026501Y-68191077D01*
X183026500Y-68191076D01*
X183021474Y-68184526D01*
X182911919Y-68100461D01*
X182870053Y-68043124D01*
X182865832Y-67972253D01*
X182900597Y-67910350D01*
X182963309Y-67877069D01*
X182988625Y-67874500D01*
X186197080Y-67874500D01*
X186221028Y-67877049D01*
X186222693Y-67877128D01*
X186232876Y-67879320D01*
X186243217Y-67878096D01*
X186266223Y-67875373D01*
X186272154Y-67875023D01*
X186272146Y-67874928D01*
X186277324Y-67874500D01*
X186282524Y-67874500D01*
X186287653Y-67873646D01*
X186287656Y-67873646D01*
X186301565Y-67871331D01*
X186307443Y-67870494D01*
X186348001Y-67865694D01*
X186348002Y-67865694D01*
X186358341Y-67864470D01*
X186366593Y-67860507D01*
X186375626Y-67859004D01*
X186384795Y-67854057D01*
X186384797Y-67854056D01*
X186420732Y-67834666D01*
X186426025Y-67831969D01*
X186465082Y-67813215D01*
X186465086Y-67813212D01*
X186472232Y-67809781D01*
X186476508Y-67806186D01*
X186478431Y-67804263D01*
X186480363Y-67802491D01*
X186480442Y-67802448D01*
X186480555Y-67802572D01*
X186481095Y-67802096D01*
X186486814Y-67799010D01*
X186523417Y-67759413D01*
X186526846Y-67755848D01*
X187014740Y-67267954D01*
X187077052Y-67233928D01*
X187087380Y-67232129D01*
X187215754Y-67215228D01*
X187350643Y-67159355D01*
X187379001Y-67137595D01*
X187459921Y-67075503D01*
X187459924Y-67075500D01*
X187466474Y-67070474D01*
X187555355Y-66954642D01*
X187559188Y-66945390D01*
X187608069Y-66827380D01*
X187611228Y-66819754D01*
X187630285Y-66675000D01*
X187611228Y-66530246D01*
X187555355Y-66395358D01*
X187466474Y-66279526D01*
X187459924Y-66274500D01*
X187459921Y-66274497D01*
X187357196Y-66195673D01*
X187357194Y-66195672D01*
X187350643Y-66190645D01*
X187215754Y-66134772D01*
X187071000Y-66115715D01*
X187062812Y-66116793D01*
X186934432Y-66133694D01*
X186934430Y-66133695D01*
X186926246Y-66134772D01*
X186878430Y-66154578D01*
X186798986Y-66187485D01*
X186798984Y-66187486D01*
X186791358Y-66190645D01*
X186675526Y-66279526D01*
X186586645Y-66395358D01*
X186530772Y-66530246D01*
X186529695Y-66538430D01*
X186529694Y-66538432D01*
X186513873Y-66658611D01*
X186485151Y-66723538D01*
X186478046Y-66731260D01*
X186130711Y-67078595D01*
X186068399Y-67112621D01*
X186041616Y-67115500D01*
X172352384Y-67115500D01*
X172284263Y-67095498D01*
X172263289Y-67078595D01*
X158072954Y-52888260D01*
X158038928Y-52825948D01*
X158037127Y-52815611D01*
X158021306Y-52695432D01*
X158021305Y-52695430D01*
X158020228Y-52687246D01*
X157964355Y-52552358D01*
X157875474Y-52436526D01*
X157868924Y-52431500D01*
X157868921Y-52431497D01*
X157766196Y-52352673D01*
X157766194Y-52352672D01*
X157759643Y-52347645D01*
X157624754Y-52291772D01*
X157480000Y-52272715D01*
X157471812Y-52273793D01*
X157343432Y-52290694D01*
X157343430Y-52290695D01*
X157335246Y-52291772D01*
X157287430Y-52311578D01*
X157207986Y-52344485D01*
X157207984Y-52344486D01*
X157200358Y-52347645D01*
X157084526Y-52436526D01*
X156995645Y-52552358D01*
X156939772Y-52687246D01*
X156920715Y-52832000D01*
X156921793Y-52840188D01*
X156929527Y-52898931D01*
X156939772Y-52976754D01*
X156942931Y-52984380D01*
X156990997Y-53100420D01*
X156995645Y-53111642D01*
X157084526Y-53227474D01*
X157091076Y-53232500D01*
X157091079Y-53232503D01*
X157193804Y-53311327D01*
X157200357Y-53316355D01*
X157335246Y-53372228D01*
X157463612Y-53389128D01*
X157528538Y-53417849D01*
X157536260Y-53424954D01*
X171461710Y-67350405D01*
X171495736Y-67412717D01*
X171490671Y-67483532D01*
X171448124Y-67540368D01*
X171381604Y-67565179D01*
X171372615Y-67565500D01*
X163531384Y-67565500D01*
X163463263Y-67545498D01*
X163442289Y-67528595D01*
X152992954Y-57079260D01*
X152958928Y-57016948D01*
X152957127Y-57006611D01*
X152954058Y-56983293D01*
X152942459Y-56895192D01*
X152941306Y-56886432D01*
X152941305Y-56886430D01*
X152940228Y-56878246D01*
X152905393Y-56794147D01*
X152887515Y-56750986D01*
X152887514Y-56750984D01*
X152884355Y-56743358D01*
X152823726Y-56664345D01*
X152800501Y-56634077D01*
X152800500Y-56634076D01*
X152795474Y-56627526D01*
X152788924Y-56622500D01*
X152788921Y-56622497D01*
X152686196Y-56543673D01*
X152686194Y-56543672D01*
X152679643Y-56538645D01*
X152544754Y-56482772D01*
X152400000Y-56463715D01*
X152391812Y-56464793D01*
X152263432Y-56481694D01*
X152263430Y-56481695D01*
X152255246Y-56482772D01*
X152221196Y-56496876D01*
X152127986Y-56535485D01*
X152127984Y-56535486D01*
X152120358Y-56538645D01*
X152004526Y-56627526D01*
X151915645Y-56743358D01*
X151912486Y-56750984D01*
X151912485Y-56750986D01*
X151894607Y-56794147D01*
X151859772Y-56878246D01*
X151858695Y-56886430D01*
X151858694Y-56886432D01*
X151847409Y-56972155D01*
X151840715Y-57023000D01*
X133634500Y-57023000D01*
X133634500Y-46600673D01*
X133654502Y-46532552D01*
X133708158Y-46486059D01*
X133778432Y-46475955D01*
X133843012Y-46505449D01*
X133848411Y-46510409D01*
X133921938Y-46582035D01*
X134090720Y-46694812D01*
X134096023Y-46697090D01*
X134096026Y-46697092D01*
X134243327Y-46760377D01*
X134277228Y-46774942D01*
X134350244Y-46791464D01*
X134469579Y-46818467D01*
X134469584Y-46818468D01*
X134475216Y-46819742D01*
X134480987Y-46819969D01*
X134480989Y-46819969D01*
X134540756Y-46822317D01*
X134678053Y-46827712D01*
X134785348Y-46812155D01*
X134873231Y-46799413D01*
X134873236Y-46799412D01*
X134878945Y-46798584D01*
X134884409Y-46796729D01*
X134884414Y-46796728D01*
X135065693Y-46735192D01*
X135065698Y-46735190D01*
X135071165Y-46733334D01*
X135248276Y-46634147D01*
X135287969Y-46601135D01*
X135399913Y-46508031D01*
X135404345Y-46504345D01*
X135428172Y-46475696D01*
X135530453Y-46352718D01*
X135530455Y-46352715D01*
X135534147Y-46348276D01*
X135633334Y-46171165D01*
X135635190Y-46165698D01*
X135635192Y-46165693D01*
X135696728Y-45984414D01*
X135696729Y-45984409D01*
X135698584Y-45978945D01*
X135699412Y-45973236D01*
X135699413Y-45973231D01*
X135727179Y-45781727D01*
X135727712Y-45778053D01*
X135729232Y-45720000D01*
X135726564Y-45690964D01*
X136051148Y-45690964D01*
X136064424Y-45893522D01*
X136065845Y-45899118D01*
X136065846Y-45899123D01*
X136087508Y-45984414D01*
X136114392Y-46090269D01*
X136116809Y-46095512D01*
X136186412Y-46246493D01*
X136199377Y-46274616D01*
X136202710Y-46279332D01*
X136312973Y-46435351D01*
X136316533Y-46440389D01*
X136320675Y-46444424D01*
X136327278Y-46450856D01*
X136461938Y-46582035D01*
X136630720Y-46694812D01*
X136636023Y-46697090D01*
X136636026Y-46697092D01*
X136783327Y-46760377D01*
X136817228Y-46774942D01*
X136890244Y-46791464D01*
X137009579Y-46818467D01*
X137009584Y-46818468D01*
X137015216Y-46819742D01*
X137020987Y-46819969D01*
X137020989Y-46819969D01*
X137080756Y-46822317D01*
X137218053Y-46827712D01*
X137325348Y-46812155D01*
X137413231Y-46799413D01*
X137413236Y-46799412D01*
X137418945Y-46798584D01*
X137424409Y-46796729D01*
X137424414Y-46796728D01*
X137605693Y-46735192D01*
X137605698Y-46735190D01*
X137611165Y-46733334D01*
X137788276Y-46634147D01*
X137827969Y-46601135D01*
X137939913Y-46508031D01*
X137944345Y-46504345D01*
X137968172Y-46475696D01*
X138070453Y-46352718D01*
X138070455Y-46352715D01*
X138074147Y-46348276D01*
X138173334Y-46171165D01*
X138175190Y-46165698D01*
X138175192Y-46165693D01*
X138236728Y-45984414D01*
X138236729Y-45984409D01*
X138238584Y-45978945D01*
X138239412Y-45973236D01*
X138239413Y-45973231D01*
X138267179Y-45781727D01*
X138267712Y-45778053D01*
X138269232Y-45720000D01*
X138266564Y-45690964D01*
X138591148Y-45690964D01*
X138604424Y-45893522D01*
X138605845Y-45899118D01*
X138605846Y-45899123D01*
X138627508Y-45984414D01*
X138654392Y-46090269D01*
X138656809Y-46095512D01*
X138726412Y-46246493D01*
X138739377Y-46274616D01*
X138742710Y-46279332D01*
X138852973Y-46435351D01*
X138856533Y-46440389D01*
X138860675Y-46444424D01*
X138867278Y-46450856D01*
X139001938Y-46582035D01*
X139170720Y-46694812D01*
X139176023Y-46697090D01*
X139176026Y-46697092D01*
X139323327Y-46760377D01*
X139357228Y-46774942D01*
X139430244Y-46791464D01*
X139549579Y-46818467D01*
X139549584Y-46818468D01*
X139555216Y-46819742D01*
X139560987Y-46819969D01*
X139560989Y-46819969D01*
X139620756Y-46822317D01*
X139758053Y-46827712D01*
X139865348Y-46812155D01*
X139953231Y-46799413D01*
X139953236Y-46799412D01*
X139958945Y-46798584D01*
X139964409Y-46796729D01*
X139964414Y-46796728D01*
X140145693Y-46735192D01*
X140145698Y-46735190D01*
X140151165Y-46733334D01*
X140328276Y-46634147D01*
X140367969Y-46601135D01*
X140479913Y-46508031D01*
X140484345Y-46504345D01*
X140508172Y-46475696D01*
X140610453Y-46352718D01*
X140610455Y-46352715D01*
X140614147Y-46348276D01*
X140713334Y-46171165D01*
X140715190Y-46165698D01*
X140715192Y-46165693D01*
X140776728Y-45984414D01*
X140776729Y-45984409D01*
X140778584Y-45978945D01*
X140779412Y-45973236D01*
X140779413Y-45973231D01*
X140807179Y-45781727D01*
X140807712Y-45778053D01*
X140809232Y-45720000D01*
X140806564Y-45690964D01*
X141131148Y-45690964D01*
X141144424Y-45893522D01*
X141145845Y-45899118D01*
X141145846Y-45899123D01*
X141167508Y-45984414D01*
X141194392Y-46090269D01*
X141196809Y-46095512D01*
X141266412Y-46246493D01*
X141279377Y-46274616D01*
X141282710Y-46279332D01*
X141392973Y-46435351D01*
X141396533Y-46440389D01*
X141400675Y-46444424D01*
X141407278Y-46450856D01*
X141541938Y-46582035D01*
X141710720Y-46694812D01*
X141716023Y-46697090D01*
X141716026Y-46697092D01*
X141863327Y-46760377D01*
X141897228Y-46774942D01*
X141970244Y-46791464D01*
X142089579Y-46818467D01*
X142089584Y-46818468D01*
X142095216Y-46819742D01*
X142100987Y-46819969D01*
X142100989Y-46819969D01*
X142160756Y-46822317D01*
X142298053Y-46827712D01*
X142405348Y-46812155D01*
X142493231Y-46799413D01*
X142493236Y-46799412D01*
X142498945Y-46798584D01*
X142504409Y-46796729D01*
X142504414Y-46796728D01*
X142685693Y-46735192D01*
X142685698Y-46735190D01*
X142691165Y-46733334D01*
X142868276Y-46634147D01*
X142907969Y-46601135D01*
X143019913Y-46508031D01*
X143024345Y-46504345D01*
X143048172Y-46475696D01*
X143150453Y-46352718D01*
X143150455Y-46352715D01*
X143154147Y-46348276D01*
X143253334Y-46171165D01*
X143255190Y-46165698D01*
X143255192Y-46165693D01*
X143316728Y-45984414D01*
X143316729Y-45984409D01*
X143318584Y-45978945D01*
X143319412Y-45973236D01*
X143319413Y-45973231D01*
X143347179Y-45781727D01*
X143347712Y-45778053D01*
X143349232Y-45720000D01*
X143346564Y-45690964D01*
X143671148Y-45690964D01*
X143684424Y-45893522D01*
X143685845Y-45899118D01*
X143685846Y-45899123D01*
X143707508Y-45984414D01*
X143734392Y-46090269D01*
X143736809Y-46095512D01*
X143806412Y-46246493D01*
X143819377Y-46274616D01*
X143822710Y-46279332D01*
X143932973Y-46435351D01*
X143936533Y-46440389D01*
X143940675Y-46444424D01*
X143947278Y-46450856D01*
X144081938Y-46582035D01*
X144250720Y-46694812D01*
X144256023Y-46697090D01*
X144256026Y-46697092D01*
X144403327Y-46760377D01*
X144437228Y-46774942D01*
X144510244Y-46791464D01*
X144629579Y-46818467D01*
X144629584Y-46818468D01*
X144635216Y-46819742D01*
X144640987Y-46819969D01*
X144640989Y-46819969D01*
X144700756Y-46822317D01*
X144838053Y-46827712D01*
X144945348Y-46812155D01*
X145033231Y-46799413D01*
X145033236Y-46799412D01*
X145038945Y-46798584D01*
X145044409Y-46796729D01*
X145044414Y-46796728D01*
X145225693Y-46735192D01*
X145225698Y-46735190D01*
X145231165Y-46733334D01*
X145408276Y-46634147D01*
X145447969Y-46601135D01*
X145559913Y-46508031D01*
X145564345Y-46504345D01*
X145588172Y-46475696D01*
X145690453Y-46352718D01*
X145690455Y-46352715D01*
X145694147Y-46348276D01*
X145793334Y-46171165D01*
X145795190Y-46165698D01*
X145795192Y-46165693D01*
X145856728Y-45984414D01*
X145856729Y-45984409D01*
X145858584Y-45978945D01*
X145859412Y-45973236D01*
X145859413Y-45973231D01*
X145887179Y-45781727D01*
X145887712Y-45778053D01*
X145889232Y-45720000D01*
X145886564Y-45690964D01*
X146211148Y-45690964D01*
X146224424Y-45893522D01*
X146225845Y-45899118D01*
X146225846Y-45899123D01*
X146247508Y-45984414D01*
X146274392Y-46090269D01*
X146276809Y-46095512D01*
X146346412Y-46246493D01*
X146359377Y-46274616D01*
X146362710Y-46279332D01*
X146472973Y-46435351D01*
X146476533Y-46440389D01*
X146480675Y-46444424D01*
X146487278Y-46450856D01*
X146621938Y-46582035D01*
X146790720Y-46694812D01*
X146796023Y-46697090D01*
X146796026Y-46697092D01*
X146943327Y-46760377D01*
X146977228Y-46774942D01*
X147050244Y-46791464D01*
X147169579Y-46818467D01*
X147169584Y-46818468D01*
X147175216Y-46819742D01*
X147180987Y-46819969D01*
X147180989Y-46819969D01*
X147240756Y-46822317D01*
X147378053Y-46827712D01*
X147485348Y-46812155D01*
X147573231Y-46799413D01*
X147573236Y-46799412D01*
X147578945Y-46798584D01*
X147584409Y-46796729D01*
X147584414Y-46796728D01*
X147765693Y-46735192D01*
X147765698Y-46735190D01*
X147771165Y-46733334D01*
X147948276Y-46634147D01*
X147987969Y-46601135D01*
X148099913Y-46508031D01*
X148104345Y-46504345D01*
X148128172Y-46475696D01*
X148230453Y-46352718D01*
X148230455Y-46352715D01*
X148234147Y-46348276D01*
X148333334Y-46171165D01*
X148335190Y-46165698D01*
X148335192Y-46165693D01*
X148396728Y-45984414D01*
X148396729Y-45984409D01*
X148398584Y-45978945D01*
X148399412Y-45973236D01*
X148399413Y-45973231D01*
X148427179Y-45781727D01*
X148427712Y-45778053D01*
X148429232Y-45720000D01*
X148426564Y-45690964D01*
X148751148Y-45690964D01*
X148764424Y-45893522D01*
X148765845Y-45899118D01*
X148765846Y-45899123D01*
X148787508Y-45984414D01*
X148814392Y-46090269D01*
X148816809Y-46095512D01*
X148886412Y-46246493D01*
X148899377Y-46274616D01*
X148902710Y-46279332D01*
X149012973Y-46435351D01*
X149016533Y-46440389D01*
X149020675Y-46444424D01*
X149027278Y-46450856D01*
X149161938Y-46582035D01*
X149330720Y-46694812D01*
X149336023Y-46697090D01*
X149336026Y-46697092D01*
X149483327Y-46760377D01*
X149517228Y-46774942D01*
X149590244Y-46791464D01*
X149709579Y-46818467D01*
X149709584Y-46818468D01*
X149715216Y-46819742D01*
X149720987Y-46819969D01*
X149720989Y-46819969D01*
X149780756Y-46822317D01*
X149918053Y-46827712D01*
X150025348Y-46812155D01*
X150113231Y-46799413D01*
X150113236Y-46799412D01*
X150118945Y-46798584D01*
X150124409Y-46796729D01*
X150124414Y-46796728D01*
X150305693Y-46735192D01*
X150305698Y-46735190D01*
X150311165Y-46733334D01*
X150488276Y-46634147D01*
X150527969Y-46601135D01*
X150639913Y-46508031D01*
X150644345Y-46504345D01*
X150668172Y-46475696D01*
X150770453Y-46352718D01*
X150770455Y-46352715D01*
X150774147Y-46348276D01*
X150873334Y-46171165D01*
X150875190Y-46165698D01*
X150875192Y-46165693D01*
X150936728Y-45984414D01*
X150936729Y-45984409D01*
X150938584Y-45978945D01*
X150939412Y-45973236D01*
X150939413Y-45973231D01*
X150967179Y-45781727D01*
X150967712Y-45778053D01*
X150969232Y-45720000D01*
X150966564Y-45690964D01*
X151291148Y-45690964D01*
X151304424Y-45893522D01*
X151305845Y-45899118D01*
X151305846Y-45899123D01*
X151327508Y-45984414D01*
X151354392Y-46090269D01*
X151356809Y-46095512D01*
X151426412Y-46246493D01*
X151439377Y-46274616D01*
X151442710Y-46279332D01*
X151552973Y-46435351D01*
X151556533Y-46440389D01*
X151560675Y-46444424D01*
X151567278Y-46450856D01*
X151701938Y-46582035D01*
X151870720Y-46694812D01*
X151876023Y-46697090D01*
X151876026Y-46697092D01*
X152023327Y-46760377D01*
X152057228Y-46774942D01*
X152130244Y-46791464D01*
X152249579Y-46818467D01*
X152249584Y-46818468D01*
X152255216Y-46819742D01*
X152260987Y-46819969D01*
X152260989Y-46819969D01*
X152320756Y-46822317D01*
X152458053Y-46827712D01*
X152565348Y-46812155D01*
X152653231Y-46799413D01*
X152653236Y-46799412D01*
X152658945Y-46798584D01*
X152664409Y-46796729D01*
X152664414Y-46796728D01*
X152845693Y-46735192D01*
X152845698Y-46735190D01*
X152851165Y-46733334D01*
X153028276Y-46634147D01*
X153067969Y-46601135D01*
X153179913Y-46508031D01*
X153184345Y-46504345D01*
X153208172Y-46475696D01*
X153310453Y-46352718D01*
X153310455Y-46352715D01*
X153314147Y-46348276D01*
X153413334Y-46171165D01*
X153415190Y-46165698D01*
X153415192Y-46165693D01*
X153476728Y-45984414D01*
X153476729Y-45984409D01*
X153478584Y-45978945D01*
X153479412Y-45973236D01*
X153479413Y-45973231D01*
X153507179Y-45781727D01*
X153507712Y-45778053D01*
X153509232Y-45720000D01*
X153506564Y-45690964D01*
X153831148Y-45690964D01*
X153844424Y-45893522D01*
X153845845Y-45899118D01*
X153845846Y-45899123D01*
X153867508Y-45984414D01*
X153894392Y-46090269D01*
X153896809Y-46095512D01*
X153966412Y-46246493D01*
X153979377Y-46274616D01*
X153982710Y-46279332D01*
X154092973Y-46435351D01*
X154096533Y-46440389D01*
X154100675Y-46444424D01*
X154107278Y-46450856D01*
X154241938Y-46582035D01*
X154410720Y-46694812D01*
X154416023Y-46697090D01*
X154416026Y-46697092D01*
X154563327Y-46760377D01*
X154597228Y-46774942D01*
X154670244Y-46791464D01*
X154789579Y-46818467D01*
X154789584Y-46818468D01*
X154795216Y-46819742D01*
X154800987Y-46819969D01*
X154800989Y-46819969D01*
X154860756Y-46822317D01*
X154998053Y-46827712D01*
X155105348Y-46812155D01*
X155193231Y-46799413D01*
X155193236Y-46799412D01*
X155198945Y-46798584D01*
X155204409Y-46796729D01*
X155204414Y-46796728D01*
X155385693Y-46735192D01*
X155385698Y-46735190D01*
X155391165Y-46733334D01*
X155568276Y-46634147D01*
X155607969Y-46601135D01*
X155719913Y-46508031D01*
X155724345Y-46504345D01*
X155748172Y-46475696D01*
X155850453Y-46352718D01*
X155850455Y-46352715D01*
X155854147Y-46348276D01*
X155953334Y-46171165D01*
X155955190Y-46165698D01*
X155955192Y-46165693D01*
X156016728Y-45984414D01*
X156016729Y-45984409D01*
X156018584Y-45978945D01*
X156019412Y-45973236D01*
X156019413Y-45973231D01*
X156047179Y-45781727D01*
X156047712Y-45778053D01*
X156049232Y-45720000D01*
X156046564Y-45690964D01*
X156371148Y-45690964D01*
X156384424Y-45893522D01*
X156385845Y-45899118D01*
X156385846Y-45899123D01*
X156407508Y-45984414D01*
X156434392Y-46090269D01*
X156436809Y-46095512D01*
X156506412Y-46246493D01*
X156519377Y-46274616D01*
X156522710Y-46279332D01*
X156632973Y-46435351D01*
X156636533Y-46440389D01*
X156640675Y-46444424D01*
X156647278Y-46450856D01*
X156781938Y-46582035D01*
X156950720Y-46694812D01*
X156956023Y-46697090D01*
X156956026Y-46697092D01*
X157103327Y-46760377D01*
X157137228Y-46774942D01*
X157210244Y-46791464D01*
X157329579Y-46818467D01*
X157329584Y-46818468D01*
X157335216Y-46819742D01*
X157340987Y-46819969D01*
X157340989Y-46819969D01*
X157400756Y-46822317D01*
X157538053Y-46827712D01*
X157645348Y-46812155D01*
X157733231Y-46799413D01*
X157733236Y-46799412D01*
X157738945Y-46798584D01*
X157744409Y-46796729D01*
X157744414Y-46796728D01*
X157925693Y-46735192D01*
X157925698Y-46735190D01*
X157931165Y-46733334D01*
X158108276Y-46634147D01*
X158147969Y-46601135D01*
X158259913Y-46508031D01*
X158264345Y-46504345D01*
X158288172Y-46475696D01*
X158390453Y-46352718D01*
X158390455Y-46352715D01*
X158394147Y-46348276D01*
X158493334Y-46171165D01*
X158495190Y-46165698D01*
X158495192Y-46165693D01*
X158556728Y-45984414D01*
X158556729Y-45984409D01*
X158558584Y-45978945D01*
X158559412Y-45973236D01*
X158559413Y-45973231D01*
X158587179Y-45781727D01*
X158587712Y-45778053D01*
X158589232Y-45720000D01*
X158586564Y-45690964D01*
X158911148Y-45690964D01*
X158924424Y-45893522D01*
X158925845Y-45899118D01*
X158925846Y-45899123D01*
X158947508Y-45984414D01*
X158974392Y-46090269D01*
X158976809Y-46095512D01*
X159046412Y-46246493D01*
X159059377Y-46274616D01*
X159062710Y-46279332D01*
X159172973Y-46435351D01*
X159176533Y-46440389D01*
X159180675Y-46444424D01*
X159187278Y-46450856D01*
X159321938Y-46582035D01*
X159490720Y-46694812D01*
X159496023Y-46697090D01*
X159496026Y-46697092D01*
X159643327Y-46760377D01*
X159677228Y-46774942D01*
X159750244Y-46791464D01*
X159869579Y-46818467D01*
X159869584Y-46818468D01*
X159875216Y-46819742D01*
X159880987Y-46819969D01*
X159880989Y-46819969D01*
X159940756Y-46822317D01*
X160078053Y-46827712D01*
X160185348Y-46812155D01*
X160273231Y-46799413D01*
X160273236Y-46799412D01*
X160278945Y-46798584D01*
X160415991Y-46752063D01*
X160486926Y-46749107D01*
X160545587Y-46782281D01*
X176477522Y-62714216D01*
X176492664Y-62732964D01*
X176493779Y-62734189D01*
X176499429Y-62742940D01*
X176507607Y-62749387D01*
X176507609Y-62749389D01*
X176525800Y-62763729D01*
X176530244Y-62767678D01*
X176530306Y-62767604D01*
X176534263Y-62770957D01*
X176537944Y-62774638D01*
X176553654Y-62785865D01*
X176558380Y-62789413D01*
X176598647Y-62821156D01*
X176607284Y-62824189D01*
X176614734Y-62829513D01*
X176624710Y-62832497D01*
X176624711Y-62832497D01*
X176640046Y-62837083D01*
X176663849Y-62844202D01*
X176669486Y-62846034D01*
X176710367Y-62860390D01*
X176717851Y-62863018D01*
X176723416Y-62863500D01*
X176726124Y-62863500D01*
X176728758Y-62863614D01*
X176728856Y-62863643D01*
X176728849Y-62863807D01*
X176729553Y-62863851D01*
X176735778Y-62865713D01*
X176789635Y-62863597D01*
X176794582Y-62863500D01*
X178229938Y-62863500D01*
X178298059Y-62883502D01*
X178306626Y-62889526D01*
X178409357Y-62968355D01*
X178544246Y-63024228D01*
X178689000Y-63043285D01*
X178697188Y-63042207D01*
X178825566Y-63025306D01*
X178833754Y-63024228D01*
X178968643Y-62968355D01*
X178975196Y-62963327D01*
X179077921Y-62884503D01*
X179077924Y-62884500D01*
X179084474Y-62879474D01*
X179110134Y-62846034D01*
X179168328Y-62770193D01*
X179173355Y-62763642D01*
X179186063Y-62732964D01*
X179226069Y-62636380D01*
X179229228Y-62628754D01*
X179248285Y-62484000D01*
X179229228Y-62339246D01*
X179173355Y-62204358D01*
X179084474Y-62088526D01*
X179077924Y-62083500D01*
X179077921Y-62083497D01*
X178975196Y-62004673D01*
X178975194Y-62004672D01*
X178968643Y-61999645D01*
X178833754Y-61943772D01*
X178689000Y-61924715D01*
X178680812Y-61925793D01*
X178552432Y-61942694D01*
X178552430Y-61942695D01*
X178544246Y-61943772D01*
X178496430Y-61963578D01*
X178416986Y-61996485D01*
X178416984Y-61996486D01*
X178409358Y-61999645D01*
X178357887Y-62039140D01*
X178306640Y-62078463D01*
X178240419Y-62104063D01*
X178229936Y-62104500D01*
X176993384Y-62104500D01*
X176925263Y-62084498D01*
X176904289Y-62067595D01*
X170687658Y-55850964D01*
X181756148Y-55850964D01*
X181769424Y-56053522D01*
X181770845Y-56059118D01*
X181770846Y-56059123D01*
X181804431Y-56191362D01*
X181819392Y-56250269D01*
X181821809Y-56255512D01*
X181859010Y-56336208D01*
X181904377Y-56434616D01*
X182021533Y-56600389D01*
X182025675Y-56604424D01*
X182056110Y-56634072D01*
X182166938Y-56742035D01*
X182335720Y-56854812D01*
X182341023Y-56857090D01*
X182341026Y-56857092D01*
X182472283Y-56913484D01*
X182522228Y-56934942D01*
X182595244Y-56951464D01*
X182714579Y-56978467D01*
X182714584Y-56978468D01*
X182720216Y-56979742D01*
X182725987Y-56979969D01*
X182725989Y-56979969D01*
X182785756Y-56982317D01*
X182923053Y-56987712D01*
X183030348Y-56972155D01*
X183118231Y-56959413D01*
X183118236Y-56959412D01*
X183123945Y-56958584D01*
X183129409Y-56956729D01*
X183129414Y-56956728D01*
X183310693Y-56895192D01*
X183310698Y-56895190D01*
X183316165Y-56893334D01*
X183328490Y-56886432D01*
X183390683Y-56851602D01*
X183493276Y-56794147D01*
X183501370Y-56787416D01*
X183644913Y-56668031D01*
X183649345Y-56664345D01*
X183743068Y-56551656D01*
X183775453Y-56512718D01*
X183775455Y-56512715D01*
X183779147Y-56508276D01*
X183838845Y-56401677D01*
X183875510Y-56336208D01*
X183875511Y-56336206D01*
X183878334Y-56331165D01*
X183880190Y-56325698D01*
X183880192Y-56325693D01*
X183941728Y-56144414D01*
X183941729Y-56144409D01*
X183943584Y-56138945D01*
X183944412Y-56133236D01*
X183944413Y-56133231D01*
X183972179Y-55941727D01*
X183972712Y-55938053D01*
X183974232Y-55880000D01*
X183971564Y-55850964D01*
X184296148Y-55850964D01*
X184309424Y-56053522D01*
X184310845Y-56059118D01*
X184310846Y-56059123D01*
X184344431Y-56191362D01*
X184359392Y-56250269D01*
X184361809Y-56255512D01*
X184399010Y-56336208D01*
X184444377Y-56434616D01*
X184561533Y-56600389D01*
X184565675Y-56604424D01*
X184596110Y-56634072D01*
X184706938Y-56742035D01*
X184875720Y-56854812D01*
X184881023Y-56857090D01*
X184881026Y-56857092D01*
X185012283Y-56913484D01*
X185062228Y-56934942D01*
X185135244Y-56951464D01*
X185254579Y-56978467D01*
X185254584Y-56978468D01*
X185260216Y-56979742D01*
X185265987Y-56979969D01*
X185265989Y-56979969D01*
X185325756Y-56982317D01*
X185463053Y-56987712D01*
X185570348Y-56972155D01*
X185658231Y-56959413D01*
X185658236Y-56959412D01*
X185663945Y-56958584D01*
X185669409Y-56956729D01*
X185669414Y-56956728D01*
X185850693Y-56895192D01*
X185850698Y-56895190D01*
X185856165Y-56893334D01*
X185868490Y-56886432D01*
X185930683Y-56851602D01*
X186033276Y-56794147D01*
X186041370Y-56787416D01*
X186184913Y-56668031D01*
X186189345Y-56664345D01*
X186283068Y-56551656D01*
X186315453Y-56512718D01*
X186315455Y-56512715D01*
X186319147Y-56508276D01*
X186378845Y-56401677D01*
X186415510Y-56336208D01*
X186415511Y-56336206D01*
X186418334Y-56331165D01*
X186420190Y-56325698D01*
X186420192Y-56325693D01*
X186481728Y-56144414D01*
X186481729Y-56144409D01*
X186483584Y-56138945D01*
X186484412Y-56133236D01*
X186484413Y-56133231D01*
X186512179Y-55941727D01*
X186512712Y-55938053D01*
X186514232Y-55880000D01*
X186495658Y-55677859D01*
X186489385Y-55655616D01*
X186442125Y-55488046D01*
X186442124Y-55488044D01*
X186440557Y-55482487D01*
X186429978Y-55461033D01*
X186353331Y-55305609D01*
X186350776Y-55300428D01*
X186229320Y-55137779D01*
X186085609Y-55004933D01*
X186840500Y-55004933D01*
X186840501Y-56755066D01*
X186855266Y-56829301D01*
X186862161Y-56839620D01*
X186862162Y-56839622D01*
X186902516Y-56900015D01*
X186911516Y-56913484D01*
X186995699Y-56969734D01*
X187069933Y-56984500D01*
X187944858Y-56984500D01*
X188820066Y-56984499D01*
X188855818Y-56977388D01*
X188882126Y-56972156D01*
X188882128Y-56972155D01*
X188894301Y-56969734D01*
X188904621Y-56962839D01*
X188904622Y-56962838D01*
X188968168Y-56920377D01*
X188978484Y-56913484D01*
X189034734Y-56829301D01*
X189049500Y-56755067D01*
X189049499Y-55004934D01*
X189034734Y-54930699D01*
X189008654Y-54891667D01*
X188985377Y-54856832D01*
X188978484Y-54846516D01*
X188894301Y-54790266D01*
X188820067Y-54775500D01*
X187945142Y-54775500D01*
X187069934Y-54775501D01*
X187034182Y-54782612D01*
X187007874Y-54787844D01*
X187007872Y-54787845D01*
X186995699Y-54790266D01*
X186985379Y-54797161D01*
X186985378Y-54797162D01*
X186924985Y-54837516D01*
X186911516Y-54846516D01*
X186855266Y-54930699D01*
X186840500Y-55004933D01*
X186085609Y-55004933D01*
X186080258Y-54999987D01*
X186075375Y-54996906D01*
X186075371Y-54996903D01*
X185913464Y-54894748D01*
X185908581Y-54891667D01*
X185720039Y-54816446D01*
X185714379Y-54815320D01*
X185714375Y-54815319D01*
X185526613Y-54777971D01*
X185526610Y-54777971D01*
X185520946Y-54776844D01*
X185515171Y-54776768D01*
X185515167Y-54776768D01*
X185413793Y-54775441D01*
X185317971Y-54774187D01*
X185312274Y-54775166D01*
X185312273Y-54775166D01*
X185224397Y-54790266D01*
X185117910Y-54808564D01*
X184927463Y-54878824D01*
X184753010Y-54982612D01*
X184748670Y-54986418D01*
X184748666Y-54986421D01*
X184604733Y-55112648D01*
X184600392Y-55116455D01*
X184474720Y-55275869D01*
X184472031Y-55280980D01*
X184472029Y-55280983D01*
X184459073Y-55305609D01*
X184380203Y-55455515D01*
X184320007Y-55649378D01*
X184296148Y-55850964D01*
X183971564Y-55850964D01*
X183955658Y-55677859D01*
X183949385Y-55655616D01*
X183902125Y-55488046D01*
X183902124Y-55488044D01*
X183900557Y-55482487D01*
X183889978Y-55461033D01*
X183813331Y-55305609D01*
X183810776Y-55300428D01*
X183689320Y-55137779D01*
X183540258Y-54999987D01*
X183535375Y-54996906D01*
X183535371Y-54996903D01*
X183373464Y-54894748D01*
X183368581Y-54891667D01*
X183180039Y-54816446D01*
X183174379Y-54815320D01*
X183174375Y-54815319D01*
X182986613Y-54777971D01*
X182986610Y-54777971D01*
X182980946Y-54776844D01*
X182975171Y-54776768D01*
X182975167Y-54776768D01*
X182873793Y-54775441D01*
X182777971Y-54774187D01*
X182772274Y-54775166D01*
X182772273Y-54775166D01*
X182684397Y-54790266D01*
X182577910Y-54808564D01*
X182387463Y-54878824D01*
X182213010Y-54982612D01*
X182208670Y-54986418D01*
X182208666Y-54986421D01*
X182064733Y-55112648D01*
X182060392Y-55116455D01*
X181934720Y-55275869D01*
X181932031Y-55280980D01*
X181932029Y-55280983D01*
X181919073Y-55305609D01*
X181840203Y-55455515D01*
X181780007Y-55649378D01*
X181756148Y-55850964D01*
X170687658Y-55850964D01*
X161082281Y-46245587D01*
X161048255Y-46183275D01*
X161052063Y-46115991D01*
X161060795Y-46090269D01*
X161098584Y-45978945D01*
X161099412Y-45973236D01*
X161099413Y-45973231D01*
X161127179Y-45781727D01*
X161127712Y-45778053D01*
X161129232Y-45720000D01*
X161126564Y-45690964D01*
X161451148Y-45690964D01*
X161464424Y-45893522D01*
X161465845Y-45899118D01*
X161465846Y-45899123D01*
X161487508Y-45984414D01*
X161514392Y-46090269D01*
X161516809Y-46095512D01*
X161586412Y-46246493D01*
X161599377Y-46274616D01*
X161602710Y-46279332D01*
X161712973Y-46435351D01*
X161716533Y-46440389D01*
X161720675Y-46444424D01*
X161727278Y-46450856D01*
X161861938Y-46582035D01*
X162030720Y-46694812D01*
X162036023Y-46697090D01*
X162036026Y-46697092D01*
X162183327Y-46760377D01*
X162217228Y-46774942D01*
X162290244Y-46791464D01*
X162409579Y-46818467D01*
X162409584Y-46818468D01*
X162415216Y-46819742D01*
X162420987Y-46819969D01*
X162420989Y-46819969D01*
X162480756Y-46822317D01*
X162618053Y-46827712D01*
X162725348Y-46812155D01*
X162813231Y-46799413D01*
X162813236Y-46799412D01*
X162818945Y-46798584D01*
X162824409Y-46796729D01*
X162824414Y-46796728D01*
X163005693Y-46735192D01*
X163005698Y-46735190D01*
X163011165Y-46733334D01*
X163188276Y-46634147D01*
X163227969Y-46601135D01*
X163339913Y-46508031D01*
X163344345Y-46504345D01*
X163368172Y-46475696D01*
X163470453Y-46352718D01*
X163470455Y-46352715D01*
X163474147Y-46348276D01*
X163573334Y-46171165D01*
X163575190Y-46165698D01*
X163575192Y-46165693D01*
X163636728Y-45984414D01*
X163636729Y-45984409D01*
X163638584Y-45978945D01*
X163639412Y-45973236D01*
X163639413Y-45973231D01*
X163667179Y-45781727D01*
X163667712Y-45778053D01*
X163669232Y-45720000D01*
X163666564Y-45690964D01*
X163991148Y-45690964D01*
X164004424Y-45893522D01*
X164005845Y-45899118D01*
X164005846Y-45899123D01*
X164027508Y-45984414D01*
X164054392Y-46090269D01*
X164056809Y-46095512D01*
X164126412Y-46246493D01*
X164139377Y-46274616D01*
X164142710Y-46279332D01*
X164252973Y-46435351D01*
X164256533Y-46440389D01*
X164260675Y-46444424D01*
X164267278Y-46450856D01*
X164401938Y-46582035D01*
X164570720Y-46694812D01*
X164576023Y-46697090D01*
X164576026Y-46697092D01*
X164723327Y-46760377D01*
X164757228Y-46774942D01*
X164830244Y-46791464D01*
X164949579Y-46818467D01*
X164949584Y-46818468D01*
X164955216Y-46819742D01*
X164960987Y-46819969D01*
X164960989Y-46819969D01*
X165020756Y-46822317D01*
X165158053Y-46827712D01*
X165265348Y-46812155D01*
X165353231Y-46799413D01*
X165353236Y-46799412D01*
X165358945Y-46798584D01*
X165364409Y-46796729D01*
X165364414Y-46796728D01*
X165545693Y-46735192D01*
X165545698Y-46735190D01*
X165551165Y-46733334D01*
X165728276Y-46634147D01*
X165767969Y-46601135D01*
X165879913Y-46508031D01*
X165884345Y-46504345D01*
X165908172Y-46475696D01*
X166010453Y-46352718D01*
X166010455Y-46352715D01*
X166014147Y-46348276D01*
X166113334Y-46171165D01*
X166115190Y-46165698D01*
X166115192Y-46165693D01*
X166176728Y-45984414D01*
X166176729Y-45984409D01*
X166178584Y-45978945D01*
X166179412Y-45973236D01*
X166179413Y-45973231D01*
X166207179Y-45781727D01*
X166207712Y-45778053D01*
X166209232Y-45720000D01*
X166206564Y-45690964D01*
X166531148Y-45690964D01*
X166544424Y-45893522D01*
X166545845Y-45899118D01*
X166545846Y-45899123D01*
X166567508Y-45984414D01*
X166594392Y-46090269D01*
X166596809Y-46095512D01*
X166666412Y-46246493D01*
X166679377Y-46274616D01*
X166682710Y-46279332D01*
X166792973Y-46435351D01*
X166796533Y-46440389D01*
X166800675Y-46444424D01*
X166807278Y-46450856D01*
X166941938Y-46582035D01*
X167110720Y-46694812D01*
X167116023Y-46697090D01*
X167116026Y-46697092D01*
X167263327Y-46760377D01*
X167297228Y-46774942D01*
X167370244Y-46791464D01*
X167489579Y-46818467D01*
X167489584Y-46818468D01*
X167495216Y-46819742D01*
X167500987Y-46819969D01*
X167500989Y-46819969D01*
X167560756Y-46822317D01*
X167698053Y-46827712D01*
X167805348Y-46812155D01*
X167893231Y-46799413D01*
X167893236Y-46799412D01*
X167898945Y-46798584D01*
X167904409Y-46796729D01*
X167904414Y-46796728D01*
X168085693Y-46735192D01*
X168085698Y-46735190D01*
X168091165Y-46733334D01*
X168268276Y-46634147D01*
X168307969Y-46601135D01*
X168419913Y-46508031D01*
X168424345Y-46504345D01*
X168448172Y-46475696D01*
X168550453Y-46352718D01*
X168550455Y-46352715D01*
X168554147Y-46348276D01*
X168653334Y-46171165D01*
X168655190Y-46165698D01*
X168655192Y-46165693D01*
X168716728Y-45984414D01*
X168716729Y-45984409D01*
X168718584Y-45978945D01*
X168719412Y-45973236D01*
X168719413Y-45973231D01*
X168747179Y-45781727D01*
X168747712Y-45778053D01*
X168749232Y-45720000D01*
X168730658Y-45517859D01*
X168729090Y-45512299D01*
X168677125Y-45328046D01*
X168677124Y-45328044D01*
X168675557Y-45322487D01*
X168664978Y-45301033D01*
X168588331Y-45145609D01*
X168585776Y-45140428D01*
X168464320Y-44977779D01*
X168320609Y-44844933D01*
X169075500Y-44844933D01*
X169075501Y-46595066D01*
X169090266Y-46669301D01*
X169097161Y-46679620D01*
X169097162Y-46679622D01*
X169137516Y-46740015D01*
X169146516Y-46753484D01*
X169230699Y-46809734D01*
X169304933Y-46824500D01*
X170179858Y-46824500D01*
X171055066Y-46824499D01*
X171090818Y-46817388D01*
X171117126Y-46812156D01*
X171117128Y-46812155D01*
X171129301Y-46809734D01*
X171139621Y-46802839D01*
X171139622Y-46802838D01*
X171203168Y-46760377D01*
X171213484Y-46753484D01*
X171269734Y-46669301D01*
X171284500Y-46595067D01*
X171284499Y-44844934D01*
X171277388Y-44809182D01*
X171272156Y-44782874D01*
X171272155Y-44782872D01*
X171269734Y-44770699D01*
X171259573Y-44755491D01*
X171220377Y-44696832D01*
X171213484Y-44686516D01*
X171129301Y-44630266D01*
X171055067Y-44615500D01*
X170180142Y-44615500D01*
X169304934Y-44615501D01*
X169269182Y-44622612D01*
X169242874Y-44627844D01*
X169242872Y-44627845D01*
X169230699Y-44630266D01*
X169220379Y-44637161D01*
X169220378Y-44637162D01*
X169159985Y-44677516D01*
X169146516Y-44686516D01*
X169090266Y-44770699D01*
X169075500Y-44844933D01*
X168320609Y-44844933D01*
X168315258Y-44839987D01*
X168310375Y-44836906D01*
X168310371Y-44836903D01*
X168148464Y-44734748D01*
X168143581Y-44731667D01*
X167955039Y-44656446D01*
X167949379Y-44655320D01*
X167949375Y-44655319D01*
X167761613Y-44617971D01*
X167761610Y-44617971D01*
X167755946Y-44616844D01*
X167750171Y-44616768D01*
X167750167Y-44616768D01*
X167648793Y-44615441D01*
X167552971Y-44614187D01*
X167547274Y-44615166D01*
X167547273Y-44615166D01*
X167459397Y-44630266D01*
X167352910Y-44648564D01*
X167162463Y-44718824D01*
X166988010Y-44822612D01*
X166983670Y-44826418D01*
X166983666Y-44826421D01*
X166893205Y-44905754D01*
X166835392Y-44956455D01*
X166709720Y-45115869D01*
X166707031Y-45120980D01*
X166707029Y-45120983D01*
X166694073Y-45145609D01*
X166615203Y-45295515D01*
X166555007Y-45489378D01*
X166531148Y-45690964D01*
X166206564Y-45690964D01*
X166190658Y-45517859D01*
X166189090Y-45512299D01*
X166137125Y-45328046D01*
X166137124Y-45328044D01*
X166135557Y-45322487D01*
X166124978Y-45301033D01*
X166048331Y-45145609D01*
X166045776Y-45140428D01*
X165924320Y-44977779D01*
X165775258Y-44839987D01*
X165770375Y-44836906D01*
X165770371Y-44836903D01*
X165608464Y-44734748D01*
X165603581Y-44731667D01*
X165415039Y-44656446D01*
X165409379Y-44655320D01*
X165409375Y-44655319D01*
X165221613Y-44617971D01*
X165221610Y-44617971D01*
X165215946Y-44616844D01*
X165210171Y-44616768D01*
X165210167Y-44616768D01*
X165108793Y-44615441D01*
X165012971Y-44614187D01*
X165007274Y-44615166D01*
X165007273Y-44615166D01*
X164919397Y-44630266D01*
X164812910Y-44648564D01*
X164622463Y-44718824D01*
X164448010Y-44822612D01*
X164443670Y-44826418D01*
X164443666Y-44826421D01*
X164353205Y-44905754D01*
X164295392Y-44956455D01*
X164169720Y-45115869D01*
X164167031Y-45120980D01*
X164167029Y-45120983D01*
X164154073Y-45145609D01*
X164075203Y-45295515D01*
X164015007Y-45489378D01*
X163991148Y-45690964D01*
X163666564Y-45690964D01*
X163650658Y-45517859D01*
X163649090Y-45512299D01*
X163597125Y-45328046D01*
X163597124Y-45328044D01*
X163595557Y-45322487D01*
X163584978Y-45301033D01*
X163508331Y-45145609D01*
X163505776Y-45140428D01*
X163384320Y-44977779D01*
X163235258Y-44839987D01*
X163230375Y-44836906D01*
X163230371Y-44836903D01*
X163068464Y-44734748D01*
X163063581Y-44731667D01*
X162875039Y-44656446D01*
X162869379Y-44655320D01*
X162869375Y-44655319D01*
X162681613Y-44617971D01*
X162681610Y-44617971D01*
X162675946Y-44616844D01*
X162670171Y-44616768D01*
X162670167Y-44616768D01*
X162568793Y-44615441D01*
X162472971Y-44614187D01*
X162467274Y-44615166D01*
X162467273Y-44615166D01*
X162379397Y-44630266D01*
X162272910Y-44648564D01*
X162082463Y-44718824D01*
X161908010Y-44822612D01*
X161903670Y-44826418D01*
X161903666Y-44826421D01*
X161813205Y-44905754D01*
X161755392Y-44956455D01*
X161629720Y-45115869D01*
X161627031Y-45120980D01*
X161627029Y-45120983D01*
X161614073Y-45145609D01*
X161535203Y-45295515D01*
X161475007Y-45489378D01*
X161451148Y-45690964D01*
X161126564Y-45690964D01*
X161110658Y-45517859D01*
X161109090Y-45512299D01*
X161057125Y-45328046D01*
X161057124Y-45328044D01*
X161055557Y-45322487D01*
X161044978Y-45301033D01*
X160968331Y-45145609D01*
X160965776Y-45140428D01*
X160844320Y-44977779D01*
X160695258Y-44839987D01*
X160690375Y-44836906D01*
X160690371Y-44836903D01*
X160528464Y-44734748D01*
X160523581Y-44731667D01*
X160335039Y-44656446D01*
X160329379Y-44655320D01*
X160329375Y-44655319D01*
X160141613Y-44617971D01*
X160141610Y-44617971D01*
X160135946Y-44616844D01*
X160130171Y-44616768D01*
X160130167Y-44616768D01*
X160028793Y-44615441D01*
X159932971Y-44614187D01*
X159927274Y-44615166D01*
X159927273Y-44615166D01*
X159839397Y-44630266D01*
X159732910Y-44648564D01*
X159542463Y-44718824D01*
X159368010Y-44822612D01*
X159363670Y-44826418D01*
X159363666Y-44826421D01*
X159273205Y-44905754D01*
X159215392Y-44956455D01*
X159089720Y-45115869D01*
X159087031Y-45120980D01*
X159087029Y-45120983D01*
X159074073Y-45145609D01*
X158995203Y-45295515D01*
X158935007Y-45489378D01*
X158911148Y-45690964D01*
X158586564Y-45690964D01*
X158570658Y-45517859D01*
X158569090Y-45512299D01*
X158517125Y-45328046D01*
X158517124Y-45328044D01*
X158515557Y-45322487D01*
X158504978Y-45301033D01*
X158428331Y-45145609D01*
X158425776Y-45140428D01*
X158304320Y-44977779D01*
X158155258Y-44839987D01*
X158150375Y-44836906D01*
X158150371Y-44836903D01*
X157988464Y-44734748D01*
X157983581Y-44731667D01*
X157795039Y-44656446D01*
X157789379Y-44655320D01*
X157789375Y-44655319D01*
X157601613Y-44617971D01*
X157601610Y-44617971D01*
X157595946Y-44616844D01*
X157590171Y-44616768D01*
X157590167Y-44616768D01*
X157488793Y-44615441D01*
X157392971Y-44614187D01*
X157387274Y-44615166D01*
X157387273Y-44615166D01*
X157299397Y-44630266D01*
X157192910Y-44648564D01*
X157002463Y-44718824D01*
X156828010Y-44822612D01*
X156823670Y-44826418D01*
X156823666Y-44826421D01*
X156733205Y-44905754D01*
X156675392Y-44956455D01*
X156549720Y-45115869D01*
X156547031Y-45120980D01*
X156547029Y-45120983D01*
X156534073Y-45145609D01*
X156455203Y-45295515D01*
X156395007Y-45489378D01*
X156371148Y-45690964D01*
X156046564Y-45690964D01*
X156030658Y-45517859D01*
X156029090Y-45512299D01*
X155977125Y-45328046D01*
X155977124Y-45328044D01*
X155975557Y-45322487D01*
X155964978Y-45301033D01*
X155888331Y-45145609D01*
X155885776Y-45140428D01*
X155764320Y-44977779D01*
X155615258Y-44839987D01*
X155610375Y-44836906D01*
X155610371Y-44836903D01*
X155448464Y-44734748D01*
X155443581Y-44731667D01*
X155255039Y-44656446D01*
X155249379Y-44655320D01*
X155249375Y-44655319D01*
X155061613Y-44617971D01*
X155061610Y-44617971D01*
X155055946Y-44616844D01*
X155050171Y-44616768D01*
X155050167Y-44616768D01*
X154948793Y-44615441D01*
X154852971Y-44614187D01*
X154847274Y-44615166D01*
X154847273Y-44615166D01*
X154759397Y-44630266D01*
X154652910Y-44648564D01*
X154462463Y-44718824D01*
X154288010Y-44822612D01*
X154283670Y-44826418D01*
X154283666Y-44826421D01*
X154193205Y-44905754D01*
X154135392Y-44956455D01*
X154009720Y-45115869D01*
X154007031Y-45120980D01*
X154007029Y-45120983D01*
X153994073Y-45145609D01*
X153915203Y-45295515D01*
X153855007Y-45489378D01*
X153831148Y-45690964D01*
X153506564Y-45690964D01*
X153490658Y-45517859D01*
X153489090Y-45512299D01*
X153437125Y-45328046D01*
X153437124Y-45328044D01*
X153435557Y-45322487D01*
X153424978Y-45301033D01*
X153348331Y-45145609D01*
X153345776Y-45140428D01*
X153224320Y-44977779D01*
X153075258Y-44839987D01*
X153070375Y-44836906D01*
X153070371Y-44836903D01*
X152908464Y-44734748D01*
X152903581Y-44731667D01*
X152715039Y-44656446D01*
X152709379Y-44655320D01*
X152709375Y-44655319D01*
X152521613Y-44617971D01*
X152521610Y-44617971D01*
X152515946Y-44616844D01*
X152510171Y-44616768D01*
X152510167Y-44616768D01*
X152408793Y-44615441D01*
X152312971Y-44614187D01*
X152307274Y-44615166D01*
X152307273Y-44615166D01*
X152219397Y-44630266D01*
X152112910Y-44648564D01*
X151922463Y-44718824D01*
X151748010Y-44822612D01*
X151743670Y-44826418D01*
X151743666Y-44826421D01*
X151653205Y-44905754D01*
X151595392Y-44956455D01*
X151469720Y-45115869D01*
X151467031Y-45120980D01*
X151467029Y-45120983D01*
X151454073Y-45145609D01*
X151375203Y-45295515D01*
X151315007Y-45489378D01*
X151291148Y-45690964D01*
X150966564Y-45690964D01*
X150950658Y-45517859D01*
X150949090Y-45512299D01*
X150897125Y-45328046D01*
X150897124Y-45328044D01*
X150895557Y-45322487D01*
X150884978Y-45301033D01*
X150808331Y-45145609D01*
X150805776Y-45140428D01*
X150684320Y-44977779D01*
X150535258Y-44839987D01*
X150530375Y-44836906D01*
X150530371Y-44836903D01*
X150368464Y-44734748D01*
X150363581Y-44731667D01*
X150175039Y-44656446D01*
X150169379Y-44655320D01*
X150169375Y-44655319D01*
X149981613Y-44617971D01*
X149981610Y-44617971D01*
X149975946Y-44616844D01*
X149970171Y-44616768D01*
X149970167Y-44616768D01*
X149868793Y-44615441D01*
X149772971Y-44614187D01*
X149767274Y-44615166D01*
X149767273Y-44615166D01*
X149679397Y-44630266D01*
X149572910Y-44648564D01*
X149382463Y-44718824D01*
X149208010Y-44822612D01*
X149203670Y-44826418D01*
X149203666Y-44826421D01*
X149113205Y-44905754D01*
X149055392Y-44956455D01*
X148929720Y-45115869D01*
X148927031Y-45120980D01*
X148927029Y-45120983D01*
X148914073Y-45145609D01*
X148835203Y-45295515D01*
X148775007Y-45489378D01*
X148751148Y-45690964D01*
X148426564Y-45690964D01*
X148410658Y-45517859D01*
X148409090Y-45512299D01*
X148357125Y-45328046D01*
X148357124Y-45328044D01*
X148355557Y-45322487D01*
X148344978Y-45301033D01*
X148268331Y-45145609D01*
X148265776Y-45140428D01*
X148144320Y-44977779D01*
X147995258Y-44839987D01*
X147990375Y-44836906D01*
X147990371Y-44836903D01*
X147828464Y-44734748D01*
X147823581Y-44731667D01*
X147635039Y-44656446D01*
X147629379Y-44655320D01*
X147629375Y-44655319D01*
X147441613Y-44617971D01*
X147441610Y-44617971D01*
X147435946Y-44616844D01*
X147430171Y-44616768D01*
X147430167Y-44616768D01*
X147328793Y-44615441D01*
X147232971Y-44614187D01*
X147227274Y-44615166D01*
X147227273Y-44615166D01*
X147139397Y-44630266D01*
X147032910Y-44648564D01*
X146842463Y-44718824D01*
X146668010Y-44822612D01*
X146663670Y-44826418D01*
X146663666Y-44826421D01*
X146573205Y-44905754D01*
X146515392Y-44956455D01*
X146389720Y-45115869D01*
X146387031Y-45120980D01*
X146387029Y-45120983D01*
X146374073Y-45145609D01*
X146295203Y-45295515D01*
X146235007Y-45489378D01*
X146211148Y-45690964D01*
X145886564Y-45690964D01*
X145870658Y-45517859D01*
X145869090Y-45512299D01*
X145817125Y-45328046D01*
X145817124Y-45328044D01*
X145815557Y-45322487D01*
X145804978Y-45301033D01*
X145728331Y-45145609D01*
X145725776Y-45140428D01*
X145604320Y-44977779D01*
X145455258Y-44839987D01*
X145450375Y-44836906D01*
X145450371Y-44836903D01*
X145288464Y-44734748D01*
X145283581Y-44731667D01*
X145095039Y-44656446D01*
X145089379Y-44655320D01*
X145089375Y-44655319D01*
X144901613Y-44617971D01*
X144901610Y-44617971D01*
X144895946Y-44616844D01*
X144890171Y-44616768D01*
X144890167Y-44616768D01*
X144788793Y-44615441D01*
X144692971Y-44614187D01*
X144687274Y-44615166D01*
X144687273Y-44615166D01*
X144599397Y-44630266D01*
X144492910Y-44648564D01*
X144302463Y-44718824D01*
X144128010Y-44822612D01*
X144123670Y-44826418D01*
X144123666Y-44826421D01*
X144033205Y-44905754D01*
X143975392Y-44956455D01*
X143849720Y-45115869D01*
X143847031Y-45120980D01*
X143847029Y-45120983D01*
X143834073Y-45145609D01*
X143755203Y-45295515D01*
X143695007Y-45489378D01*
X143671148Y-45690964D01*
X143346564Y-45690964D01*
X143330658Y-45517859D01*
X143329090Y-45512299D01*
X143277125Y-45328046D01*
X143277124Y-45328044D01*
X143275557Y-45322487D01*
X143264978Y-45301033D01*
X143188331Y-45145609D01*
X143185776Y-45140428D01*
X143064320Y-44977779D01*
X142915258Y-44839987D01*
X142910375Y-44836906D01*
X142910371Y-44836903D01*
X142748464Y-44734748D01*
X142743581Y-44731667D01*
X142555039Y-44656446D01*
X142549379Y-44655320D01*
X142549375Y-44655319D01*
X142361613Y-44617971D01*
X142361610Y-44617971D01*
X142355946Y-44616844D01*
X142350171Y-44616768D01*
X142350167Y-44616768D01*
X142248793Y-44615441D01*
X142152971Y-44614187D01*
X142147274Y-44615166D01*
X142147273Y-44615166D01*
X142059397Y-44630266D01*
X141952910Y-44648564D01*
X141762463Y-44718824D01*
X141588010Y-44822612D01*
X141583670Y-44826418D01*
X141583666Y-44826421D01*
X141493205Y-44905754D01*
X141435392Y-44956455D01*
X141309720Y-45115869D01*
X141307031Y-45120980D01*
X141307029Y-45120983D01*
X141294073Y-45145609D01*
X141215203Y-45295515D01*
X141155007Y-45489378D01*
X141131148Y-45690964D01*
X140806564Y-45690964D01*
X140790658Y-45517859D01*
X140789090Y-45512299D01*
X140737125Y-45328046D01*
X140737124Y-45328044D01*
X140735557Y-45322487D01*
X140724978Y-45301033D01*
X140648331Y-45145609D01*
X140645776Y-45140428D01*
X140524320Y-44977779D01*
X140375258Y-44839987D01*
X140370375Y-44836906D01*
X140370371Y-44836903D01*
X140208464Y-44734748D01*
X140203581Y-44731667D01*
X140015039Y-44656446D01*
X140009379Y-44655320D01*
X140009375Y-44655319D01*
X139821613Y-44617971D01*
X139821610Y-44617971D01*
X139815946Y-44616844D01*
X139810171Y-44616768D01*
X139810167Y-44616768D01*
X139708793Y-44615441D01*
X139612971Y-44614187D01*
X139607274Y-44615166D01*
X139607273Y-44615166D01*
X139519397Y-44630266D01*
X139412910Y-44648564D01*
X139222463Y-44718824D01*
X139048010Y-44822612D01*
X139043670Y-44826418D01*
X139043666Y-44826421D01*
X138953205Y-44905754D01*
X138895392Y-44956455D01*
X138769720Y-45115869D01*
X138767031Y-45120980D01*
X138767029Y-45120983D01*
X138754073Y-45145609D01*
X138675203Y-45295515D01*
X138615007Y-45489378D01*
X138591148Y-45690964D01*
X138266564Y-45690964D01*
X138250658Y-45517859D01*
X138249090Y-45512299D01*
X138197125Y-45328046D01*
X138197124Y-45328044D01*
X138195557Y-45322487D01*
X138184978Y-45301033D01*
X138108331Y-45145609D01*
X138105776Y-45140428D01*
X137984320Y-44977779D01*
X137835258Y-44839987D01*
X137830375Y-44836906D01*
X137830371Y-44836903D01*
X137668464Y-44734748D01*
X137663581Y-44731667D01*
X137475039Y-44656446D01*
X137469379Y-44655320D01*
X137469375Y-44655319D01*
X137281613Y-44617971D01*
X137281610Y-44617971D01*
X137275946Y-44616844D01*
X137270171Y-44616768D01*
X137270167Y-44616768D01*
X137168793Y-44615441D01*
X137072971Y-44614187D01*
X137067274Y-44615166D01*
X137067273Y-44615166D01*
X136979397Y-44630266D01*
X136872910Y-44648564D01*
X136682463Y-44718824D01*
X136508010Y-44822612D01*
X136503670Y-44826418D01*
X136503666Y-44826421D01*
X136413205Y-44905754D01*
X136355392Y-44956455D01*
X136229720Y-45115869D01*
X136227031Y-45120980D01*
X136227029Y-45120983D01*
X136214073Y-45145609D01*
X136135203Y-45295515D01*
X136075007Y-45489378D01*
X136051148Y-45690964D01*
X135726564Y-45690964D01*
X135710658Y-45517859D01*
X135709090Y-45512299D01*
X135657125Y-45328046D01*
X135657124Y-45328044D01*
X135655557Y-45322487D01*
X135644978Y-45301033D01*
X135568331Y-45145609D01*
X135565776Y-45140428D01*
X135444320Y-44977779D01*
X135295258Y-44839987D01*
X135290375Y-44836906D01*
X135290371Y-44836903D01*
X135128464Y-44734748D01*
X135123581Y-44731667D01*
X134935039Y-44656446D01*
X134929379Y-44655320D01*
X134929375Y-44655319D01*
X134741613Y-44617971D01*
X134741610Y-44617971D01*
X134735946Y-44616844D01*
X134730171Y-44616768D01*
X134730167Y-44616768D01*
X134628793Y-44615441D01*
X134532971Y-44614187D01*
X134527274Y-44615166D01*
X134527273Y-44615166D01*
X134439397Y-44630266D01*
X134332910Y-44648564D01*
X134142463Y-44718824D01*
X133968010Y-44822612D01*
X133942558Y-44844933D01*
X133843578Y-44931736D01*
X133779173Y-44961613D01*
X133708841Y-44951927D01*
X133654909Y-44905754D01*
X133634500Y-44837004D01*
X133634500Y-42368920D01*
X133637049Y-42344972D01*
X133637128Y-42343307D01*
X133639320Y-42333124D01*
X133635373Y-42299777D01*
X133635023Y-42293846D01*
X133634928Y-42293854D01*
X133634500Y-42288676D01*
X133634500Y-42283476D01*
X133633646Y-42278344D01*
X133631331Y-42264435D01*
X133630494Y-42258557D01*
X133625694Y-42217999D01*
X133625694Y-42217998D01*
X133624470Y-42207659D01*
X133620507Y-42199407D01*
X133619004Y-42190374D01*
X133604325Y-42163168D01*
X133594666Y-42145268D01*
X133591969Y-42139975D01*
X133573215Y-42100918D01*
X133573212Y-42100914D01*
X133569781Y-42093768D01*
X133566186Y-42089492D01*
X133564263Y-42087569D01*
X133562491Y-42085637D01*
X133562448Y-42085558D01*
X133562572Y-42085445D01*
X133562096Y-42084905D01*
X133559010Y-42079186D01*
X133519413Y-42042583D01*
X133515848Y-42039154D01*
X133142281Y-41665587D01*
X133108255Y-41603275D01*
X133112063Y-41535991D01*
X133120795Y-41510269D01*
X133158584Y-41398945D01*
X133159412Y-41393236D01*
X133159413Y-41393231D01*
X133187179Y-41201727D01*
X133187712Y-41198053D01*
X133189232Y-41140000D01*
X133186564Y-41110964D01*
X133511148Y-41110964D01*
X133524424Y-41313522D01*
X133525845Y-41319118D01*
X133525846Y-41319123D01*
X133547508Y-41404414D01*
X133574392Y-41510269D01*
X133576809Y-41515512D01*
X133614010Y-41596208D01*
X133659377Y-41694616D01*
X133776533Y-41860389D01*
X133921938Y-42002035D01*
X134090720Y-42114812D01*
X134096023Y-42117090D01*
X134096026Y-42117092D01*
X134266596Y-42190374D01*
X134277228Y-42194942D01*
X134336196Y-42208285D01*
X134469579Y-42238467D01*
X134469584Y-42238468D01*
X134475216Y-42239742D01*
X134480987Y-42239969D01*
X134480989Y-42239969D01*
X134540756Y-42242317D01*
X134678053Y-42247712D01*
X134785348Y-42232155D01*
X134873231Y-42219413D01*
X134873236Y-42219412D01*
X134878945Y-42218584D01*
X134884409Y-42216729D01*
X134884414Y-42216728D01*
X135065693Y-42155192D01*
X135065698Y-42155190D01*
X135071165Y-42153334D01*
X135248276Y-42054147D01*
X135264179Y-42040921D01*
X135399913Y-41928031D01*
X135404345Y-41924345D01*
X135534147Y-41768276D01*
X135633334Y-41591165D01*
X135635190Y-41585698D01*
X135635192Y-41585693D01*
X135696728Y-41404414D01*
X135696729Y-41404409D01*
X135698584Y-41398945D01*
X135699412Y-41393236D01*
X135699413Y-41393231D01*
X135727179Y-41201727D01*
X135727712Y-41198053D01*
X135729232Y-41140000D01*
X135710658Y-40937859D01*
X135709090Y-40932299D01*
X135657125Y-40748046D01*
X135657124Y-40748044D01*
X135655557Y-40742487D01*
X135644978Y-40721033D01*
X135568331Y-40565609D01*
X135565776Y-40560428D01*
X135444320Y-40397779D01*
X135300609Y-40264933D01*
X136055500Y-40264933D01*
X136055501Y-42015066D01*
X136060974Y-42042584D01*
X136066849Y-42072119D01*
X136070266Y-42089301D01*
X136077161Y-42099620D01*
X136077162Y-42099622D01*
X136117516Y-42160015D01*
X136126516Y-42173484D01*
X136210699Y-42229734D01*
X136284933Y-42244500D01*
X137159858Y-42244500D01*
X138035066Y-42244499D01*
X138070818Y-42237388D01*
X138097126Y-42232156D01*
X138097128Y-42232155D01*
X138109301Y-42229734D01*
X138119621Y-42222839D01*
X138119622Y-42222838D01*
X138183168Y-42180377D01*
X138193484Y-42173484D01*
X138249734Y-42089301D01*
X138264500Y-42015067D01*
X138264499Y-40264934D01*
X138249734Y-40190699D01*
X138248905Y-40189458D01*
X138242125Y-40126387D01*
X138277028Y-40059666D01*
X146852405Y-31484289D01*
X146914717Y-31450263D01*
X146985532Y-31455328D01*
X147042368Y-31497875D01*
X147067179Y-31564395D01*
X147067500Y-31573384D01*
X147067500Y-33576936D01*
X147047498Y-33645057D01*
X147041463Y-33653640D01*
X146962645Y-33756358D01*
X146906772Y-33891246D01*
X146887715Y-34036000D01*
X146906772Y-34180754D01*
X146962645Y-34315642D01*
X147051526Y-34431474D01*
X147058076Y-34436500D01*
X147058079Y-34436503D01*
X147160804Y-34515327D01*
X147167357Y-34520355D01*
X147302246Y-34576228D01*
X147447000Y-34595285D01*
X147455188Y-34594207D01*
X147583566Y-34577306D01*
X147591754Y-34576228D01*
X147726643Y-34520355D01*
X147733196Y-34515327D01*
X147835921Y-34436503D01*
X147835924Y-34436500D01*
X147842474Y-34431474D01*
X147931355Y-34315642D01*
X147987228Y-34180754D01*
X148006285Y-34036000D01*
X147987228Y-33891246D01*
X147931355Y-33756358D01*
X147852537Y-33653640D01*
X147826937Y-33587419D01*
X147826500Y-33576936D01*
X147826500Y-30413023D01*
X147826851Y-30407449D01*
X147828713Y-30401222D01*
X147826597Y-30347365D01*
X147826500Y-30342418D01*
X147826500Y-30321476D01*
X147825647Y-30316351D01*
X147825359Y-30312859D01*
X147825029Y-30307438D01*
X147824162Y-30285384D01*
X147823753Y-30274978D01*
X147819652Y-30264377D01*
X147812871Y-30239591D01*
X147812714Y-30238646D01*
X147812713Y-30238643D01*
X147811004Y-30228374D01*
X147796105Y-30200762D01*
X147789489Y-30186412D01*
X147778168Y-30157148D01*
X147770849Y-30148441D01*
X147756413Y-30127199D01*
X147755956Y-30126351D01*
X147755953Y-30126347D01*
X147751010Y-30117186D01*
X147727975Y-30095893D01*
X147717057Y-30084448D01*
X147696873Y-30060436D01*
X147687954Y-30055066D01*
X147687949Y-30055062D01*
X147687124Y-30054566D01*
X147666589Y-30039148D01*
X147665881Y-30038493D01*
X147665879Y-30038492D01*
X147658235Y-30031426D01*
X147648712Y-30027216D01*
X147648709Y-30027214D01*
X147629549Y-30018743D01*
X147615508Y-30011450D01*
X147597558Y-30000643D01*
X147597553Y-30000641D01*
X147588635Y-29995272D01*
X147578455Y-29993080D01*
X147578454Y-29993080D01*
X147577517Y-29992878D01*
X147553083Y-29984939D01*
X147552206Y-29984551D01*
X147552205Y-29984551D01*
X147542683Y-29980341D01*
X147514242Y-29977878D01*
X147511437Y-29977635D01*
X147495788Y-29975282D01*
X147475308Y-29970872D01*
X147475304Y-29970872D01*
X147465124Y-29968680D01*
X147453829Y-29970017D01*
X147428147Y-29970421D01*
X147416813Y-29969439D01*
X147386370Y-29977002D01*
X147370811Y-29979843D01*
X147339659Y-29983530D01*
X147329402Y-29988456D01*
X147305237Y-29997155D01*
X147304531Y-29997330D01*
X147294199Y-29999897D01*
X147267841Y-30016916D01*
X147254057Y-30024635D01*
X147225768Y-30038219D01*
X147221492Y-30041814D01*
X147216784Y-30046522D01*
X147198036Y-30061664D01*
X147196811Y-30062779D01*
X147188060Y-30068429D01*
X147181613Y-30076607D01*
X147181611Y-30076609D01*
X147167271Y-30094800D01*
X147157416Y-30105890D01*
X137264711Y-39998595D01*
X137202399Y-40032621D01*
X137175616Y-40035500D01*
X136384892Y-40035501D01*
X136284934Y-40035501D01*
X136249182Y-40042612D01*
X136222874Y-40047844D01*
X136222872Y-40047845D01*
X136210699Y-40050266D01*
X136200379Y-40057161D01*
X136200378Y-40057162D01*
X136139985Y-40097516D01*
X136126516Y-40106516D01*
X136070266Y-40190699D01*
X136055500Y-40264933D01*
X135300609Y-40264933D01*
X135295258Y-40259987D01*
X135290375Y-40256906D01*
X135290371Y-40256903D01*
X135128464Y-40154748D01*
X135123581Y-40151667D01*
X134935039Y-40076446D01*
X134929379Y-40075320D01*
X134929375Y-40075319D01*
X134741613Y-40037971D01*
X134741610Y-40037971D01*
X134735946Y-40036844D01*
X134730171Y-40036768D01*
X134730167Y-40036768D01*
X134628793Y-40035441D01*
X134532971Y-40034187D01*
X134527274Y-40035166D01*
X134527273Y-40035166D01*
X134453492Y-40047844D01*
X134332910Y-40068564D01*
X134142463Y-40138824D01*
X133968010Y-40242612D01*
X133963670Y-40246418D01*
X133963666Y-40246421D01*
X133819733Y-40372648D01*
X133815392Y-40376455D01*
X133689720Y-40535869D01*
X133687031Y-40540980D01*
X133687029Y-40540983D01*
X133674073Y-40565609D01*
X133595203Y-40715515D01*
X133535007Y-40909378D01*
X133511148Y-41110964D01*
X133186564Y-41110964D01*
X133170658Y-40937859D01*
X133169090Y-40932299D01*
X133117125Y-40748046D01*
X133117124Y-40748044D01*
X133115557Y-40742487D01*
X133104978Y-40721033D01*
X133028331Y-40565609D01*
X133025776Y-40560428D01*
X132904320Y-40397779D01*
X132755258Y-40259987D01*
X132750375Y-40256906D01*
X132750371Y-40256903D01*
X132588464Y-40154748D01*
X132583581Y-40151667D01*
X132395039Y-40076446D01*
X132389379Y-40075320D01*
X132389375Y-40075319D01*
X132201613Y-40037971D01*
X132201610Y-40037971D01*
X132195946Y-40036844D01*
X132190171Y-40036768D01*
X132190167Y-40036768D01*
X132088793Y-40035441D01*
X131992971Y-40034187D01*
X131987274Y-40035166D01*
X131987273Y-40035166D01*
X131913492Y-40047844D01*
X131792910Y-40068564D01*
X131602463Y-40138824D01*
X131428010Y-40242612D01*
X131423670Y-40246418D01*
X131423666Y-40246421D01*
X131279733Y-40372648D01*
X131275392Y-40376455D01*
X131149720Y-40535869D01*
X131147031Y-40540980D01*
X131147029Y-40540983D01*
X131134073Y-40565609D01*
X131055203Y-40715515D01*
X130995007Y-40909378D01*
X130971148Y-41110964D01*
X130984424Y-41313522D01*
X130985845Y-41319118D01*
X130985846Y-41319123D01*
X131007508Y-41404414D01*
X131034392Y-41510269D01*
X131036809Y-41515512D01*
X131074010Y-41596208D01*
X131119377Y-41694616D01*
X131236533Y-41860389D01*
X131381938Y-42002035D01*
X131550720Y-42114812D01*
X131556023Y-42117090D01*
X131556026Y-42117092D01*
X131726596Y-42190374D01*
X131737228Y-42194942D01*
X131796196Y-42208285D01*
X131929579Y-42238467D01*
X131929584Y-42238468D01*
X131935216Y-42239742D01*
X131940987Y-42239969D01*
X131940989Y-42239969D01*
X132000756Y-42242317D01*
X132138053Y-42247712D01*
X132245348Y-42232155D01*
X132333231Y-42219413D01*
X132333236Y-42219412D01*
X132338945Y-42218584D01*
X132387008Y-42202269D01*
X132475991Y-42172063D01*
X132546926Y-42169107D01*
X132605587Y-42202281D01*
X132838595Y-42435289D01*
X132872621Y-42497601D01*
X132875500Y-42524384D01*
X132875500Y-44687370D01*
X132855498Y-44755491D01*
X132801842Y-44801984D01*
X132731568Y-44812088D01*
X132682265Y-44793932D01*
X132588464Y-44734748D01*
X132583581Y-44731667D01*
X132395039Y-44656446D01*
X132389379Y-44655320D01*
X132389375Y-44655319D01*
X132201613Y-44617971D01*
X132201610Y-44617971D01*
X132195946Y-44616844D01*
X132190171Y-44616768D01*
X132190167Y-44616768D01*
X132088793Y-44615441D01*
X131992971Y-44614187D01*
X131987274Y-44615166D01*
X131987273Y-44615166D01*
X131899397Y-44630266D01*
X131792910Y-44648564D01*
X131602463Y-44718824D01*
X131428010Y-44822612D01*
X131423670Y-44826418D01*
X131423666Y-44826421D01*
X131333205Y-44905754D01*
X131275392Y-44956455D01*
X131149720Y-45115869D01*
X131147031Y-45120980D01*
X131147029Y-45120983D01*
X131134073Y-45145609D01*
X131055203Y-45295515D01*
X130995007Y-45489378D01*
X130971148Y-45690964D01*
X130984424Y-45893522D01*
X130985845Y-45899118D01*
X130985846Y-45899123D01*
X131007508Y-45984414D01*
X131034392Y-46090269D01*
X131036809Y-46095512D01*
X131106412Y-46246493D01*
X131119377Y-46274616D01*
X131122710Y-46279332D01*
X131232973Y-46435351D01*
X131236533Y-46440389D01*
X131240675Y-46444424D01*
X131247278Y-46450856D01*
X131381938Y-46582035D01*
X131550720Y-46694812D01*
X131556023Y-46697090D01*
X131556026Y-46697092D01*
X131703327Y-46760377D01*
X131737228Y-46774942D01*
X131810244Y-46791464D01*
X131929579Y-46818467D01*
X131929584Y-46818468D01*
X131935216Y-46819742D01*
X131940987Y-46819969D01*
X131940989Y-46819969D01*
X132000756Y-46822317D01*
X132138053Y-46827712D01*
X132245348Y-46812155D01*
X132333231Y-46799413D01*
X132333236Y-46799412D01*
X132338945Y-46798584D01*
X132344409Y-46796729D01*
X132344414Y-46796728D01*
X132525693Y-46735192D01*
X132525698Y-46735190D01*
X132531165Y-46733334D01*
X132687934Y-46645539D01*
X132757142Y-46629705D01*
X132823924Y-46653802D01*
X132867077Y-46710179D01*
X132875500Y-46755473D01*
X132875500Y-61451196D01*
X132872951Y-61475144D01*
X132872872Y-61476809D01*
X132870680Y-61486992D01*
X132871904Y-61497333D01*
X132874627Y-61520339D01*
X132874977Y-61526270D01*
X132875072Y-61526262D01*
X132875500Y-61531440D01*
X132875500Y-61536640D01*
X132876354Y-61541769D01*
X132876354Y-61541772D01*
X132878669Y-61555681D01*
X132879506Y-61561559D01*
X132885530Y-61612457D01*
X132889493Y-61620709D01*
X132890996Y-61629742D01*
X132895943Y-61638911D01*
X132895944Y-61638913D01*
X132915334Y-61674848D01*
X132918031Y-61680141D01*
X132936785Y-61719198D01*
X132936788Y-61719202D01*
X132940219Y-61726348D01*
X132943814Y-61730624D01*
X132945737Y-61732547D01*
X132947509Y-61734479D01*
X132947552Y-61734558D01*
X132947428Y-61734671D01*
X132947904Y-61735211D01*
X132950990Y-61740930D01*
X132958635Y-61747997D01*
X132990586Y-61777532D01*
X132994152Y-61780962D01*
X139018381Y-67805191D01*
X139052407Y-67867503D01*
X139047342Y-67938318D01*
X139005990Y-67994248D01*
X138930076Y-68052499D01*
X138930072Y-68052503D01*
X138923526Y-68057526D01*
X138834645Y-68173358D01*
X138831484Y-68180988D01*
X138831484Y-68180989D01*
X138822897Y-68201719D01*
X138778348Y-68257000D01*
X138710985Y-68279421D01*
X138642194Y-68261863D01*
X138606526Y-68230205D01*
X138576505Y-68191082D01*
X138576503Y-68191080D01*
X138571474Y-68184526D01*
X138564924Y-68179500D01*
X138564921Y-68179497D01*
X138462196Y-68100673D01*
X138462194Y-68100672D01*
X138455643Y-68095645D01*
X138338779Y-68047238D01*
X138328383Y-68042932D01*
X138320754Y-68039772D01*
X138176000Y-68020715D01*
X138167812Y-68021793D01*
X138039432Y-68038694D01*
X138039430Y-68038695D01*
X138031246Y-68039772D01*
X137983430Y-68059578D01*
X137903986Y-68092485D01*
X137903984Y-68092486D01*
X137896358Y-68095645D01*
X137889805Y-68100673D01*
X137889802Y-68100675D01*
X137800175Y-68169448D01*
X137733955Y-68195049D01*
X137664406Y-68180784D01*
X137623508Y-68146190D01*
X137560501Y-68064077D01*
X137560500Y-68064076D01*
X137555474Y-68057526D01*
X137548923Y-68052499D01*
X137548921Y-68052497D01*
X137446196Y-67973673D01*
X137446194Y-67973672D01*
X137439643Y-67968645D01*
X137304754Y-67912772D01*
X137160000Y-67893715D01*
X137151812Y-67894793D01*
X137023432Y-67911694D01*
X137023430Y-67911695D01*
X137015246Y-67912772D01*
X136989419Y-67923470D01*
X136887986Y-67965485D01*
X136887984Y-67965486D01*
X136880358Y-67968645D01*
X136764526Y-68057526D01*
X136675645Y-68173358D01*
X136672486Y-68180984D01*
X136672485Y-68180986D01*
X136648596Y-68238660D01*
X136619772Y-68308246D01*
X136618695Y-68316430D01*
X136618694Y-68316432D01*
X136604953Y-68420807D01*
X136600715Y-68453000D01*
X136601793Y-68461188D01*
X136618513Y-68588188D01*
X136619772Y-68597754D01*
X136622931Y-68605380D01*
X136672378Y-68724754D01*
X136675645Y-68732642D01*
X136680672Y-68739193D01*
X136754463Y-68835360D01*
X136780063Y-68901581D01*
X136780500Y-68912064D01*
X136780500Y-73408757D01*
X136770910Y-73456973D01*
X136746772Y-73515246D01*
X136727715Y-73660000D01*
X136728793Y-73668188D01*
X136736651Y-73727873D01*
X136746772Y-73804754D01*
X136802645Y-73939642D01*
X136891526Y-74055474D01*
X136898076Y-74060500D01*
X136898079Y-74060503D01*
X136993166Y-74133466D01*
X137007357Y-74144355D01*
X137142246Y-74200228D01*
X137287000Y-74219285D01*
X137295188Y-74218207D01*
X137300293Y-74217535D01*
X137431754Y-74200228D01*
X137566643Y-74144355D01*
X137566837Y-74144823D01*
X137630381Y-74129405D01*
X137697474Y-74152623D01*
X137739930Y-74209529D01*
X137740466Y-74209271D01*
X137740472Y-74209283D01*
X137744435Y-74217535D01*
X137745938Y-74226568D01*
X137750885Y-74235737D01*
X137750886Y-74235739D01*
X137770276Y-74271674D01*
X137772973Y-74276967D01*
X137791727Y-74316024D01*
X137791730Y-74316028D01*
X137795161Y-74323174D01*
X137798756Y-74327450D01*
X137800679Y-74329373D01*
X137802451Y-74331305D01*
X137802494Y-74331384D01*
X137802370Y-74331497D01*
X137802846Y-74332037D01*
X137805932Y-74337756D01*
X137813577Y-74344823D01*
X137845514Y-74374345D01*
X137849081Y-74377775D01*
X138250527Y-74779222D01*
X138265659Y-74797959D01*
X138266780Y-74799191D01*
X138272429Y-74807940D01*
X138280607Y-74814387D01*
X138298799Y-74828728D01*
X138303241Y-74832676D01*
X138303303Y-74832603D01*
X138307268Y-74835963D01*
X138310943Y-74839638D01*
X138315165Y-74842655D01*
X138315171Y-74842660D01*
X138326650Y-74850862D01*
X138331399Y-74854428D01*
X138371647Y-74886156D01*
X138380284Y-74889189D01*
X138387734Y-74894513D01*
X138397710Y-74897497D01*
X138397711Y-74897497D01*
X138413046Y-74902083D01*
X138436849Y-74909202D01*
X138442486Y-74911034D01*
X138483367Y-74925390D01*
X138490851Y-74928018D01*
X138496416Y-74928500D01*
X138499124Y-74928500D01*
X138501758Y-74928614D01*
X138501856Y-74928643D01*
X138501849Y-74928807D01*
X138502553Y-74928851D01*
X138508778Y-74930713D01*
X138562635Y-74928597D01*
X138567582Y-74928500D01*
X141014616Y-74928500D01*
X141082737Y-74948502D01*
X141103711Y-74965405D01*
X143711522Y-77573216D01*
X143726664Y-77591964D01*
X143727779Y-77593189D01*
X143733429Y-77601940D01*
X143741607Y-77608387D01*
X143741609Y-77608389D01*
X143759800Y-77622729D01*
X143764241Y-77626675D01*
X143764303Y-77626602D01*
X143768267Y-77629961D01*
X143771944Y-77633638D01*
X143787692Y-77644892D01*
X143792362Y-77648398D01*
X143832647Y-77680156D01*
X143841281Y-77683188D01*
X143848734Y-77688514D01*
X143897850Y-77703203D01*
X143903492Y-77705036D01*
X143904808Y-77705498D01*
X143951851Y-77722018D01*
X143957416Y-77722500D01*
X143960124Y-77722500D01*
X143962758Y-77722614D01*
X143962856Y-77722643D01*
X143962849Y-77722807D01*
X143963553Y-77722851D01*
X143969778Y-77724713D01*
X144023635Y-77722597D01*
X144028582Y-77722500D01*
X144066938Y-77722500D01*
X144135059Y-77742502D01*
X144143626Y-77748526D01*
X144246357Y-77827355D01*
X144381246Y-77883228D01*
X144526000Y-77902285D01*
X144534188Y-77901207D01*
X144662566Y-77884306D01*
X144670754Y-77883228D01*
X144805643Y-77827355D01*
X144812196Y-77822327D01*
X144914921Y-77743503D01*
X144914924Y-77743500D01*
X144921474Y-77738474D01*
X144931060Y-77725982D01*
X144993308Y-77644858D01*
X145010355Y-77622642D01*
X145023063Y-77591964D01*
X145063069Y-77495380D01*
X145066228Y-77487754D01*
X145085285Y-77343000D01*
X145066228Y-77198246D01*
X145010355Y-77063358D01*
X144921474Y-76947526D01*
X144914924Y-76942500D01*
X144914921Y-76942497D01*
X144812196Y-76863673D01*
X144812194Y-76863672D01*
X144805643Y-76858645D01*
X144670754Y-76802772D01*
X144526000Y-76783715D01*
X144517812Y-76784793D01*
X144389432Y-76801694D01*
X144389430Y-76801695D01*
X144381246Y-76802772D01*
X144246358Y-76858645D01*
X144234422Y-76867804D01*
X144168201Y-76893402D01*
X144098652Y-76879134D01*
X144068627Y-76856933D01*
X141530478Y-74318784D01*
X141515336Y-74300036D01*
X141514221Y-74298811D01*
X141508571Y-74290060D01*
X141500393Y-74283613D01*
X141500391Y-74283611D01*
X141482200Y-74269271D01*
X141477759Y-74265325D01*
X141477697Y-74265398D01*
X141473733Y-74262039D01*
X141470056Y-74258362D01*
X141454308Y-74247108D01*
X141449638Y-74243602D01*
X141409353Y-74211844D01*
X141400719Y-74208812D01*
X141393266Y-74203486D01*
X141344150Y-74188797D01*
X141338508Y-74186964D01*
X141297633Y-74172610D01*
X141297632Y-74172610D01*
X141290149Y-74169982D01*
X141284584Y-74169500D01*
X141281876Y-74169500D01*
X141279242Y-74169386D01*
X141279144Y-74169357D01*
X141279151Y-74169193D01*
X141278447Y-74169149D01*
X141272222Y-74167287D01*
X141218365Y-74169403D01*
X141213418Y-74169500D01*
X139882482Y-74169500D01*
X139814361Y-74149498D01*
X139767868Y-74095842D01*
X139757764Y-74025568D01*
X139782519Y-73966796D01*
X139798328Y-73946193D01*
X139803355Y-73939642D01*
X139859228Y-73804754D01*
X139869350Y-73727873D01*
X139877207Y-73668188D01*
X139878285Y-73660000D01*
X139859228Y-73515246D01*
X139825500Y-73433820D01*
X139806515Y-73387986D01*
X139806514Y-73387984D01*
X139803355Y-73380358D01*
X139724537Y-73277640D01*
X139698937Y-73211419D01*
X139698500Y-73200936D01*
X139698500Y-68912064D01*
X139718502Y-68843943D01*
X139724537Y-68835360D01*
X139777751Y-68766010D01*
X139835089Y-68724143D01*
X139905960Y-68719921D01*
X139966809Y-68753619D01*
X142331595Y-71118405D01*
X142365621Y-71180717D01*
X142368500Y-71207500D01*
X142368500Y-72006964D01*
X142365951Y-72030912D01*
X142365872Y-72032577D01*
X142363680Y-72042760D01*
X142364904Y-72053101D01*
X142367627Y-72076107D01*
X142367977Y-72082038D01*
X142368072Y-72082030D01*
X142368500Y-72087208D01*
X142368500Y-72092408D01*
X142369354Y-72097537D01*
X142369354Y-72097540D01*
X142371669Y-72111449D01*
X142372506Y-72117327D01*
X142378530Y-72168225D01*
X142382493Y-72176477D01*
X142383996Y-72185510D01*
X142388943Y-72194679D01*
X142388944Y-72194681D01*
X142408334Y-72230616D01*
X142411031Y-72235909D01*
X142429785Y-72274966D01*
X142429788Y-72274970D01*
X142433219Y-72282116D01*
X142436814Y-72286392D01*
X142438737Y-72288315D01*
X142440509Y-72290247D01*
X142440552Y-72290326D01*
X142440428Y-72290439D01*
X142440904Y-72290979D01*
X142443990Y-72296698D01*
X142451635Y-72303765D01*
X142483586Y-72333300D01*
X142487152Y-72336730D01*
X146014595Y-75864173D01*
X146048621Y-75926485D01*
X146051500Y-75953268D01*
X146051500Y-79292616D01*
X146031498Y-79360737D01*
X146014595Y-79381711D01*
X145167711Y-80228595D01*
X145105399Y-80262621D01*
X145078616Y-80265500D01*
X143207062Y-80265500D01*
X143138941Y-80245498D01*
X143130374Y-80239474D01*
X143027643Y-80160645D01*
X142892754Y-80104772D01*
X142748000Y-80085715D01*
X142739812Y-80086793D01*
X142611432Y-80103694D01*
X142611430Y-80103695D01*
X142603246Y-80104772D01*
X142594664Y-80108327D01*
X142475986Y-80157485D01*
X142475984Y-80157486D01*
X142468358Y-80160645D01*
X142352526Y-80249526D01*
X142263645Y-80365358D01*
X142207772Y-80500246D01*
X142188715Y-80645000D01*
X142189793Y-80653188D01*
X142200464Y-80734240D01*
X142207772Y-80789754D01*
X142210931Y-80797380D01*
X142246336Y-80882854D01*
X142263645Y-80924642D01*
X142268672Y-80931193D01*
X142284481Y-80951796D01*
X142310081Y-81018016D01*
X142295816Y-81087565D01*
X142246215Y-81138361D01*
X142184518Y-81154500D01*
X132289384Y-81154500D01*
X132221263Y-81134498D01*
X132200289Y-81117595D01*
X129497954Y-78415260D01*
X129463928Y-78352948D01*
X129462127Y-78342611D01*
X129461948Y-78341246D01*
X129445228Y-78214246D01*
X129396695Y-78097077D01*
X129392515Y-78086986D01*
X129392514Y-78086984D01*
X129389355Y-78079358D01*
X129300474Y-77963526D01*
X129293924Y-77958500D01*
X129293921Y-77958497D01*
X129191196Y-77879673D01*
X129191194Y-77879672D01*
X129184643Y-77874645D01*
X129049754Y-77818772D01*
X129016257Y-77814362D01*
X128931031Y-77803142D01*
X128905000Y-77799715D01*
X128881255Y-77802841D01*
X128768432Y-77817694D01*
X128768430Y-77817695D01*
X128760246Y-77818772D01*
X128739525Y-77827355D01*
X128632986Y-77871485D01*
X128632984Y-77871486D01*
X128625358Y-77874645D01*
X128509526Y-77963526D01*
X128420645Y-78079358D01*
X128417486Y-78086984D01*
X128417485Y-78086986D01*
X128413305Y-78097077D01*
X128364772Y-78214246D01*
X128345715Y-78359000D01*
X125383566Y-78359000D01*
X125382306Y-78349432D01*
X125382305Y-78349430D01*
X125381228Y-78341246D01*
X125332013Y-78222432D01*
X125328515Y-78213986D01*
X125328514Y-78213984D01*
X125325355Y-78206358D01*
X125236474Y-78090526D01*
X125229924Y-78085500D01*
X125229921Y-78085497D01*
X125127196Y-78006673D01*
X125127194Y-78006672D01*
X125120643Y-78001645D01*
X124985754Y-77945772D01*
X124841000Y-77926715D01*
X124832812Y-77927793D01*
X124704432Y-77944694D01*
X124704430Y-77944695D01*
X124696246Y-77945772D01*
X124648430Y-77965578D01*
X124568986Y-77998485D01*
X124568984Y-77998486D01*
X124561358Y-78001645D01*
X124445526Y-78090526D01*
X124356645Y-78206358D01*
X124353486Y-78213984D01*
X124353485Y-78213986D01*
X124349987Y-78222432D01*
X124300772Y-78341246D01*
X124299695Y-78349430D01*
X124299694Y-78349432D01*
X124291028Y-78415260D01*
X124281715Y-78486000D01*
X124300772Y-78630754D01*
X124307214Y-78646306D01*
X124346024Y-78740000D01*
X124356645Y-78765642D01*
X124361672Y-78772193D01*
X124445188Y-78881034D01*
X124470788Y-78947255D01*
X124456523Y-79016803D01*
X124406922Y-79067599D01*
X124361671Y-79082660D01*
X124323432Y-79087694D01*
X124323430Y-79087695D01*
X124315246Y-79088772D01*
X124307619Y-79091931D01*
X124307620Y-79091931D01*
X124187986Y-79141485D01*
X124187984Y-79141486D01*
X124180358Y-79144645D01*
X124096270Y-79209168D01*
X124083031Y-79219327D01*
X124064526Y-79233526D01*
X123975645Y-79349358D01*
X123972486Y-79356984D01*
X123972485Y-79356986D01*
X123970551Y-79361656D01*
X123919772Y-79484246D01*
X123918695Y-79492430D01*
X123918694Y-79492432D01*
X123917159Y-79504093D01*
X123900715Y-79629000D01*
X96774500Y-79629000D01*
X96774500Y-68834000D01*
X132155715Y-68834000D01*
X132156793Y-68842188D01*
X132173478Y-68968923D01*
X132174772Y-68978754D01*
X132183799Y-69000546D01*
X132222110Y-69093036D01*
X132230645Y-69113642D01*
X132250322Y-69139285D01*
X132309463Y-69216360D01*
X132335063Y-69282581D01*
X132335500Y-69293064D01*
X132335500Y-72209080D01*
X132332951Y-72233028D01*
X132332872Y-72234693D01*
X132330680Y-72244876D01*
X132334627Y-72278223D01*
X132334977Y-72284154D01*
X132335072Y-72284146D01*
X132335500Y-72289324D01*
X132335500Y-72294524D01*
X132336354Y-72299653D01*
X132336354Y-72299656D01*
X132338669Y-72313565D01*
X132339506Y-72319443D01*
X132345530Y-72370341D01*
X132349493Y-72378593D01*
X132350996Y-72387626D01*
X132355943Y-72396795D01*
X132355944Y-72396797D01*
X132375334Y-72432732D01*
X132378031Y-72438025D01*
X132396785Y-72477082D01*
X132396788Y-72477086D01*
X132400219Y-72484232D01*
X132403814Y-72488508D01*
X132405737Y-72490431D01*
X132407509Y-72492363D01*
X132407552Y-72492442D01*
X132407428Y-72492555D01*
X132407904Y-72493095D01*
X132410990Y-72498814D01*
X132418635Y-72505881D01*
X132450586Y-72535416D01*
X132454152Y-72538846D01*
X134144046Y-74228740D01*
X134178072Y-74291052D01*
X134179871Y-74301380D01*
X134196772Y-74429754D01*
X134252645Y-74564642D01*
X134341526Y-74680474D01*
X134348076Y-74685500D01*
X134348079Y-74685503D01*
X134450804Y-74764327D01*
X134457357Y-74769355D01*
X134592246Y-74825228D01*
X134737000Y-74844285D01*
X134745188Y-74843207D01*
X134873566Y-74826306D01*
X134881754Y-74825228D01*
X135016643Y-74769355D01*
X135023196Y-74764327D01*
X135125921Y-74685503D01*
X135125924Y-74685500D01*
X135132474Y-74680474D01*
X135221355Y-74564642D01*
X135277228Y-74429754D01*
X135284717Y-74372873D01*
X135295517Y-74290834D01*
X135324239Y-74225907D01*
X135383504Y-74186815D01*
X135454496Y-74185970D01*
X135468659Y-74190872D01*
X135483616Y-74197068D01*
X135483619Y-74197069D01*
X135491246Y-74200228D01*
X135636000Y-74219285D01*
X135644188Y-74218207D01*
X135649293Y-74217535D01*
X135780754Y-74200228D01*
X135915643Y-74144355D01*
X135929834Y-74133466D01*
X136024921Y-74060503D01*
X136024924Y-74060500D01*
X136031474Y-74055474D01*
X136120355Y-73939642D01*
X136176228Y-73804754D01*
X136186350Y-73727873D01*
X136194207Y-73668188D01*
X136195285Y-73660000D01*
X136176228Y-73515246D01*
X136142500Y-73433820D01*
X136123515Y-73387986D01*
X136123514Y-73387984D01*
X136120355Y-73380358D01*
X136031474Y-73264526D01*
X136024924Y-73259500D01*
X136024921Y-73259497D01*
X135922196Y-73180673D01*
X135922194Y-73180672D01*
X135915643Y-73175645D01*
X135791468Y-73124210D01*
X135788383Y-73122932D01*
X135780754Y-73119772D01*
X135652388Y-73102872D01*
X135587462Y-73074151D01*
X135579740Y-73067046D01*
X135163405Y-72650711D01*
X135129379Y-72588399D01*
X135126500Y-72561616D01*
X135126500Y-69166064D01*
X135146502Y-69097943D01*
X135152537Y-69089360D01*
X135202852Y-69023788D01*
X135231355Y-68986642D01*
X135234623Y-68978754D01*
X135281247Y-68866193D01*
X135287228Y-68851754D01*
X135288488Y-68842188D01*
X135305207Y-68715188D01*
X135306285Y-68707000D01*
X135302944Y-68681620D01*
X135288306Y-68570432D01*
X135288305Y-68570430D01*
X135287228Y-68562246D01*
X135245368Y-68461188D01*
X135234515Y-68434986D01*
X135234514Y-68434984D01*
X135231355Y-68427358D01*
X135186915Y-68369442D01*
X135147501Y-68318077D01*
X135147500Y-68318076D01*
X135142474Y-68311526D01*
X135135924Y-68306500D01*
X135135921Y-68306497D01*
X135033196Y-68227673D01*
X135033194Y-68227672D01*
X135026643Y-68222645D01*
X134891754Y-68166772D01*
X134747000Y-68147715D01*
X134738812Y-68148793D01*
X134610432Y-68165694D01*
X134610430Y-68165695D01*
X134602246Y-68166772D01*
X134558964Y-68184700D01*
X134474986Y-68219485D01*
X134474984Y-68219486D01*
X134467358Y-68222645D01*
X134351526Y-68311526D01*
X134346503Y-68318072D01*
X134341625Y-68324429D01*
X134262645Y-68427358D01*
X134259486Y-68434984D01*
X134259485Y-68434986D01*
X134248632Y-68461188D01*
X134206772Y-68562246D01*
X134205695Y-68570430D01*
X134205694Y-68570432D01*
X134191056Y-68681620D01*
X134187715Y-68707000D01*
X134188793Y-68715188D01*
X134205513Y-68842188D01*
X134206772Y-68851754D01*
X134212753Y-68866193D01*
X134259378Y-68978754D01*
X134262645Y-68986642D01*
X134291148Y-69023788D01*
X134341463Y-69089360D01*
X134367063Y-69155581D01*
X134367500Y-69166064D01*
X134367500Y-72717080D01*
X134364951Y-72741028D01*
X134364872Y-72742693D01*
X134362680Y-72752876D01*
X134366627Y-72786223D01*
X134366977Y-72792154D01*
X134367072Y-72792146D01*
X134367500Y-72797324D01*
X134367500Y-72802524D01*
X134368354Y-72807653D01*
X134368354Y-72807656D01*
X134370669Y-72821565D01*
X134371506Y-72827443D01*
X134377530Y-72878341D01*
X134381493Y-72886593D01*
X134382996Y-72895626D01*
X134387943Y-72904795D01*
X134387944Y-72904797D01*
X134407334Y-72940732D01*
X134410031Y-72946025D01*
X134428785Y-72985082D01*
X134428788Y-72985086D01*
X134432219Y-72992232D01*
X134435814Y-72996508D01*
X134437737Y-72998431D01*
X134439509Y-73000363D01*
X134439552Y-73000442D01*
X134439428Y-73000555D01*
X134439904Y-73001095D01*
X134442990Y-73006814D01*
X134450635Y-73013881D01*
X134482586Y-73043416D01*
X134486152Y-73046846D01*
X134967448Y-73528142D01*
X135001474Y-73590454D01*
X134996409Y-73661269D01*
X134953862Y-73718105D01*
X134887342Y-73742916D01*
X134861907Y-73742159D01*
X134834849Y-73738597D01*
X134753388Y-73727872D01*
X134688462Y-73699151D01*
X134680740Y-73692046D01*
X133131405Y-72142711D01*
X133097379Y-72080399D01*
X133094500Y-72053616D01*
X133094500Y-69293064D01*
X133114502Y-69224943D01*
X133120537Y-69216360D01*
X133179678Y-69139285D01*
X133199355Y-69113642D01*
X133207891Y-69093036D01*
X133246201Y-69000546D01*
X133255228Y-68978754D01*
X133256523Y-68968923D01*
X133273207Y-68842188D01*
X133274285Y-68834000D01*
X133263703Y-68753619D01*
X133256306Y-68697432D01*
X133256305Y-68697430D01*
X133255228Y-68689246D01*
X133220489Y-68605380D01*
X133202515Y-68561986D01*
X133202514Y-68561984D01*
X133199355Y-68554358D01*
X133110474Y-68438526D01*
X133103924Y-68433500D01*
X133103921Y-68433497D01*
X133001196Y-68354673D01*
X133001194Y-68354672D01*
X132994643Y-68349645D01*
X132877779Y-68301238D01*
X132867383Y-68296932D01*
X132859754Y-68293772D01*
X132804077Y-68286442D01*
X132723188Y-68275793D01*
X132715000Y-68274715D01*
X132706812Y-68275793D01*
X132578432Y-68292694D01*
X132578430Y-68292695D01*
X132570246Y-68293772D01*
X132522430Y-68313578D01*
X132442986Y-68346485D01*
X132442984Y-68346486D01*
X132435358Y-68349645D01*
X132319526Y-68438526D01*
X132230645Y-68554358D01*
X132227486Y-68561984D01*
X132227485Y-68561986D01*
X132209511Y-68605380D01*
X132174772Y-68689246D01*
X132173695Y-68697430D01*
X132173694Y-68697432D01*
X132166297Y-68753619D01*
X132155715Y-68834000D01*
X96774500Y-68834000D01*
X96774500Y-58293000D01*
X106755715Y-58293000D01*
X106774772Y-58437754D01*
X106830645Y-58572642D01*
X106919526Y-58688474D01*
X106926076Y-58693500D01*
X106926079Y-58693503D01*
X107028804Y-58772327D01*
X107035357Y-58777355D01*
X107170246Y-58833228D01*
X107298612Y-58850128D01*
X107363538Y-58878849D01*
X107371260Y-58885954D01*
X116269522Y-67784216D01*
X116284664Y-67802964D01*
X116285779Y-67804189D01*
X116291429Y-67812940D01*
X116299607Y-67819387D01*
X116299609Y-67819389D01*
X116317800Y-67833729D01*
X116322241Y-67837675D01*
X116322303Y-67837602D01*
X116326267Y-67840961D01*
X116329944Y-67844638D01*
X116345692Y-67855892D01*
X116350362Y-67859398D01*
X116390647Y-67891156D01*
X116399281Y-67894188D01*
X116406734Y-67899514D01*
X116455850Y-67914203D01*
X116461492Y-67916036D01*
X116502199Y-67930331D01*
X116509851Y-67933018D01*
X116515416Y-67933500D01*
X116518124Y-67933500D01*
X116520758Y-67933614D01*
X116520856Y-67933643D01*
X116520849Y-67933807D01*
X116521553Y-67933851D01*
X116527778Y-67935713D01*
X116581635Y-67933597D01*
X116586582Y-67933500D01*
X127331964Y-67933500D01*
X127355912Y-67936049D01*
X127357577Y-67936128D01*
X127367760Y-67938320D01*
X127378101Y-67937096D01*
X127401107Y-67934373D01*
X127407038Y-67934023D01*
X127407030Y-67933928D01*
X127412208Y-67933500D01*
X127417408Y-67933500D01*
X127422537Y-67932646D01*
X127422540Y-67932646D01*
X127436449Y-67930331D01*
X127442327Y-67929494D01*
X127482885Y-67924694D01*
X127482886Y-67924694D01*
X127493225Y-67923470D01*
X127501477Y-67919507D01*
X127510510Y-67918004D01*
X127519679Y-67913057D01*
X127519681Y-67913056D01*
X127555616Y-67893666D01*
X127560909Y-67890969D01*
X127599966Y-67872215D01*
X127599970Y-67872212D01*
X127607116Y-67868781D01*
X127611392Y-67865186D01*
X127613315Y-67863263D01*
X127615247Y-67861491D01*
X127615326Y-67861448D01*
X127615439Y-67861572D01*
X127615979Y-67861096D01*
X127621698Y-67858010D01*
X127658301Y-67818413D01*
X127661730Y-67814848D01*
X127982216Y-67494362D01*
X128000964Y-67479220D01*
X128002189Y-67478105D01*
X128010940Y-67472455D01*
X128017387Y-67464277D01*
X128017389Y-67464275D01*
X128031729Y-67446084D01*
X128035678Y-67441640D01*
X128035604Y-67441578D01*
X128038957Y-67437621D01*
X128042638Y-67433940D01*
X128053865Y-67418230D01*
X128057421Y-67413493D01*
X128082708Y-67381416D01*
X128089156Y-67373237D01*
X128092189Y-67364600D01*
X128097513Y-67357150D01*
X128112202Y-67308035D01*
X128114034Y-67302398D01*
X128128390Y-67261517D01*
X128128390Y-67261516D01*
X128131018Y-67254033D01*
X128131500Y-67248468D01*
X128131500Y-67245760D01*
X128131614Y-67243126D01*
X128131643Y-67243028D01*
X128131807Y-67243035D01*
X128131851Y-67242331D01*
X128133713Y-67236106D01*
X128131597Y-67182249D01*
X128131500Y-67177302D01*
X128131500Y-46525925D01*
X128134050Y-46501967D01*
X128134128Y-46500308D01*
X128136321Y-46490124D01*
X128135097Y-46479782D01*
X128135097Y-46479779D01*
X128132374Y-46456779D01*
X128132024Y-46450848D01*
X128131928Y-46450856D01*
X128131500Y-46445680D01*
X128131500Y-46440476D01*
X128128327Y-46421412D01*
X128127496Y-46415566D01*
X128122694Y-46375001D01*
X128121470Y-46364659D01*
X128117507Y-46356407D01*
X128116004Y-46347374D01*
X128091665Y-46302266D01*
X128088969Y-46296975D01*
X128070215Y-46257919D01*
X128070214Y-46257918D01*
X128066781Y-46250768D01*
X128063187Y-46246493D01*
X128061262Y-46244568D01*
X128059491Y-46242638D01*
X128059445Y-46242553D01*
X128059568Y-46242441D01*
X128059096Y-46241906D01*
X128056010Y-46236186D01*
X128051059Y-46231609D01*
X128025903Y-46167511D01*
X128032098Y-46115889D01*
X128078584Y-45978945D01*
X128079412Y-45973236D01*
X128079413Y-45973231D01*
X128107179Y-45781727D01*
X128107712Y-45778053D01*
X128109232Y-45720000D01*
X128106564Y-45690964D01*
X128431148Y-45690964D01*
X128444424Y-45893522D01*
X128445845Y-45899118D01*
X128445846Y-45899123D01*
X128467508Y-45984414D01*
X128494392Y-46090269D01*
X128496809Y-46095512D01*
X128566412Y-46246493D01*
X128579377Y-46274616D01*
X128582710Y-46279332D01*
X128692973Y-46435351D01*
X128696533Y-46440389D01*
X128700675Y-46444424D01*
X128707278Y-46450856D01*
X128841938Y-46582035D01*
X129010720Y-46694812D01*
X129016023Y-46697090D01*
X129016026Y-46697092D01*
X129163327Y-46760377D01*
X129197228Y-46774942D01*
X129270244Y-46791464D01*
X129389579Y-46818467D01*
X129389584Y-46818468D01*
X129395216Y-46819742D01*
X129400987Y-46819969D01*
X129400989Y-46819969D01*
X129460756Y-46822317D01*
X129598053Y-46827712D01*
X129705348Y-46812155D01*
X129793231Y-46799413D01*
X129793236Y-46799412D01*
X129798945Y-46798584D01*
X129804409Y-46796729D01*
X129804414Y-46796728D01*
X129985693Y-46735192D01*
X129985698Y-46735190D01*
X129991165Y-46733334D01*
X130168276Y-46634147D01*
X130207969Y-46601135D01*
X130319913Y-46508031D01*
X130324345Y-46504345D01*
X130348172Y-46475696D01*
X130450453Y-46352718D01*
X130450455Y-46352715D01*
X130454147Y-46348276D01*
X130553334Y-46171165D01*
X130555190Y-46165698D01*
X130555192Y-46165693D01*
X130616728Y-45984414D01*
X130616729Y-45984409D01*
X130618584Y-45978945D01*
X130619412Y-45973236D01*
X130619413Y-45973231D01*
X130647179Y-45781727D01*
X130647712Y-45778053D01*
X130649232Y-45720000D01*
X130630658Y-45517859D01*
X130629090Y-45512299D01*
X130577125Y-45328046D01*
X130577124Y-45328044D01*
X130575557Y-45322487D01*
X130564978Y-45301033D01*
X130488331Y-45145609D01*
X130485776Y-45140428D01*
X130364320Y-44977779D01*
X130215258Y-44839987D01*
X130210375Y-44836906D01*
X130210371Y-44836903D01*
X130048464Y-44734748D01*
X130043581Y-44731667D01*
X129855039Y-44656446D01*
X129849379Y-44655320D01*
X129849375Y-44655319D01*
X129661613Y-44617971D01*
X129661610Y-44617971D01*
X129655946Y-44616844D01*
X129650171Y-44616768D01*
X129650167Y-44616768D01*
X129548793Y-44615441D01*
X129452971Y-44614187D01*
X129447274Y-44615166D01*
X129447273Y-44615166D01*
X129359397Y-44630266D01*
X129252910Y-44648564D01*
X129062463Y-44718824D01*
X128888010Y-44822612D01*
X128883670Y-44826418D01*
X128883666Y-44826421D01*
X128793205Y-44905754D01*
X128735392Y-44956455D01*
X128609720Y-45115869D01*
X128607031Y-45120980D01*
X128607029Y-45120983D01*
X128594073Y-45145609D01*
X128515203Y-45295515D01*
X128455007Y-45489378D01*
X128431148Y-45690964D01*
X128106564Y-45690964D01*
X128090658Y-45517859D01*
X128089090Y-45512299D01*
X128037125Y-45328046D01*
X128037124Y-45328044D01*
X128035557Y-45322487D01*
X128024978Y-45301033D01*
X127948331Y-45145609D01*
X127945776Y-45140428D01*
X127824320Y-44977779D01*
X127675258Y-44839987D01*
X127670375Y-44836906D01*
X127670371Y-44836903D01*
X127508464Y-44734748D01*
X127503581Y-44731667D01*
X127315039Y-44656446D01*
X127309379Y-44655320D01*
X127309375Y-44655319D01*
X127121613Y-44617971D01*
X127121610Y-44617971D01*
X127115946Y-44616844D01*
X127110171Y-44616768D01*
X127110167Y-44616768D01*
X127008793Y-44615441D01*
X126912971Y-44614187D01*
X126907274Y-44615166D01*
X126907273Y-44615166D01*
X126819397Y-44630266D01*
X126712910Y-44648564D01*
X126522463Y-44718824D01*
X126348010Y-44822612D01*
X126343670Y-44826418D01*
X126343666Y-44826421D01*
X126253205Y-44905754D01*
X126195392Y-44956455D01*
X126069720Y-45115869D01*
X126067031Y-45120980D01*
X126067029Y-45120983D01*
X126054073Y-45145609D01*
X125975203Y-45295515D01*
X125915007Y-45489378D01*
X125891148Y-45690964D01*
X125904424Y-45893522D01*
X125905845Y-45899118D01*
X125905846Y-45899123D01*
X125927508Y-45984414D01*
X125954392Y-46090269D01*
X125956809Y-46095512D01*
X126026412Y-46246493D01*
X126039377Y-46274616D01*
X126042710Y-46279332D01*
X126152973Y-46435351D01*
X126156533Y-46440389D01*
X126160675Y-46444424D01*
X126167278Y-46450856D01*
X126301938Y-46582035D01*
X126470720Y-46694812D01*
X126476023Y-46697090D01*
X126476026Y-46697092D01*
X126623327Y-46760377D01*
X126657228Y-46774942D01*
X126730244Y-46791464D01*
X126849579Y-46818467D01*
X126849584Y-46818468D01*
X126855216Y-46819742D01*
X126860987Y-46819969D01*
X126860989Y-46819969D01*
X126920756Y-46822317D01*
X127058053Y-46827712D01*
X127206360Y-46806209D01*
X127228420Y-46803010D01*
X127298706Y-46813030D01*
X127352417Y-46859459D01*
X127372500Y-46927706D01*
X127372500Y-66258360D01*
X127352498Y-66326481D01*
X127298842Y-66372974D01*
X127230055Y-66383282D01*
X127182920Y-66377077D01*
X127143389Y-66371873D01*
X127078462Y-66343151D01*
X127070740Y-66336046D01*
X117336231Y-56601537D01*
X117302205Y-56539225D01*
X117307270Y-56468410D01*
X117336231Y-56423347D01*
X117568216Y-56191362D01*
X117586964Y-56176220D01*
X117588189Y-56175105D01*
X117596940Y-56169455D01*
X117603387Y-56161277D01*
X117603389Y-56161275D01*
X117617729Y-56143084D01*
X117621678Y-56138640D01*
X117621604Y-56138578D01*
X117624957Y-56134621D01*
X117628638Y-56130940D01*
X117639865Y-56115230D01*
X117643421Y-56110493D01*
X117668708Y-56078416D01*
X117675156Y-56070237D01*
X117678189Y-56061600D01*
X117683513Y-56054150D01*
X117698202Y-56005035D01*
X117700034Y-55999398D01*
X117714390Y-55958517D01*
X117714390Y-55958516D01*
X117717018Y-55951033D01*
X117717500Y-55945468D01*
X117717500Y-55942760D01*
X117717614Y-55940126D01*
X117717643Y-55940028D01*
X117717807Y-55940035D01*
X117717851Y-55939331D01*
X117719713Y-55933106D01*
X117717597Y-55879249D01*
X117717500Y-55874302D01*
X117717500Y-51351920D01*
X117720049Y-51327973D01*
X117720128Y-51326307D01*
X117722320Y-51316124D01*
X117721096Y-51305782D01*
X117721096Y-51305779D01*
X117718374Y-51282787D01*
X117718023Y-51276846D01*
X117717928Y-51276854D01*
X117717500Y-51271674D01*
X117717500Y-51266476D01*
X117714329Y-51247424D01*
X117713492Y-51241547D01*
X117708693Y-51200997D01*
X117708692Y-51200995D01*
X117707469Y-51190659D01*
X117703508Y-51182410D01*
X117702004Y-51173374D01*
X117697056Y-51164203D01*
X117677652Y-51128240D01*
X117674957Y-51122951D01*
X117656212Y-51083915D01*
X117652780Y-51076768D01*
X117649186Y-51072492D01*
X117647246Y-51070552D01*
X117645493Y-51068641D01*
X117645444Y-51068551D01*
X117645567Y-51068439D01*
X117645095Y-51067904D01*
X117642010Y-51062186D01*
X117602413Y-51025583D01*
X117598848Y-51022154D01*
X117432954Y-50856260D01*
X117398928Y-50793948D01*
X117397127Y-50783611D01*
X117381306Y-50663432D01*
X117381305Y-50663430D01*
X117380228Y-50655246D01*
X117324355Y-50520358D01*
X117235474Y-50404526D01*
X117228924Y-50399500D01*
X117228921Y-50399497D01*
X117126196Y-50320673D01*
X117126194Y-50320672D01*
X117119643Y-50315645D01*
X116984754Y-50259772D01*
X116840000Y-50240715D01*
X116831812Y-50241793D01*
X116703432Y-50258694D01*
X116703430Y-50258695D01*
X116695246Y-50259772D01*
X116647430Y-50279578D01*
X116567986Y-50312485D01*
X116567984Y-50312486D01*
X116560358Y-50315645D01*
X116444526Y-50404526D01*
X116355645Y-50520358D01*
X116299772Y-50655246D01*
X116280715Y-50800000D01*
X116299772Y-50944754D01*
X116302931Y-50952380D01*
X116351005Y-51068439D01*
X116355645Y-51079642D01*
X116360672Y-51086193D01*
X116436682Y-51185251D01*
X116444526Y-51195474D01*
X116451076Y-51200500D01*
X116451079Y-51200503D01*
X116553804Y-51279327D01*
X116560357Y-51284355D01*
X116695246Y-51340228D01*
X116823612Y-51357128D01*
X116888538Y-51385849D01*
X116896260Y-51392954D01*
X116921595Y-51418289D01*
X116955621Y-51480601D01*
X116958500Y-51507384D01*
X116958500Y-55655616D01*
X116938498Y-55723737D01*
X116884842Y-55770230D01*
X116814568Y-55780334D01*
X116749988Y-55750840D01*
X116743405Y-55744711D01*
X114204478Y-53205784D01*
X114189336Y-53187036D01*
X114188221Y-53185811D01*
X114182571Y-53177060D01*
X114174393Y-53170613D01*
X114174391Y-53170611D01*
X114156200Y-53156271D01*
X114151759Y-53152325D01*
X114151697Y-53152398D01*
X114147733Y-53149039D01*
X114144056Y-53145362D01*
X114128308Y-53134108D01*
X114123638Y-53130602D01*
X114083353Y-53098844D01*
X114074719Y-53095812D01*
X114067266Y-53090486D01*
X114018150Y-53075797D01*
X114012508Y-53073964D01*
X113971633Y-53059610D01*
X113971632Y-53059610D01*
X113964149Y-53056982D01*
X113958584Y-53056500D01*
X113955876Y-53056500D01*
X113953242Y-53056386D01*
X113953144Y-53056357D01*
X113953151Y-53056193D01*
X113952447Y-53056149D01*
X113946222Y-53054287D01*
X113892365Y-53056403D01*
X113887418Y-53056500D01*
X109075062Y-53056500D01*
X109006941Y-53036498D01*
X108998374Y-53030474D01*
X108895643Y-52951645D01*
X108760754Y-52895772D01*
X108616000Y-52876715D01*
X108607812Y-52877793D01*
X108479432Y-52894694D01*
X108479430Y-52894695D01*
X108471246Y-52895772D01*
X108423430Y-52915578D01*
X108343986Y-52948485D01*
X108343984Y-52948486D01*
X108336358Y-52951645D01*
X108220526Y-53040526D01*
X108131645Y-53156358D01*
X108128486Y-53163984D01*
X108128485Y-53163986D01*
X108115100Y-53196300D01*
X108075772Y-53291246D01*
X108056715Y-53436000D01*
X108075772Y-53580754D01*
X108131645Y-53715642D01*
X108220526Y-53831474D01*
X108227076Y-53836500D01*
X108227079Y-53836503D01*
X108329804Y-53915327D01*
X108336357Y-53920355D01*
X108471246Y-53976228D01*
X108616000Y-53995285D01*
X108624188Y-53994207D01*
X108752566Y-53977306D01*
X108760754Y-53976228D01*
X108895643Y-53920355D01*
X108998360Y-53841537D01*
X109064578Y-53815937D01*
X109075062Y-53815500D01*
X113688616Y-53815500D01*
X113756737Y-53835502D01*
X113777711Y-53852405D01*
X116296595Y-56371289D01*
X116330621Y-56433601D01*
X116333500Y-56460384D01*
X116333500Y-56461080D01*
X116330951Y-56485028D01*
X116330872Y-56486693D01*
X116328680Y-56496876D01*
X116329904Y-56507217D01*
X116332627Y-56530223D01*
X116332977Y-56536154D01*
X116333072Y-56536146D01*
X116333500Y-56541324D01*
X116333500Y-56546524D01*
X116334354Y-56551653D01*
X116334354Y-56551656D01*
X116336669Y-56565565D01*
X116337506Y-56571443D01*
X116343530Y-56622341D01*
X116347493Y-56630593D01*
X116348996Y-56639626D01*
X116353943Y-56648795D01*
X116353944Y-56648797D01*
X116373334Y-56684732D01*
X116376031Y-56690025D01*
X116394785Y-56729082D01*
X116394788Y-56729086D01*
X116398219Y-56736232D01*
X116401814Y-56740508D01*
X116403737Y-56742431D01*
X116405509Y-56744363D01*
X116405552Y-56744442D01*
X116405428Y-56744555D01*
X116405904Y-56745095D01*
X116408990Y-56750814D01*
X116416635Y-56757881D01*
X116448586Y-56787416D01*
X116452152Y-56790846D01*
X126534046Y-66872740D01*
X126568072Y-66935052D01*
X126569873Y-66945390D01*
X126581282Y-67032055D01*
X126570342Y-67102203D01*
X126523214Y-67155302D01*
X126456360Y-67174500D01*
X116785385Y-67174500D01*
X116717264Y-67154498D01*
X116696290Y-67137595D01*
X107907954Y-58349260D01*
X107873928Y-58286948D01*
X107872127Y-58276611D01*
X107856306Y-58156432D01*
X107856305Y-58156430D01*
X107855228Y-58148246D01*
X107799355Y-58013358D01*
X107710474Y-57897526D01*
X107703924Y-57892500D01*
X107703921Y-57892497D01*
X107601196Y-57813673D01*
X107601194Y-57813672D01*
X107594643Y-57808645D01*
X107459754Y-57752772D01*
X107315000Y-57733715D01*
X107306812Y-57734793D01*
X107178432Y-57751694D01*
X107178430Y-57751695D01*
X107170246Y-57752772D01*
X107122430Y-57772578D01*
X107042986Y-57805485D01*
X107042984Y-57805486D01*
X107035358Y-57808645D01*
X106919526Y-57897526D01*
X106830645Y-58013358D01*
X106774772Y-58148246D01*
X106755715Y-58293000D01*
X96774500Y-58293000D01*
X96774500Y-32512000D01*
X140537715Y-32512000D01*
X140556772Y-32656754D01*
X140612645Y-32791642D01*
X140701526Y-32907474D01*
X140708076Y-32912500D01*
X140708079Y-32912503D01*
X140810804Y-32991327D01*
X140817357Y-32996355D01*
X140952246Y-33052228D01*
X141097000Y-33071285D01*
X141105188Y-33070207D01*
X141233566Y-33053306D01*
X141241754Y-33052228D01*
X141376643Y-32996355D01*
X141383196Y-32991327D01*
X141485921Y-32912503D01*
X141485924Y-32912500D01*
X141492474Y-32907474D01*
X141581355Y-32791642D01*
X141637228Y-32656754D01*
X141656285Y-32512000D01*
X141653963Y-32494361D01*
X141658169Y-32441810D01*
X141662703Y-32426651D01*
X141664536Y-32421010D01*
X141678891Y-32380132D01*
X141678892Y-32380126D01*
X141681518Y-32372649D01*
X141682000Y-32367084D01*
X141682000Y-32364376D01*
X141682114Y-32361742D01*
X141682143Y-32361644D01*
X141682307Y-32361651D01*
X141682351Y-32360947D01*
X141684213Y-32354722D01*
X141682097Y-32300865D01*
X141682000Y-32295918D01*
X141682000Y-25399564D01*
X141702002Y-25331443D01*
X141708037Y-25322860D01*
X141781828Y-25226693D01*
X141786855Y-25220142D01*
X141842728Y-25085254D01*
X141861785Y-24940500D01*
X141842728Y-24795746D01*
X141786855Y-24660858D01*
X141715228Y-24567512D01*
X141703001Y-24551577D01*
X141703000Y-24551576D01*
X141697974Y-24545026D01*
X141691424Y-24540000D01*
X141691421Y-24539997D01*
X141588696Y-24461173D01*
X141588694Y-24461172D01*
X141582143Y-24456145D01*
X141447254Y-24400272D01*
X141302500Y-24381215D01*
X141294312Y-24382293D01*
X141165932Y-24399194D01*
X141165930Y-24399195D01*
X141157746Y-24400272D01*
X141109930Y-24420078D01*
X141030486Y-24452985D01*
X141030484Y-24452986D01*
X141022858Y-24456145D01*
X140907026Y-24545026D01*
X140818145Y-24660858D01*
X140762272Y-24795746D01*
X140743215Y-24940500D01*
X140762272Y-25085254D01*
X140818145Y-25220142D01*
X140823172Y-25226693D01*
X140896963Y-25322860D01*
X140922563Y-25389081D01*
X140923000Y-25399564D01*
X140923000Y-31899695D01*
X140902998Y-31967816D01*
X140845220Y-32016103D01*
X140824991Y-32024483D01*
X140824989Y-32024484D01*
X140817358Y-32027645D01*
X140701526Y-32116526D01*
X140612645Y-32232358D01*
X140556772Y-32367246D01*
X140555695Y-32375430D01*
X140555694Y-32375432D01*
X140543555Y-32467638D01*
X140537715Y-32512000D01*
X96774500Y-32512000D01*
X96774500Y-29065145D01*
X113391391Y-29065145D01*
X113421420Y-29214071D01*
X113425320Y-29221725D01*
X113486492Y-29341783D01*
X113486494Y-29341786D01*
X113490392Y-29349436D01*
X113496205Y-29355757D01*
X113496206Y-29355759D01*
X113553951Y-29418555D01*
X113593226Y-29461266D01*
X113600521Y-29465789D01*
X113600522Y-29465790D01*
X113715044Y-29536797D01*
X113722344Y-29541323D01*
X113868235Y-29583709D01*
X113879007Y-29584500D01*
X113988057Y-29584500D01*
X113992303Y-29583918D01*
X113992309Y-29583918D01*
X114071054Y-29573131D01*
X114100518Y-29569095D01*
X114159158Y-29543719D01*
X114232064Y-29512169D01*
X114232065Y-29512169D01*
X114239946Y-29508758D01*
X114287909Y-29469919D01*
X114351339Y-29418555D01*
X114351341Y-29418553D01*
X114358013Y-29413150D01*
X114446020Y-29289313D01*
X114497482Y-29146371D01*
X114503447Y-29065145D01*
X119171391Y-29065145D01*
X119201420Y-29214071D01*
X119205320Y-29221725D01*
X119266492Y-29341783D01*
X119266494Y-29341786D01*
X119270392Y-29349436D01*
X119276205Y-29355757D01*
X119276206Y-29355759D01*
X119333951Y-29418555D01*
X119373226Y-29461266D01*
X119380521Y-29465789D01*
X119380522Y-29465790D01*
X119495044Y-29536797D01*
X119502344Y-29541323D01*
X119648235Y-29583709D01*
X119659007Y-29584500D01*
X119768057Y-29584500D01*
X119772303Y-29583918D01*
X119772309Y-29583918D01*
X119851054Y-29573131D01*
X119880518Y-29569095D01*
X119939158Y-29543719D01*
X120012064Y-29512169D01*
X120012065Y-29512169D01*
X120019946Y-29508758D01*
X120067909Y-29469919D01*
X120131339Y-29418555D01*
X120131341Y-29418553D01*
X120138013Y-29413150D01*
X120226020Y-29289313D01*
X120277482Y-29146371D01*
X120288609Y-28994855D01*
X120258580Y-28845929D01*
X120224361Y-28778770D01*
X120193508Y-28718217D01*
X120193506Y-28718214D01*
X120189608Y-28710564D01*
X120137457Y-28653850D01*
X120092584Y-28605052D01*
X120092583Y-28605051D01*
X120086774Y-28598734D01*
X120018894Y-28556646D01*
X119964956Y-28523203D01*
X119964955Y-28523202D01*
X119957656Y-28518677D01*
X119811765Y-28476291D01*
X119800993Y-28475500D01*
X119691943Y-28475500D01*
X119687697Y-28476082D01*
X119687691Y-28476082D01*
X119608946Y-28486869D01*
X119579482Y-28490905D01*
X119571598Y-28494317D01*
X119571597Y-28494317D01*
X119515306Y-28518677D01*
X119440054Y-28551242D01*
X119433381Y-28556646D01*
X119328661Y-28641445D01*
X119328659Y-28641447D01*
X119321987Y-28646850D01*
X119233980Y-28770687D01*
X119182518Y-28913629D01*
X119171391Y-29065145D01*
X114503447Y-29065145D01*
X114508609Y-28994855D01*
X114478580Y-28845929D01*
X114444361Y-28778770D01*
X114413508Y-28718217D01*
X114413506Y-28718214D01*
X114409608Y-28710564D01*
X114357457Y-28653850D01*
X114312584Y-28605052D01*
X114312583Y-28605051D01*
X114306774Y-28598734D01*
X114238894Y-28556646D01*
X114184956Y-28523203D01*
X114184955Y-28523202D01*
X114177656Y-28518677D01*
X114031765Y-28476291D01*
X114020993Y-28475500D01*
X113911943Y-28475500D01*
X113907697Y-28476082D01*
X113907691Y-28476082D01*
X113828946Y-28486869D01*
X113799482Y-28490905D01*
X113791598Y-28494317D01*
X113791597Y-28494317D01*
X113735306Y-28518677D01*
X113660054Y-28551242D01*
X113653381Y-28556646D01*
X113548661Y-28641445D01*
X113548659Y-28641447D01*
X113541987Y-28646850D01*
X113453980Y-28770687D01*
X113402518Y-28913629D01*
X113391391Y-29065145D01*
X96774500Y-29065145D01*
X96774500Y-25437476D01*
X96776921Y-25412894D01*
X96777065Y-25412170D01*
X96779486Y-25400000D01*
X96777065Y-25387830D01*
X96777065Y-25377401D01*
X96776060Y-25364265D01*
X96792622Y-24984926D01*
X96793580Y-24973976D01*
X96815967Y-24803932D01*
X96847093Y-24567504D01*
X96848999Y-24556699D01*
X96937736Y-24156434D01*
X96940579Y-24145823D01*
X97063857Y-23754833D01*
X97067616Y-23744504D01*
X97224509Y-23365732D01*
X97229155Y-23355770D01*
X97418452Y-22992133D01*
X97423948Y-22982613D01*
X97644223Y-22636852D01*
X97650527Y-22627848D01*
X97900108Y-22302587D01*
X97907174Y-22294167D01*
X98184143Y-21991908D01*
X98191912Y-21984139D01*
X98410379Y-21783952D01*
X98494170Y-21707172D01*
X98502587Y-21700108D01*
X98827848Y-21450527D01*
X98836852Y-21444223D01*
X99182613Y-21223948D01*
X99192133Y-21218452D01*
X99253069Y-21186731D01*
X99555779Y-21029151D01*
X99565723Y-21024513D01*
X99944512Y-20867613D01*
X99954825Y-20863860D01*
X100345824Y-20740579D01*
X100356434Y-20737736D01*
X100756699Y-20648999D01*
X100767504Y-20647093D01*
X101173977Y-20593580D01*
X101184925Y-20592622D01*
X101241400Y-20590156D01*
X101564265Y-20576060D01*
X101577401Y-20577065D01*
X101587830Y-20577065D01*
X101600000Y-20579486D01*
X101612897Y-20576921D01*
X101637476Y-20574500D01*
X198082524Y-20574500D01*
X198107103Y-20576921D01*
G37*
%TD.AperFunction*%
%TD*%
M02*
