%TF.GenerationSoftware,KiCad,Pcbnew,(6.0.7)*%
%TF.CreationDate,2022-10-07T16:54:50+08:00*%
%TF.ProjectId,__,5c1a2e6b-6963-4616-945f-706362585858,rev?*%
%TF.SameCoordinates,Original*%
%TF.FileFunction,Paste,Top*%
%TF.FilePolarity,Positive*%
%FSLAX46Y46*%
G04 Gerber Fmt 4.6, Leading zero omitted, Abs format (unit mm)*
G04 Created by KiCad (PCBNEW (6.0.7)) date 2022-10-07 16:54:50*
%MOMM*%
%LPD*%
G01*
G04 APERTURE LIST*
G04 Aperture macros list*
%AMRoundRect*
0 Rectangle with rounded corners*
0 $1 Rounding radius*
0 $2 $3 $4 $5 $6 $7 $8 $9 X,Y pos of 4 corners*
0 Add a 4 corners polygon primitive as box body*
4,1,4,$2,$3,$4,$5,$6,$7,$8,$9,$2,$3,0*
0 Add four circle primitives for the rounded corners*
1,1,$1+$1,$2,$3*
1,1,$1+$1,$4,$5*
1,1,$1+$1,$6,$7*
1,1,$1+$1,$8,$9*
0 Add four rect primitives between the rounded corners*
20,1,$1+$1,$2,$3,$4,$5,0*
20,1,$1+$1,$4,$5,$6,$7,0*
20,1,$1+$1,$6,$7,$8,$9,0*
20,1,$1+$1,$8,$9,$2,$3,0*%
G04 Aperture macros list end*
%ADD10RoundRect,0.150000X0.150000X-0.825000X0.150000X0.825000X-0.150000X0.825000X-0.150000X-0.825000X0*%
%ADD11RoundRect,0.225000X0.250000X-0.225000X0.250000X0.225000X-0.250000X0.225000X-0.250000X-0.225000X0*%
%ADD12RoundRect,0.200000X-0.200000X-0.275000X0.200000X-0.275000X0.200000X0.275000X-0.200000X0.275000X0*%
%ADD13R,1.560000X0.650000*%
%ADD14RoundRect,0.218750X0.218750X0.256250X-0.218750X0.256250X-0.218750X-0.256250X0.218750X-0.256250X0*%
%ADD15RoundRect,0.225000X0.225000X0.250000X-0.225000X0.250000X-0.225000X-0.250000X0.225000X-0.250000X0*%
%ADD16R,0.650000X1.220000*%
%ADD17R,0.600000X1.160000*%
%ADD18R,0.300000X1.160000*%
%ADD19RoundRect,0.200000X0.275000X-0.200000X0.275000X0.200000X-0.275000X0.200000X-0.275000X-0.200000X0*%
%ADD20RoundRect,0.150000X-0.587500X-0.150000X0.587500X-0.150000X0.587500X0.150000X-0.587500X0.150000X0*%
%ADD21R,1.400000X1.200000*%
%ADD22RoundRect,0.075000X0.662500X0.075000X-0.662500X0.075000X-0.662500X-0.075000X0.662500X-0.075000X0*%
%ADD23RoundRect,0.075000X0.075000X0.662500X-0.075000X0.662500X-0.075000X-0.662500X0.075000X-0.662500X0*%
%ADD24RoundRect,0.225000X-0.225000X-0.250000X0.225000X-0.250000X0.225000X0.250000X-0.225000X0.250000X0*%
%ADD25RoundRect,0.225000X-0.250000X0.225000X-0.250000X-0.225000X0.250000X-0.225000X0.250000X0.225000X0*%
%ADD26R,1.220000X0.650000*%
%ADD27R,1.400000X0.300000*%
%ADD28RoundRect,0.150000X-0.150000X-0.700000X0.150000X-0.700000X0.150000X0.700000X-0.150000X0.700000X0*%
%ADD29RoundRect,0.250000X-0.250000X-1.100000X0.250000X-1.100000X0.250000X1.100000X-0.250000X1.100000X0*%
%ADD30RoundRect,0.150000X0.150000X-0.587500X0.150000X0.587500X-0.150000X0.587500X-0.150000X-0.587500X0*%
%ADD31RoundRect,0.150000X-0.675000X-0.150000X0.675000X-0.150000X0.675000X0.150000X-0.675000X0.150000X0*%
G04 APERTURE END LIST*
D10*
%TO.C,U2*%
X104775000Y-58355000D03*
X106045000Y-58355000D03*
X107315000Y-58355000D03*
X108585000Y-58355000D03*
X108585000Y-53405000D03*
X107315000Y-53405000D03*
X106045000Y-53405000D03*
X104775000Y-53405000D03*
%TD*%
D11*
%TO.C,C9*%
X111760000Y-92215000D03*
X111760000Y-90665000D03*
%TD*%
D12*
%TO.C,R3*%
X105855000Y-50800000D03*
X107505000Y-50800000D03*
%TD*%
D13*
%TO.C,U1*%
X141050000Y-28890000D03*
X141050000Y-27940000D03*
X141050000Y-26990000D03*
X138350000Y-26990000D03*
X138350000Y-28890000D03*
%TD*%
D14*
%TO.C,D2*%
X132867500Y-127000000D03*
X131292500Y-127000000D03*
%TD*%
D15*
%TO.C,C14*%
X178575000Y-86360000D03*
X177025000Y-86360000D03*
%TD*%
D11*
%TO.C,C3*%
X147320000Y-28715000D03*
X147320000Y-27165000D03*
%TD*%
D16*
%TO.C,SW3*%
X158430000Y-125690000D03*
X156530000Y-125690000D03*
X157480000Y-128310000D03*
%TD*%
D17*
%TO.C,J1*%
X113640000Y-27970000D03*
X114440000Y-27970000D03*
D18*
X115590000Y-27970000D03*
X116590000Y-27970000D03*
X117090000Y-27970000D03*
X118090000Y-27970000D03*
D17*
X119240000Y-27970000D03*
X120040000Y-27970000D03*
X120040000Y-27970000D03*
X119240000Y-27970000D03*
D18*
X118590000Y-27970000D03*
X117590000Y-27970000D03*
X116090000Y-27970000D03*
X115090000Y-27970000D03*
D17*
X114440000Y-27970000D03*
X113640000Y-27970000D03*
%TD*%
D19*
%TO.C,R4*%
X127000000Y-66865000D03*
X127000000Y-65215000D03*
%TD*%
D20*
%TO.C,R10*%
X131142500Y-120970000D03*
X131142500Y-122870000D03*
X133017500Y-121920000D03*
%TD*%
D11*
%TO.C,C4*%
X154165000Y-28715000D03*
X154165000Y-27165000D03*
%TD*%
D20*
%TO.C,R1*%
X141302500Y-34610000D03*
X141302500Y-36510000D03*
X143177500Y-35560000D03*
%TD*%
D11*
%TO.C,C11*%
X111760000Y-82055000D03*
X111760000Y-80505000D03*
%TD*%
D21*
%TO.C,Y1*%
X178900000Y-80430000D03*
X176700000Y-80430000D03*
X176700000Y-82130000D03*
X178900000Y-82130000D03*
%TD*%
D14*
%TO.C,D3*%
X137947500Y-127000000D03*
X136372500Y-127000000D03*
%TD*%
D15*
%TO.C,C16*%
X153175000Y-132080000D03*
X151625000Y-132080000D03*
%TD*%
D22*
%TO.C,U4*%
X151482500Y-78950000D03*
X151482500Y-78450000D03*
X151482500Y-77950000D03*
X151482500Y-77450000D03*
X151482500Y-76950000D03*
X151482500Y-76450000D03*
X151482500Y-75950000D03*
X151482500Y-75450000D03*
X151482500Y-74950000D03*
X151482500Y-74450000D03*
X151482500Y-73950000D03*
X151482500Y-73450000D03*
D23*
X150070000Y-72037500D03*
X149570000Y-72037500D03*
X149070000Y-72037500D03*
X148570000Y-72037500D03*
X148070000Y-72037500D03*
X147570000Y-72037500D03*
X147070000Y-72037500D03*
X146570000Y-72037500D03*
X146070000Y-72037500D03*
X145570000Y-72037500D03*
X145070000Y-72037500D03*
X144570000Y-72037500D03*
D22*
X143157500Y-73450000D03*
X143157500Y-73950000D03*
X143157500Y-74450000D03*
X143157500Y-74950000D03*
X143157500Y-75450000D03*
X143157500Y-75950000D03*
X143157500Y-76450000D03*
X143157500Y-76950000D03*
X143157500Y-77450000D03*
X143157500Y-77950000D03*
X143157500Y-78450000D03*
X143157500Y-78950000D03*
D23*
X144570000Y-80362500D03*
X145070000Y-80362500D03*
X145570000Y-80362500D03*
X146070000Y-80362500D03*
X146570000Y-80362500D03*
X147070000Y-80362500D03*
X147570000Y-80362500D03*
X148070000Y-80362500D03*
X148570000Y-80362500D03*
X149070000Y-80362500D03*
X149570000Y-80362500D03*
X150070000Y-80362500D03*
%TD*%
D24*
%TO.C,C17*%
X156705000Y-132080000D03*
X158255000Y-132080000D03*
%TD*%
%TO.C,C13*%
X126225000Y-76200000D03*
X127775000Y-76200000D03*
%TD*%
D25*
%TO.C,C2*%
X132855000Y-27165000D03*
X132855000Y-28715000D03*
%TD*%
D11*
%TO.C,C8*%
X111760000Y-97295000D03*
X111760000Y-95745000D03*
%TD*%
D25*
%TO.C,C5*%
X106680000Y-60747320D03*
X106680000Y-62297320D03*
%TD*%
D16*
%TO.C,Q1*%
X146370000Y-36870000D03*
X148270000Y-36870000D03*
X147320000Y-34250000D03*
%TD*%
%TO.C,SW4*%
X163510000Y-125690000D03*
X161610000Y-125690000D03*
X162560000Y-128310000D03*
%TD*%
D26*
%TO.C,SW1*%
X120824000Y-75250000D03*
X120824000Y-77150000D03*
X123444000Y-76200000D03*
%TD*%
D16*
%TO.C,SW2*%
X151450000Y-128310000D03*
X153350000Y-128310000D03*
X152400000Y-125690000D03*
%TD*%
D25*
%TO.C,C12*%
X111760000Y-75425000D03*
X111760000Y-76975000D03*
%TD*%
D27*
%TO.C,U3*%
X114640000Y-44720000D03*
X114640000Y-45220000D03*
X114640000Y-45720000D03*
X114640000Y-46220000D03*
X114640000Y-46720000D03*
X119040000Y-46720000D03*
X119040000Y-46220000D03*
X119040000Y-45720000D03*
X119040000Y-45220000D03*
X119040000Y-44720000D03*
%TD*%
D28*
%TO.C,J3*%
X106055000Y-43870000D03*
X107305000Y-43870000D03*
D29*
X104205000Y-47070000D03*
X109155000Y-47070000D03*
%TD*%
D11*
%TO.C,C10*%
X111760000Y-87135000D03*
X111760000Y-85585000D03*
%TD*%
D30*
%TO.C,R7*%
X156530000Y-122857500D03*
X158430000Y-122857500D03*
X157480000Y-120982500D03*
%TD*%
D25*
%TO.C,C1*%
X127000000Y-27165000D03*
X127000000Y-28715000D03*
%TD*%
D31*
%TO.C,U5*%
X185320000Y-64135000D03*
X185320000Y-65405000D03*
X185320000Y-66675000D03*
X185320000Y-67945000D03*
X190570000Y-67945000D03*
X190570000Y-66675000D03*
X190570000Y-65405000D03*
X190570000Y-64135000D03*
%TD*%
D30*
%TO.C,R6*%
X151450000Y-122857500D03*
X153350000Y-122857500D03*
X152400000Y-120982500D03*
%TD*%
D24*
%TO.C,C18*%
X161785000Y-132080000D03*
X163335000Y-132080000D03*
%TD*%
%TO.C,C15*%
X182105000Y-86360000D03*
X183655000Y-86360000D03*
%TD*%
D11*
%TO.C,C19*%
X177785000Y-66815000D03*
X177785000Y-65265000D03*
%TD*%
D12*
%TO.C,R5*%
X131255000Y-76200000D03*
X132905000Y-76200000D03*
%TD*%
D25*
%TO.C,C6*%
X106680000Y-65265000D03*
X106680000Y-66815000D03*
%TD*%
D15*
%TO.C,C7*%
X116840000Y-50800000D03*
X115290000Y-50800000D03*
%TD*%
D20*
%TO.C,R9*%
X126062500Y-120970000D03*
X126062500Y-122870000D03*
X127937500Y-121920000D03*
%TD*%
D12*
%TO.C,R2*%
X151575000Y-35560000D03*
X153225000Y-35560000D03*
%TD*%
D30*
%TO.C,R8*%
X161610000Y-122857500D03*
X163510000Y-122857500D03*
X162560000Y-120982500D03*
%TD*%
D20*
%TO.C,R11*%
X136222500Y-120970000D03*
X136222500Y-122870000D03*
X138097500Y-121920000D03*
%TD*%
D14*
%TO.C,D1*%
X127787500Y-127000000D03*
X126212500Y-127000000D03*
%TD*%
M02*
