%TF.GenerationSoftware,KiCad,Pcbnew,(6.0.7)*%
%TF.CreationDate,2022-10-07T16:54:50+08:00*%
%TF.ProjectId,__,5c1a2e6b-6963-4616-945f-706362585858,rev?*%
%TF.SameCoordinates,Original*%
%TF.FileFunction,Legend,Top*%
%TF.FilePolarity,Positive*%
%FSLAX46Y46*%
G04 Gerber Fmt 4.6, Leading zero omitted, Abs format (unit mm)*
G04 Created by KiCad (PCBNEW (6.0.7)) date 2022-10-07 16:54:50*
%MOMM*%
%LPD*%
G01*
G04 APERTURE LIST*
%ADD10C,0.150000*%
%ADD11C,0.120000*%
G04 APERTURE END LIST*
D10*
%TO.C,U2*%
X102732380Y-56641904D02*
X103541904Y-56641904D01*
X103637142Y-56594285D01*
X103684761Y-56546666D01*
X103732380Y-56451428D01*
X103732380Y-56260952D01*
X103684761Y-56165714D01*
X103637142Y-56118095D01*
X103541904Y-56070476D01*
X102732380Y-56070476D01*
X102827619Y-55641904D02*
X102780000Y-55594285D01*
X102732380Y-55499047D01*
X102732380Y-55260952D01*
X102780000Y-55165714D01*
X102827619Y-55118095D01*
X102922857Y-55070476D01*
X103018095Y-55070476D01*
X103160952Y-55118095D01*
X103732380Y-55689523D01*
X103732380Y-55070476D01*
%TO.C,C9*%
X110687142Y-91606666D02*
X110734761Y-91654285D01*
X110782380Y-91797142D01*
X110782380Y-91892380D01*
X110734761Y-92035238D01*
X110639523Y-92130476D01*
X110544285Y-92178095D01*
X110353809Y-92225714D01*
X110210952Y-92225714D01*
X110020476Y-92178095D01*
X109925238Y-92130476D01*
X109830000Y-92035238D01*
X109782380Y-91892380D01*
X109782380Y-91797142D01*
X109830000Y-91654285D01*
X109877619Y-91606666D01*
X110782380Y-91130476D02*
X110782380Y-90940000D01*
X110734761Y-90844761D01*
X110687142Y-90797142D01*
X110544285Y-90701904D01*
X110353809Y-90654285D01*
X109972857Y-90654285D01*
X109877619Y-90701904D01*
X109830000Y-90749523D01*
X109782380Y-90844761D01*
X109782380Y-91035238D01*
X109830000Y-91130476D01*
X109877619Y-91178095D01*
X109972857Y-91225714D01*
X110210952Y-91225714D01*
X110306190Y-91178095D01*
X110353809Y-91130476D01*
X110401428Y-91035238D01*
X110401428Y-90844761D01*
X110353809Y-90749523D01*
X110306190Y-90701904D01*
X110210952Y-90654285D01*
%TO.C,R3*%
X106513333Y-49822380D02*
X106180000Y-49346190D01*
X105941904Y-49822380D02*
X105941904Y-48822380D01*
X106322857Y-48822380D01*
X106418095Y-48870000D01*
X106465714Y-48917619D01*
X106513333Y-49012857D01*
X106513333Y-49155714D01*
X106465714Y-49250952D01*
X106418095Y-49298571D01*
X106322857Y-49346190D01*
X105941904Y-49346190D01*
X106846666Y-48822380D02*
X107465714Y-48822380D01*
X107132380Y-49203333D01*
X107275238Y-49203333D01*
X107370476Y-49250952D01*
X107418095Y-49298571D01*
X107465714Y-49393809D01*
X107465714Y-49631904D01*
X107418095Y-49727142D01*
X107370476Y-49774761D01*
X107275238Y-49822380D01*
X106989523Y-49822380D01*
X106894285Y-49774761D01*
X106846666Y-49727142D01*
%TO.C,U1*%
X138938095Y-30292380D02*
X138938095Y-31101904D01*
X138985714Y-31197142D01*
X139033333Y-31244761D01*
X139128571Y-31292380D01*
X139319047Y-31292380D01*
X139414285Y-31244761D01*
X139461904Y-31197142D01*
X139509523Y-31101904D01*
X139509523Y-30292380D01*
X140509523Y-31292380D02*
X139938095Y-31292380D01*
X140223809Y-31292380D02*
X140223809Y-30292380D01*
X140128571Y-30435238D01*
X140033333Y-30530476D01*
X139938095Y-30578095D01*
%TO.C,D2*%
X131341904Y-128882380D02*
X131341904Y-127882380D01*
X131580000Y-127882380D01*
X131722857Y-127930000D01*
X131818095Y-128025238D01*
X131865714Y-128120476D01*
X131913333Y-128310952D01*
X131913333Y-128453809D01*
X131865714Y-128644285D01*
X131818095Y-128739523D01*
X131722857Y-128834761D01*
X131580000Y-128882380D01*
X131341904Y-128882380D01*
X132294285Y-127977619D02*
X132341904Y-127930000D01*
X132437142Y-127882380D01*
X132675238Y-127882380D01*
X132770476Y-127930000D01*
X132818095Y-127977619D01*
X132865714Y-128072857D01*
X132865714Y-128168095D01*
X132818095Y-128310952D01*
X132246666Y-128882380D01*
X132865714Y-128882380D01*
%TO.C,C14*%
X177016562Y-86207142D02*
X176968943Y-86254761D01*
X176826086Y-86302380D01*
X176730848Y-86302380D01*
X176587991Y-86254761D01*
X176492753Y-86159523D01*
X176445134Y-86064285D01*
X176397515Y-85873809D01*
X176397515Y-85730952D01*
X176445134Y-85540476D01*
X176492753Y-85445238D01*
X176587991Y-85350000D01*
X176730848Y-85302380D01*
X176826086Y-85302380D01*
X176968943Y-85350000D01*
X177016562Y-85397619D01*
X177968943Y-86302380D02*
X177397515Y-86302380D01*
X177683229Y-86302380D02*
X177683229Y-85302380D01*
X177587991Y-85445238D01*
X177492753Y-85540476D01*
X177397515Y-85588095D01*
X178826086Y-85635714D02*
X178826086Y-86302380D01*
X178587991Y-85254761D02*
X178349896Y-85969047D01*
X178968943Y-85969047D01*
%TO.C,C3*%
X146247142Y-28106666D02*
X146294761Y-28154285D01*
X146342380Y-28297142D01*
X146342380Y-28392380D01*
X146294761Y-28535238D01*
X146199523Y-28630476D01*
X146104285Y-28678095D01*
X145913809Y-28725714D01*
X145770952Y-28725714D01*
X145580476Y-28678095D01*
X145485238Y-28630476D01*
X145390000Y-28535238D01*
X145342380Y-28392380D01*
X145342380Y-28297142D01*
X145390000Y-28154285D01*
X145437619Y-28106666D01*
X145342380Y-27773333D02*
X145342380Y-27154285D01*
X145723333Y-27487619D01*
X145723333Y-27344761D01*
X145770952Y-27249523D01*
X145818571Y-27201904D01*
X145913809Y-27154285D01*
X146151904Y-27154285D01*
X146247142Y-27201904D01*
X146294761Y-27249523D01*
X146342380Y-27344761D01*
X146342380Y-27630476D01*
X146294761Y-27725714D01*
X146247142Y-27773333D01*
%TO.C,SW3*%
X161226666Y-127674761D02*
X161369523Y-127722380D01*
X161607619Y-127722380D01*
X161702857Y-127674761D01*
X161750476Y-127627142D01*
X161798095Y-127531904D01*
X161798095Y-127436666D01*
X161750476Y-127341428D01*
X161702857Y-127293809D01*
X161607619Y-127246190D01*
X161417142Y-127198571D01*
X161321904Y-127150952D01*
X161274285Y-127103333D01*
X161226666Y-127008095D01*
X161226666Y-126912857D01*
X161274285Y-126817619D01*
X161321904Y-126770000D01*
X161417142Y-126722380D01*
X161655238Y-126722380D01*
X161798095Y-126770000D01*
X162131428Y-126722380D02*
X162369523Y-127722380D01*
X162560000Y-127008095D01*
X162750476Y-127722380D01*
X162988571Y-126722380D01*
X163274285Y-126722380D02*
X163893333Y-126722380D01*
X163560000Y-127103333D01*
X163702857Y-127103333D01*
X163798095Y-127150952D01*
X163845714Y-127198571D01*
X163893333Y-127293809D01*
X163893333Y-127531904D01*
X163845714Y-127627142D01*
X163798095Y-127674761D01*
X163702857Y-127722380D01*
X163417142Y-127722380D01*
X163321904Y-127674761D01*
X163274285Y-127627142D01*
%TO.C,J1*%
X116506666Y-25352380D02*
X116506666Y-26066666D01*
X116459047Y-26209523D01*
X116363809Y-26304761D01*
X116220952Y-26352380D01*
X116125714Y-26352380D01*
X117506666Y-26352380D02*
X116935238Y-26352380D01*
X117220952Y-26352380D02*
X117220952Y-25352380D01*
X117125714Y-25495238D01*
X117030476Y-25590476D01*
X116935238Y-25638095D01*
%TO.C,R4*%
X126022380Y-66206666D02*
X125546190Y-66540000D01*
X126022380Y-66778095D02*
X125022380Y-66778095D01*
X125022380Y-66397142D01*
X125070000Y-66301904D01*
X125117619Y-66254285D01*
X125212857Y-66206666D01*
X125355714Y-66206666D01*
X125450952Y-66254285D01*
X125498571Y-66301904D01*
X125546190Y-66397142D01*
X125546190Y-66778095D01*
X125355714Y-65349523D02*
X126022380Y-65349523D01*
X124974761Y-65587619D02*
X125689047Y-65825714D01*
X125689047Y-65206666D01*
%TO.C,R10*%
X131437142Y-119972380D02*
X131103809Y-119496190D01*
X130865714Y-119972380D02*
X130865714Y-118972380D01*
X131246666Y-118972380D01*
X131341904Y-119020000D01*
X131389523Y-119067619D01*
X131437142Y-119162857D01*
X131437142Y-119305714D01*
X131389523Y-119400952D01*
X131341904Y-119448571D01*
X131246666Y-119496190D01*
X130865714Y-119496190D01*
X132389523Y-119972380D02*
X131818095Y-119972380D01*
X132103809Y-119972380D02*
X132103809Y-118972380D01*
X132008571Y-119115238D01*
X131913333Y-119210476D01*
X131818095Y-119258095D01*
X133008571Y-118972380D02*
X133103809Y-118972380D01*
X133199047Y-119020000D01*
X133246666Y-119067619D01*
X133294285Y-119162857D01*
X133341904Y-119353333D01*
X133341904Y-119591428D01*
X133294285Y-119781904D01*
X133246666Y-119877142D01*
X133199047Y-119924761D01*
X133103809Y-119972380D01*
X133008571Y-119972380D01*
X132913333Y-119924761D01*
X132865714Y-119877142D01*
X132818095Y-119781904D01*
X132770476Y-119591428D01*
X132770476Y-119353333D01*
X132818095Y-119162857D01*
X132865714Y-119067619D01*
X132913333Y-119020000D01*
X133008571Y-118972380D01*
%TO.C,C4*%
X153092142Y-28106666D02*
X153139761Y-28154285D01*
X153187380Y-28297142D01*
X153187380Y-28392380D01*
X153139761Y-28535238D01*
X153044523Y-28630476D01*
X152949285Y-28678095D01*
X152758809Y-28725714D01*
X152615952Y-28725714D01*
X152425476Y-28678095D01*
X152330238Y-28630476D01*
X152235000Y-28535238D01*
X152187380Y-28392380D01*
X152187380Y-28297142D01*
X152235000Y-28154285D01*
X152282619Y-28106666D01*
X152520714Y-27249523D02*
X153187380Y-27249523D01*
X152139761Y-27487619D02*
X152854047Y-27725714D01*
X152854047Y-27106666D01*
%TO.C,R1*%
X142073333Y-33612380D02*
X141740000Y-33136190D01*
X141501904Y-33612380D02*
X141501904Y-32612380D01*
X141882857Y-32612380D01*
X141978095Y-32660000D01*
X142025714Y-32707619D01*
X142073333Y-32802857D01*
X142073333Y-32945714D01*
X142025714Y-33040952D01*
X141978095Y-33088571D01*
X141882857Y-33136190D01*
X141501904Y-33136190D01*
X143025714Y-33612380D02*
X142454285Y-33612380D01*
X142740000Y-33612380D02*
X142740000Y-32612380D01*
X142644761Y-32755238D01*
X142549523Y-32850476D01*
X142454285Y-32898095D01*
%TO.C,C11*%
X110687142Y-81922857D02*
X110734761Y-81970476D01*
X110782380Y-82113333D01*
X110782380Y-82208571D01*
X110734761Y-82351428D01*
X110639523Y-82446666D01*
X110544285Y-82494285D01*
X110353809Y-82541904D01*
X110210952Y-82541904D01*
X110020476Y-82494285D01*
X109925238Y-82446666D01*
X109830000Y-82351428D01*
X109782380Y-82208571D01*
X109782380Y-82113333D01*
X109830000Y-81970476D01*
X109877619Y-81922857D01*
X110782380Y-80970476D02*
X110782380Y-81541904D01*
X110782380Y-81256190D02*
X109782380Y-81256190D01*
X109925238Y-81351428D01*
X110020476Y-81446666D01*
X110068095Y-81541904D01*
X110782380Y-80018095D02*
X110782380Y-80589523D01*
X110782380Y-80303809D02*
X109782380Y-80303809D01*
X109925238Y-80399047D01*
X110020476Y-80494285D01*
X110068095Y-80589523D01*
%TO.C,J2*%
X138942380Y-41473333D02*
X139656666Y-41473333D01*
X139799523Y-41520952D01*
X139894761Y-41616190D01*
X139942380Y-41759047D01*
X139942380Y-41854285D01*
X139037619Y-41044761D02*
X138990000Y-40997142D01*
X138942380Y-40901904D01*
X138942380Y-40663809D01*
X138990000Y-40568571D01*
X139037619Y-40520952D01*
X139132857Y-40473333D01*
X139228095Y-40473333D01*
X139370952Y-40520952D01*
X139942380Y-41092380D01*
X139942380Y-40473333D01*
%TO.C,Y1*%
X177323809Y-83706190D02*
X177323809Y-84182380D01*
X176990476Y-83182380D02*
X177323809Y-83706190D01*
X177657142Y-83182380D01*
X178514285Y-84182380D02*
X177942857Y-84182380D01*
X178228571Y-84182380D02*
X178228571Y-83182380D01*
X178133333Y-83325238D01*
X178038095Y-83420476D01*
X177942857Y-83468095D01*
%TO.C,D3*%
X136421904Y-128976380D02*
X136421904Y-127976380D01*
X136660000Y-127976380D01*
X136802857Y-128024000D01*
X136898095Y-128119238D01*
X136945714Y-128214476D01*
X136993333Y-128404952D01*
X136993333Y-128547809D01*
X136945714Y-128738285D01*
X136898095Y-128833523D01*
X136802857Y-128928761D01*
X136660000Y-128976380D01*
X136421904Y-128976380D01*
X137326666Y-127976380D02*
X137945714Y-127976380D01*
X137612380Y-128357333D01*
X137755238Y-128357333D01*
X137850476Y-128404952D01*
X137898095Y-128452571D01*
X137945714Y-128547809D01*
X137945714Y-128785904D01*
X137898095Y-128881142D01*
X137850476Y-128928761D01*
X137755238Y-128976380D01*
X137469523Y-128976380D01*
X137374285Y-128928761D01*
X137326666Y-128881142D01*
%TO.C,C16*%
X151757142Y-133867142D02*
X151709523Y-133914761D01*
X151566666Y-133962380D01*
X151471428Y-133962380D01*
X151328571Y-133914761D01*
X151233333Y-133819523D01*
X151185714Y-133724285D01*
X151138095Y-133533809D01*
X151138095Y-133390952D01*
X151185714Y-133200476D01*
X151233333Y-133105238D01*
X151328571Y-133010000D01*
X151471428Y-132962380D01*
X151566666Y-132962380D01*
X151709523Y-133010000D01*
X151757142Y-133057619D01*
X152709523Y-133962380D02*
X152138095Y-133962380D01*
X152423809Y-133962380D02*
X152423809Y-132962380D01*
X152328571Y-133105238D01*
X152233333Y-133200476D01*
X152138095Y-133248095D01*
X153566666Y-132962380D02*
X153376190Y-132962380D01*
X153280952Y-133010000D01*
X153233333Y-133057619D01*
X153138095Y-133200476D01*
X153090476Y-133390952D01*
X153090476Y-133771904D01*
X153138095Y-133867142D01*
X153185714Y-133914761D01*
X153280952Y-133962380D01*
X153471428Y-133962380D01*
X153566666Y-133914761D01*
X153614285Y-133867142D01*
X153661904Y-133771904D01*
X153661904Y-133533809D01*
X153614285Y-133438571D01*
X153566666Y-133390952D01*
X153471428Y-133343333D01*
X153280952Y-133343333D01*
X153185714Y-133390952D01*
X153138095Y-133438571D01*
X153090476Y-133533809D01*
%TO.C,U4*%
X146558095Y-81502380D02*
X146558095Y-82311904D01*
X146605714Y-82407142D01*
X146653333Y-82454761D01*
X146748571Y-82502380D01*
X146939047Y-82502380D01*
X147034285Y-82454761D01*
X147081904Y-82407142D01*
X147129523Y-82311904D01*
X147129523Y-81502380D01*
X148034285Y-81835714D02*
X148034285Y-82502380D01*
X147796190Y-81454761D02*
X147558095Y-82169047D01*
X148177142Y-82169047D01*
%TO.C,C17*%
X156837142Y-131007142D02*
X156789523Y-131054761D01*
X156646666Y-131102380D01*
X156551428Y-131102380D01*
X156408571Y-131054761D01*
X156313333Y-130959523D01*
X156265714Y-130864285D01*
X156218095Y-130673809D01*
X156218095Y-130530952D01*
X156265714Y-130340476D01*
X156313333Y-130245238D01*
X156408571Y-130150000D01*
X156551428Y-130102380D01*
X156646666Y-130102380D01*
X156789523Y-130150000D01*
X156837142Y-130197619D01*
X157789523Y-131102380D02*
X157218095Y-131102380D01*
X157503809Y-131102380D02*
X157503809Y-130102380D01*
X157408571Y-130245238D01*
X157313333Y-130340476D01*
X157218095Y-130388095D01*
X158122857Y-130102380D02*
X158789523Y-130102380D01*
X158360952Y-131102380D01*
%TO.C,C13*%
X126357142Y-75127142D02*
X126309523Y-75174761D01*
X126166666Y-75222380D01*
X126071428Y-75222380D01*
X125928571Y-75174761D01*
X125833333Y-75079523D01*
X125785714Y-74984285D01*
X125738095Y-74793809D01*
X125738095Y-74650952D01*
X125785714Y-74460476D01*
X125833333Y-74365238D01*
X125928571Y-74270000D01*
X126071428Y-74222380D01*
X126166666Y-74222380D01*
X126309523Y-74270000D01*
X126357142Y-74317619D01*
X127309523Y-75222380D02*
X126738095Y-75222380D01*
X127023809Y-75222380D02*
X127023809Y-74222380D01*
X126928571Y-74365238D01*
X126833333Y-74460476D01*
X126738095Y-74508095D01*
X127642857Y-74222380D02*
X128261904Y-74222380D01*
X127928571Y-74603333D01*
X128071428Y-74603333D01*
X128166666Y-74650952D01*
X128214285Y-74698571D01*
X128261904Y-74793809D01*
X128261904Y-75031904D01*
X128214285Y-75127142D01*
X128166666Y-75174761D01*
X128071428Y-75222380D01*
X127785714Y-75222380D01*
X127690476Y-75174761D01*
X127642857Y-75127142D01*
%TO.C,C2*%
X134642142Y-28106666D02*
X134689761Y-28154285D01*
X134737380Y-28297142D01*
X134737380Y-28392380D01*
X134689761Y-28535238D01*
X134594523Y-28630476D01*
X134499285Y-28678095D01*
X134308809Y-28725714D01*
X134165952Y-28725714D01*
X133975476Y-28678095D01*
X133880238Y-28630476D01*
X133785000Y-28535238D01*
X133737380Y-28392380D01*
X133737380Y-28297142D01*
X133785000Y-28154285D01*
X133832619Y-28106666D01*
X133832619Y-27725714D02*
X133785000Y-27678095D01*
X133737380Y-27582857D01*
X133737380Y-27344761D01*
X133785000Y-27249523D01*
X133832619Y-27201904D01*
X133927857Y-27154285D01*
X134023095Y-27154285D01*
X134165952Y-27201904D01*
X134737380Y-27773333D01*
X134737380Y-27154285D01*
%TO.C,C8*%
X110687142Y-96686666D02*
X110734761Y-96734285D01*
X110782380Y-96877142D01*
X110782380Y-96972380D01*
X110734761Y-97115238D01*
X110639523Y-97210476D01*
X110544285Y-97258095D01*
X110353809Y-97305714D01*
X110210952Y-97305714D01*
X110020476Y-97258095D01*
X109925238Y-97210476D01*
X109830000Y-97115238D01*
X109782380Y-96972380D01*
X109782380Y-96877142D01*
X109830000Y-96734285D01*
X109877619Y-96686666D01*
X110210952Y-96115238D02*
X110163333Y-96210476D01*
X110115714Y-96258095D01*
X110020476Y-96305714D01*
X109972857Y-96305714D01*
X109877619Y-96258095D01*
X109830000Y-96210476D01*
X109782380Y-96115238D01*
X109782380Y-95924761D01*
X109830000Y-95829523D01*
X109877619Y-95781904D01*
X109972857Y-95734285D01*
X110020476Y-95734285D01*
X110115714Y-95781904D01*
X110163333Y-95829523D01*
X110210952Y-95924761D01*
X110210952Y-96115238D01*
X110258571Y-96210476D01*
X110306190Y-96258095D01*
X110401428Y-96305714D01*
X110591904Y-96305714D01*
X110687142Y-96258095D01*
X110734761Y-96210476D01*
X110782380Y-96115238D01*
X110782380Y-95924761D01*
X110734761Y-95829523D01*
X110687142Y-95781904D01*
X110591904Y-95734285D01*
X110401428Y-95734285D01*
X110306190Y-95781904D01*
X110258571Y-95829523D01*
X110210952Y-95924761D01*
%TO.C,C5*%
X108467142Y-61688986D02*
X108514761Y-61736605D01*
X108562380Y-61879462D01*
X108562380Y-61974700D01*
X108514761Y-62117558D01*
X108419523Y-62212796D01*
X108324285Y-62260415D01*
X108133809Y-62308034D01*
X107990952Y-62308034D01*
X107800476Y-62260415D01*
X107705238Y-62212796D01*
X107610000Y-62117558D01*
X107562380Y-61974700D01*
X107562380Y-61879462D01*
X107610000Y-61736605D01*
X107657619Y-61688986D01*
X107562380Y-60784224D02*
X107562380Y-61260415D01*
X108038571Y-61308034D01*
X107990952Y-61260415D01*
X107943333Y-61165177D01*
X107943333Y-60927081D01*
X107990952Y-60831843D01*
X108038571Y-60784224D01*
X108133809Y-60736605D01*
X108371904Y-60736605D01*
X108467142Y-60784224D01*
X108514761Y-60831843D01*
X108562380Y-60927081D01*
X108562380Y-61165177D01*
X108514761Y-61260415D01*
X108467142Y-61308034D01*
%TO.C,Q1*%
X145417619Y-35655238D02*
X145370000Y-35750476D01*
X145274761Y-35845714D01*
X145131904Y-35988571D01*
X145084285Y-36083809D01*
X145084285Y-36179047D01*
X145322380Y-36131428D02*
X145274761Y-36226666D01*
X145179523Y-36321904D01*
X144989047Y-36369523D01*
X144655714Y-36369523D01*
X144465238Y-36321904D01*
X144370000Y-36226666D01*
X144322380Y-36131428D01*
X144322380Y-35940952D01*
X144370000Y-35845714D01*
X144465238Y-35750476D01*
X144655714Y-35702857D01*
X144989047Y-35702857D01*
X145179523Y-35750476D01*
X145274761Y-35845714D01*
X145322380Y-35940952D01*
X145322380Y-36131428D01*
X145322380Y-34750476D02*
X145322380Y-35321904D01*
X145322380Y-35036190D02*
X144322380Y-35036190D01*
X144465238Y-35131428D01*
X144560476Y-35226666D01*
X144608095Y-35321904D01*
%TO.C,J6*%
X164342380Y-96853333D02*
X165056666Y-96853333D01*
X165199523Y-96900952D01*
X165294761Y-96996190D01*
X165342380Y-97139047D01*
X165342380Y-97234285D01*
X164342380Y-95948571D02*
X164342380Y-96139047D01*
X164390000Y-96234285D01*
X164437619Y-96281904D01*
X164580476Y-96377142D01*
X164770952Y-96424761D01*
X165151904Y-96424761D01*
X165247142Y-96377142D01*
X165294761Y-96329523D01*
X165342380Y-96234285D01*
X165342380Y-96043809D01*
X165294761Y-95948571D01*
X165247142Y-95900952D01*
X165151904Y-95853333D01*
X164913809Y-95853333D01*
X164818571Y-95900952D01*
X164770952Y-95948571D01*
X164723333Y-96043809D01*
X164723333Y-96234285D01*
X164770952Y-96329523D01*
X164818571Y-96377142D01*
X164913809Y-96424761D01*
%TO.C,SW4*%
X166306666Y-124774761D02*
X166449523Y-124822380D01*
X166687619Y-124822380D01*
X166782857Y-124774761D01*
X166830476Y-124727142D01*
X166878095Y-124631904D01*
X166878095Y-124536666D01*
X166830476Y-124441428D01*
X166782857Y-124393809D01*
X166687619Y-124346190D01*
X166497142Y-124298571D01*
X166401904Y-124250952D01*
X166354285Y-124203333D01*
X166306666Y-124108095D01*
X166306666Y-124012857D01*
X166354285Y-123917619D01*
X166401904Y-123870000D01*
X166497142Y-123822380D01*
X166735238Y-123822380D01*
X166878095Y-123870000D01*
X167211428Y-123822380D02*
X167449523Y-124822380D01*
X167640000Y-124108095D01*
X167830476Y-124822380D01*
X168068571Y-123822380D01*
X168878095Y-124155714D02*
X168878095Y-124822380D01*
X168640000Y-123774761D02*
X168401904Y-124489047D01*
X169020952Y-124489047D01*
%TO.C,SW1*%
X121094666Y-75969761D02*
X121237523Y-76017380D01*
X121475619Y-76017380D01*
X121570857Y-75969761D01*
X121618476Y-75922142D01*
X121666095Y-75826904D01*
X121666095Y-75731666D01*
X121618476Y-75636428D01*
X121570857Y-75588809D01*
X121475619Y-75541190D01*
X121285142Y-75493571D01*
X121189904Y-75445952D01*
X121142285Y-75398333D01*
X121094666Y-75303095D01*
X121094666Y-75207857D01*
X121142285Y-75112619D01*
X121189904Y-75065000D01*
X121285142Y-75017380D01*
X121523238Y-75017380D01*
X121666095Y-75065000D01*
X121999428Y-75017380D02*
X122237523Y-76017380D01*
X122428000Y-75303095D01*
X122618476Y-76017380D01*
X122856571Y-75017380D01*
X123761333Y-76017380D02*
X123189904Y-76017380D01*
X123475619Y-76017380D02*
X123475619Y-75017380D01*
X123380380Y-75160238D01*
X123285142Y-75255476D01*
X123189904Y-75303095D01*
%TO.C,SW2*%
X145986666Y-127404761D02*
X146129523Y-127452380D01*
X146367619Y-127452380D01*
X146462857Y-127404761D01*
X146510476Y-127357142D01*
X146558095Y-127261904D01*
X146558095Y-127166666D01*
X146510476Y-127071428D01*
X146462857Y-127023809D01*
X146367619Y-126976190D01*
X146177142Y-126928571D01*
X146081904Y-126880952D01*
X146034285Y-126833333D01*
X145986666Y-126738095D01*
X145986666Y-126642857D01*
X146034285Y-126547619D01*
X146081904Y-126500000D01*
X146177142Y-126452380D01*
X146415238Y-126452380D01*
X146558095Y-126500000D01*
X146891428Y-126452380D02*
X147129523Y-127452380D01*
X147320000Y-126738095D01*
X147510476Y-127452380D01*
X147748571Y-126452380D01*
X148081904Y-126547619D02*
X148129523Y-126500000D01*
X148224761Y-126452380D01*
X148462857Y-126452380D01*
X148558095Y-126500000D01*
X148605714Y-126547619D01*
X148653333Y-126642857D01*
X148653333Y-126738095D01*
X148605714Y-126880952D01*
X148034285Y-127452380D01*
X148653333Y-127452380D01*
%TO.C,C12*%
X113547142Y-76842857D02*
X113594761Y-76890476D01*
X113642380Y-77033333D01*
X113642380Y-77128571D01*
X113594761Y-77271428D01*
X113499523Y-77366666D01*
X113404285Y-77414285D01*
X113213809Y-77461904D01*
X113070952Y-77461904D01*
X112880476Y-77414285D01*
X112785238Y-77366666D01*
X112690000Y-77271428D01*
X112642380Y-77128571D01*
X112642380Y-77033333D01*
X112690000Y-76890476D01*
X112737619Y-76842857D01*
X113642380Y-75890476D02*
X113642380Y-76461904D01*
X113642380Y-76176190D02*
X112642380Y-76176190D01*
X112785238Y-76271428D01*
X112880476Y-76366666D01*
X112928095Y-76461904D01*
X112737619Y-75509523D02*
X112690000Y-75461904D01*
X112642380Y-75366666D01*
X112642380Y-75128571D01*
X112690000Y-75033333D01*
X112737619Y-74985714D01*
X112832857Y-74938095D01*
X112928095Y-74938095D01*
X113070952Y-74985714D01*
X113642380Y-75557142D01*
X113642380Y-74938095D01*
%TO.C,U3*%
X116078095Y-42572380D02*
X116078095Y-43381904D01*
X116125714Y-43477142D01*
X116173333Y-43524761D01*
X116268571Y-43572380D01*
X116459047Y-43572380D01*
X116554285Y-43524761D01*
X116601904Y-43477142D01*
X116649523Y-43381904D01*
X116649523Y-42572380D01*
X117030476Y-42572380D02*
X117649523Y-42572380D01*
X117316190Y-42953333D01*
X117459047Y-42953333D01*
X117554285Y-43000952D01*
X117601904Y-43048571D01*
X117649523Y-43143809D01*
X117649523Y-43381904D01*
X117601904Y-43477142D01*
X117554285Y-43524761D01*
X117459047Y-43572380D01*
X117173333Y-43572380D01*
X117078095Y-43524761D01*
X117030476Y-43477142D01*
%TO.C,J3*%
X106346666Y-41272380D02*
X106346666Y-41986666D01*
X106299047Y-42129523D01*
X106203809Y-42224761D01*
X106060952Y-42272380D01*
X105965714Y-42272380D01*
X106727619Y-41272380D02*
X107346666Y-41272380D01*
X107013333Y-41653333D01*
X107156190Y-41653333D01*
X107251428Y-41700952D01*
X107299047Y-41748571D01*
X107346666Y-41843809D01*
X107346666Y-42081904D01*
X107299047Y-42177142D01*
X107251428Y-42224761D01*
X107156190Y-42272380D01*
X106870476Y-42272380D01*
X106775238Y-42224761D01*
X106727619Y-42177142D01*
%TO.C,J7*%
X183983380Y-57610333D02*
X184697666Y-57610333D01*
X184840523Y-57657952D01*
X184935761Y-57753190D01*
X184983380Y-57896047D01*
X184983380Y-57991285D01*
X183983380Y-57229380D02*
X183983380Y-56562714D01*
X184983380Y-56991285D01*
%TO.C,J5*%
X117777380Y-107013333D02*
X118491666Y-107013333D01*
X118634523Y-107060952D01*
X118729761Y-107156190D01*
X118777380Y-107299047D01*
X118777380Y-107394285D01*
X117777380Y-106060952D02*
X117777380Y-106537142D01*
X118253571Y-106584761D01*
X118205952Y-106537142D01*
X118158333Y-106441904D01*
X118158333Y-106203809D01*
X118205952Y-106108571D01*
X118253571Y-106060952D01*
X118348809Y-106013333D01*
X118586904Y-106013333D01*
X118682142Y-106060952D01*
X118729761Y-106108571D01*
X118777380Y-106203809D01*
X118777380Y-106441904D01*
X118729761Y-106537142D01*
X118682142Y-106584761D01*
%TO.C,C10*%
X110687142Y-87002857D02*
X110734761Y-87050476D01*
X110782380Y-87193333D01*
X110782380Y-87288571D01*
X110734761Y-87431428D01*
X110639523Y-87526666D01*
X110544285Y-87574285D01*
X110353809Y-87621904D01*
X110210952Y-87621904D01*
X110020476Y-87574285D01*
X109925238Y-87526666D01*
X109830000Y-87431428D01*
X109782380Y-87288571D01*
X109782380Y-87193333D01*
X109830000Y-87050476D01*
X109877619Y-87002857D01*
X110782380Y-86050476D02*
X110782380Y-86621904D01*
X110782380Y-86336190D02*
X109782380Y-86336190D01*
X109925238Y-86431428D01*
X110020476Y-86526666D01*
X110068095Y-86621904D01*
X109782380Y-85431428D02*
X109782380Y-85336190D01*
X109830000Y-85240952D01*
X109877619Y-85193333D01*
X109972857Y-85145714D01*
X110163333Y-85098095D01*
X110401428Y-85098095D01*
X110591904Y-85145714D01*
X110687142Y-85193333D01*
X110734761Y-85240952D01*
X110782380Y-85336190D01*
X110782380Y-85431428D01*
X110734761Y-85526666D01*
X110687142Y-85574285D01*
X110591904Y-85621904D01*
X110401428Y-85669523D01*
X110163333Y-85669523D01*
X109972857Y-85621904D01*
X109877619Y-85574285D01*
X109830000Y-85526666D01*
X109782380Y-85431428D01*
%TO.C,R7*%
X160832380Y-122086666D02*
X160356190Y-122420000D01*
X160832380Y-122658095D02*
X159832380Y-122658095D01*
X159832380Y-122277142D01*
X159880000Y-122181904D01*
X159927619Y-122134285D01*
X160022857Y-122086666D01*
X160165714Y-122086666D01*
X160260952Y-122134285D01*
X160308571Y-122181904D01*
X160356190Y-122277142D01*
X160356190Y-122658095D01*
X159832380Y-121753333D02*
X159832380Y-121086666D01*
X160832380Y-121515238D01*
%TO.C,C1*%
X129897142Y-28106666D02*
X129944761Y-28154285D01*
X129992380Y-28297142D01*
X129992380Y-28392380D01*
X129944761Y-28535238D01*
X129849523Y-28630476D01*
X129754285Y-28678095D01*
X129563809Y-28725714D01*
X129420952Y-28725714D01*
X129230476Y-28678095D01*
X129135238Y-28630476D01*
X129040000Y-28535238D01*
X128992380Y-28392380D01*
X128992380Y-28297142D01*
X129040000Y-28154285D01*
X129087619Y-28106666D01*
X129992380Y-27154285D02*
X129992380Y-27725714D01*
X129992380Y-27440000D02*
X128992380Y-27440000D01*
X129135238Y-27535238D01*
X129230476Y-27630476D01*
X129278095Y-27725714D01*
%TO.C,U5*%
X187183095Y-62092380D02*
X187183095Y-62901904D01*
X187230714Y-62997142D01*
X187278333Y-63044761D01*
X187373571Y-63092380D01*
X187564047Y-63092380D01*
X187659285Y-63044761D01*
X187706904Y-62997142D01*
X187754523Y-62901904D01*
X187754523Y-62092380D01*
X188706904Y-62092380D02*
X188230714Y-62092380D01*
X188183095Y-62568571D01*
X188230714Y-62520952D01*
X188325952Y-62473333D01*
X188564047Y-62473333D01*
X188659285Y-62520952D01*
X188706904Y-62568571D01*
X188754523Y-62663809D01*
X188754523Y-62901904D01*
X188706904Y-62997142D01*
X188659285Y-63044761D01*
X188564047Y-63092380D01*
X188325952Y-63092380D01*
X188230714Y-63044761D01*
X188183095Y-62997142D01*
%TO.C,R6*%
X150452380Y-122086666D02*
X149976190Y-122420000D01*
X150452380Y-122658095D02*
X149452380Y-122658095D01*
X149452380Y-122277142D01*
X149500000Y-122181904D01*
X149547619Y-122134285D01*
X149642857Y-122086666D01*
X149785714Y-122086666D01*
X149880952Y-122134285D01*
X149928571Y-122181904D01*
X149976190Y-122277142D01*
X149976190Y-122658095D01*
X149452380Y-121229523D02*
X149452380Y-121420000D01*
X149500000Y-121515238D01*
X149547619Y-121562857D01*
X149690476Y-121658095D01*
X149880952Y-121705714D01*
X150261904Y-121705714D01*
X150357142Y-121658095D01*
X150404761Y-121610476D01*
X150452380Y-121515238D01*
X150452380Y-121324761D01*
X150404761Y-121229523D01*
X150357142Y-121181904D01*
X150261904Y-121134285D01*
X150023809Y-121134285D01*
X149928571Y-121181904D01*
X149880952Y-121229523D01*
X149833333Y-121324761D01*
X149833333Y-121515238D01*
X149880952Y-121610476D01*
X149928571Y-121658095D01*
X150023809Y-121705714D01*
%TO.C,C18*%
X161917142Y-131007142D02*
X161869523Y-131054761D01*
X161726666Y-131102380D01*
X161631428Y-131102380D01*
X161488571Y-131054761D01*
X161393333Y-130959523D01*
X161345714Y-130864285D01*
X161298095Y-130673809D01*
X161298095Y-130530952D01*
X161345714Y-130340476D01*
X161393333Y-130245238D01*
X161488571Y-130150000D01*
X161631428Y-130102380D01*
X161726666Y-130102380D01*
X161869523Y-130150000D01*
X161917142Y-130197619D01*
X162869523Y-131102380D02*
X162298095Y-131102380D01*
X162583809Y-131102380D02*
X162583809Y-130102380D01*
X162488571Y-130245238D01*
X162393333Y-130340476D01*
X162298095Y-130388095D01*
X163440952Y-130530952D02*
X163345714Y-130483333D01*
X163298095Y-130435714D01*
X163250476Y-130340476D01*
X163250476Y-130292857D01*
X163298095Y-130197619D01*
X163345714Y-130150000D01*
X163440952Y-130102380D01*
X163631428Y-130102380D01*
X163726666Y-130150000D01*
X163774285Y-130197619D01*
X163821904Y-130292857D01*
X163821904Y-130340476D01*
X163774285Y-130435714D01*
X163726666Y-130483333D01*
X163631428Y-130530952D01*
X163440952Y-130530952D01*
X163345714Y-130578571D01*
X163298095Y-130626190D01*
X163250476Y-130721428D01*
X163250476Y-130911904D01*
X163298095Y-131007142D01*
X163345714Y-131054761D01*
X163440952Y-131102380D01*
X163631428Y-131102380D01*
X163726666Y-131054761D01*
X163774285Y-131007142D01*
X163821904Y-130911904D01*
X163821904Y-130721428D01*
X163774285Y-130626190D01*
X163726666Y-130578571D01*
X163631428Y-130530952D01*
%TO.C,C15*%
X182237142Y-87227142D02*
X182189523Y-87274761D01*
X182046666Y-87322380D01*
X181951428Y-87322380D01*
X181808571Y-87274761D01*
X181713333Y-87179523D01*
X181665714Y-87084285D01*
X181618095Y-86893809D01*
X181618095Y-86750952D01*
X181665714Y-86560476D01*
X181713333Y-86465238D01*
X181808571Y-86370000D01*
X181951428Y-86322380D01*
X182046666Y-86322380D01*
X182189523Y-86370000D01*
X182237142Y-86417619D01*
X183189523Y-87322380D02*
X182618095Y-87322380D01*
X182903809Y-87322380D02*
X182903809Y-86322380D01*
X182808571Y-86465238D01*
X182713333Y-86560476D01*
X182618095Y-86608095D01*
X184094285Y-86322380D02*
X183618095Y-86322380D01*
X183570476Y-86798571D01*
X183618095Y-86750952D01*
X183713333Y-86703333D01*
X183951428Y-86703333D01*
X184046666Y-86750952D01*
X184094285Y-86798571D01*
X184141904Y-86893809D01*
X184141904Y-87131904D01*
X184094285Y-87227142D01*
X184046666Y-87274761D01*
X183951428Y-87322380D01*
X183713333Y-87322380D01*
X183618095Y-87274761D01*
X183570476Y-87227142D01*
%TO.C,C19*%
X176712142Y-66682857D02*
X176759761Y-66730476D01*
X176807380Y-66873333D01*
X176807380Y-66968571D01*
X176759761Y-67111428D01*
X176664523Y-67206666D01*
X176569285Y-67254285D01*
X176378809Y-67301904D01*
X176235952Y-67301904D01*
X176045476Y-67254285D01*
X175950238Y-67206666D01*
X175855000Y-67111428D01*
X175807380Y-66968571D01*
X175807380Y-66873333D01*
X175855000Y-66730476D01*
X175902619Y-66682857D01*
X176807380Y-65730476D02*
X176807380Y-66301904D01*
X176807380Y-66016190D02*
X175807380Y-66016190D01*
X175950238Y-66111428D01*
X176045476Y-66206666D01*
X176093095Y-66301904D01*
X176807380Y-65254285D02*
X176807380Y-65063809D01*
X176759761Y-64968571D01*
X176712142Y-64920952D01*
X176569285Y-64825714D01*
X176378809Y-64778095D01*
X175997857Y-64778095D01*
X175902619Y-64825714D01*
X175855000Y-64873333D01*
X175807380Y-64968571D01*
X175807380Y-65159047D01*
X175855000Y-65254285D01*
X175902619Y-65301904D01*
X175997857Y-65349523D01*
X176235952Y-65349523D01*
X176331190Y-65301904D01*
X176378809Y-65254285D01*
X176426428Y-65159047D01*
X176426428Y-64968571D01*
X176378809Y-64873333D01*
X176331190Y-64825714D01*
X176235952Y-64778095D01*
%TO.C,R5*%
X131913333Y-75222380D02*
X131580000Y-74746190D01*
X131341904Y-75222380D02*
X131341904Y-74222380D01*
X131722857Y-74222380D01*
X131818095Y-74270000D01*
X131865714Y-74317619D01*
X131913333Y-74412857D01*
X131913333Y-74555714D01*
X131865714Y-74650952D01*
X131818095Y-74698571D01*
X131722857Y-74746190D01*
X131341904Y-74746190D01*
X132818095Y-74222380D02*
X132341904Y-74222380D01*
X132294285Y-74698571D01*
X132341904Y-74650952D01*
X132437142Y-74603333D01*
X132675238Y-74603333D01*
X132770476Y-74650952D01*
X132818095Y-74698571D01*
X132865714Y-74793809D01*
X132865714Y-75031904D01*
X132818095Y-75127142D01*
X132770476Y-75174761D01*
X132675238Y-75222380D01*
X132437142Y-75222380D01*
X132341904Y-75174761D01*
X132294285Y-75127142D01*
%TO.C,C6*%
X108467142Y-66768986D02*
X108514761Y-66816605D01*
X108562380Y-66959462D01*
X108562380Y-67054700D01*
X108514761Y-67197558D01*
X108419523Y-67292796D01*
X108324285Y-67340415D01*
X108133809Y-67388034D01*
X107990952Y-67388034D01*
X107800476Y-67340415D01*
X107705238Y-67292796D01*
X107610000Y-67197558D01*
X107562380Y-67054700D01*
X107562380Y-66959462D01*
X107610000Y-66816605D01*
X107657619Y-66768986D01*
X107562380Y-65911843D02*
X107562380Y-66102320D01*
X107610000Y-66197558D01*
X107657619Y-66245177D01*
X107800476Y-66340415D01*
X107990952Y-66388034D01*
X108371904Y-66388034D01*
X108467142Y-66340415D01*
X108514761Y-66292796D01*
X108562380Y-66197558D01*
X108562380Y-66007081D01*
X108514761Y-65911843D01*
X108467142Y-65864224D01*
X108371904Y-65816605D01*
X108133809Y-65816605D01*
X108038571Y-65864224D01*
X107990952Y-65911843D01*
X107943333Y-66007081D01*
X107943333Y-66197558D01*
X107990952Y-66292796D01*
X108038571Y-66340415D01*
X108133809Y-66388034D01*
%TO.C,C7*%
X115898333Y-52587142D02*
X115850714Y-52634761D01*
X115707857Y-52682380D01*
X115612619Y-52682380D01*
X115469761Y-52634761D01*
X115374523Y-52539523D01*
X115326904Y-52444285D01*
X115279285Y-52253809D01*
X115279285Y-52110952D01*
X115326904Y-51920476D01*
X115374523Y-51825238D01*
X115469761Y-51730000D01*
X115612619Y-51682380D01*
X115707857Y-51682380D01*
X115850714Y-51730000D01*
X115898333Y-51777619D01*
X116231666Y-51682380D02*
X116898333Y-51682380D01*
X116469761Y-52682380D01*
%TO.C,R9*%
X126833333Y-119972380D02*
X126500000Y-119496190D01*
X126261904Y-119972380D02*
X126261904Y-118972380D01*
X126642857Y-118972380D01*
X126738095Y-119020000D01*
X126785714Y-119067619D01*
X126833333Y-119162857D01*
X126833333Y-119305714D01*
X126785714Y-119400952D01*
X126738095Y-119448571D01*
X126642857Y-119496190D01*
X126261904Y-119496190D01*
X127309523Y-119972380D02*
X127500000Y-119972380D01*
X127595238Y-119924761D01*
X127642857Y-119877142D01*
X127738095Y-119734285D01*
X127785714Y-119543809D01*
X127785714Y-119162857D01*
X127738095Y-119067619D01*
X127690476Y-119020000D01*
X127595238Y-118972380D01*
X127404761Y-118972380D01*
X127309523Y-119020000D01*
X127261904Y-119067619D01*
X127214285Y-119162857D01*
X127214285Y-119400952D01*
X127261904Y-119496190D01*
X127309523Y-119543809D01*
X127404761Y-119591428D01*
X127595238Y-119591428D01*
X127690476Y-119543809D01*
X127738095Y-119496190D01*
X127785714Y-119400952D01*
%TO.C,R2*%
X152443333Y-34582380D02*
X152110000Y-34106190D01*
X151871904Y-34582380D02*
X151871904Y-33582380D01*
X152252857Y-33582380D01*
X152348095Y-33630000D01*
X152395714Y-33677619D01*
X152443333Y-33772857D01*
X152443333Y-33915714D01*
X152395714Y-34010952D01*
X152348095Y-34058571D01*
X152252857Y-34106190D01*
X151871904Y-34106190D01*
X152824285Y-33677619D02*
X152871904Y-33630000D01*
X152967142Y-33582380D01*
X153205238Y-33582380D01*
X153300476Y-33630000D01*
X153348095Y-33677619D01*
X153395714Y-33772857D01*
X153395714Y-33868095D01*
X153348095Y-34010952D01*
X152776666Y-34582380D01*
X153395714Y-34582380D01*
%TO.C,R8*%
X160612380Y-122086666D02*
X160136190Y-122420000D01*
X160612380Y-122658095D02*
X159612380Y-122658095D01*
X159612380Y-122277142D01*
X159660000Y-122181904D01*
X159707619Y-122134285D01*
X159802857Y-122086666D01*
X159945714Y-122086666D01*
X160040952Y-122134285D01*
X160088571Y-122181904D01*
X160136190Y-122277142D01*
X160136190Y-122658095D01*
X160040952Y-121515238D02*
X159993333Y-121610476D01*
X159945714Y-121658095D01*
X159850476Y-121705714D01*
X159802857Y-121705714D01*
X159707619Y-121658095D01*
X159660000Y-121610476D01*
X159612380Y-121515238D01*
X159612380Y-121324761D01*
X159660000Y-121229523D01*
X159707619Y-121181904D01*
X159802857Y-121134285D01*
X159850476Y-121134285D01*
X159945714Y-121181904D01*
X159993333Y-121229523D01*
X160040952Y-121324761D01*
X160040952Y-121515238D01*
X160088571Y-121610476D01*
X160136190Y-121658095D01*
X160231428Y-121705714D01*
X160421904Y-121705714D01*
X160517142Y-121658095D01*
X160564761Y-121610476D01*
X160612380Y-121515238D01*
X160612380Y-121324761D01*
X160564761Y-121229523D01*
X160517142Y-121181904D01*
X160421904Y-121134285D01*
X160231428Y-121134285D01*
X160136190Y-121181904D01*
X160088571Y-121229523D01*
X160040952Y-121324761D01*
%TO.C,R11*%
X136517142Y-119972380D02*
X136183809Y-119496190D01*
X135945714Y-119972380D02*
X135945714Y-118972380D01*
X136326666Y-118972380D01*
X136421904Y-119020000D01*
X136469523Y-119067619D01*
X136517142Y-119162857D01*
X136517142Y-119305714D01*
X136469523Y-119400952D01*
X136421904Y-119448571D01*
X136326666Y-119496190D01*
X135945714Y-119496190D01*
X137469523Y-119972380D02*
X136898095Y-119972380D01*
X137183809Y-119972380D02*
X137183809Y-118972380D01*
X137088571Y-119115238D01*
X136993333Y-119210476D01*
X136898095Y-119258095D01*
X138421904Y-119972380D02*
X137850476Y-119972380D01*
X138136190Y-119972380D02*
X138136190Y-118972380D01*
X138040952Y-119115238D01*
X137945714Y-119210476D01*
X137850476Y-119258095D01*
%TO.C,D1*%
X126261904Y-128882380D02*
X126261904Y-127882380D01*
X126500000Y-127882380D01*
X126642857Y-127930000D01*
X126738095Y-128025238D01*
X126785714Y-128120476D01*
X126833333Y-128310952D01*
X126833333Y-128453809D01*
X126785714Y-128644285D01*
X126738095Y-128739523D01*
X126642857Y-128834761D01*
X126500000Y-128882380D01*
X126261904Y-128882380D01*
X127785714Y-128882380D02*
X127214285Y-128882380D01*
X127500000Y-128882380D02*
X127500000Y-127882380D01*
X127404761Y-128025238D01*
X127309523Y-128120476D01*
X127214285Y-128168095D01*
%TO.C,J4*%
X171962380Y-46053333D02*
X172676666Y-46053333D01*
X172819523Y-46100952D01*
X172914761Y-46196190D01*
X172962380Y-46339047D01*
X172962380Y-46434285D01*
X172295714Y-45148571D02*
X172962380Y-45148571D01*
X171914761Y-45386666D02*
X172629047Y-45624761D01*
X172629047Y-45005714D01*
D11*
%TO.C,U2*%
X109240000Y-55880000D02*
X109240000Y-57830000D01*
X104120000Y-55880000D02*
X104120000Y-53930000D01*
X104120000Y-55880000D02*
X104120000Y-59330000D01*
X109240000Y-55880000D02*
X109240000Y-53930000D01*
%TO.C,C9*%
X111250000Y-91580580D02*
X111250000Y-91299420D01*
X112270000Y-91580580D02*
X112270000Y-91299420D01*
%TO.C,R3*%
X106442742Y-51322500D02*
X106917258Y-51322500D01*
X106442742Y-50277500D02*
X106917258Y-50277500D01*
%TO.C,U1*%
X140600000Y-26330000D02*
X138800000Y-26330000D01*
X138800000Y-29550000D02*
X141250000Y-29550000D01*
%TO.C,D2*%
X131280000Y-127735000D02*
X133565000Y-127735000D01*
X133565000Y-126265000D02*
X131280000Y-126265000D01*
X133565000Y-127735000D02*
X133565000Y-126265000D01*
%TO.C,C14*%
X177940580Y-85850000D02*
X177659420Y-85850000D01*
X177940580Y-86870000D02*
X177659420Y-86870000D01*
%TO.C,C3*%
X147830000Y-28080580D02*
X147830000Y-27799420D01*
X146810000Y-28080580D02*
X146810000Y-27799420D01*
%TO.C,SW3*%
X158980000Y-127950000D02*
X157980000Y-127950000D01*
X156980000Y-127950000D02*
X155930000Y-127950000D01*
X155930000Y-127950000D02*
X155930000Y-126100000D01*
X158990000Y-127930000D02*
X158990000Y-125500000D01*
%TO.C,J1*%
X121310000Y-35320000D02*
X112370000Y-35320000D01*
X121310000Y-29810000D02*
X121310000Y-31610000D01*
X112370000Y-35320000D02*
X112370000Y-33860000D01*
X112370000Y-29810000D02*
X112370000Y-31610000D01*
X121310000Y-35320000D02*
X121310000Y-33860000D01*
%TO.C,R4*%
X126477500Y-66277258D02*
X126477500Y-65802742D01*
X127522500Y-66277258D02*
X127522500Y-65802742D01*
%TO.C,R10*%
X132080000Y-120360000D02*
X130405000Y-120360000D01*
X132080000Y-123480000D02*
X131430000Y-123480000D01*
X132080000Y-120360000D02*
X132730000Y-120360000D01*
X132080000Y-123480000D02*
X132730000Y-123480000D01*
%TO.C,C4*%
X154675000Y-28080580D02*
X154675000Y-27799420D01*
X153655000Y-28080580D02*
X153655000Y-27799420D01*
%TO.C,R1*%
X142240000Y-34000000D02*
X140565000Y-34000000D01*
X142240000Y-37120000D02*
X141590000Y-37120000D01*
X142240000Y-37120000D02*
X142890000Y-37120000D01*
X142240000Y-34000000D02*
X142890000Y-34000000D01*
%TO.C,C11*%
X111250000Y-81420580D02*
X111250000Y-81139420D01*
X112270000Y-81420580D02*
X112270000Y-81139420D01*
%TO.C,J2*%
X138490000Y-39810000D02*
X138490000Y-41140000D01*
X128210000Y-39810000D02*
X128210000Y-42470000D01*
X137160000Y-39810000D02*
X138490000Y-39810000D01*
X135890000Y-39810000D02*
X128210000Y-39810000D01*
X135890000Y-42470000D02*
X128210000Y-42470000D01*
X135890000Y-39810000D02*
X135890000Y-42470000D01*
%TO.C,Y1*%
X179800000Y-82930000D02*
X179800000Y-79630000D01*
X179800000Y-79630000D02*
X175800000Y-79630000D01*
%TO.C,D3*%
X138645000Y-127735000D02*
X138645000Y-126265000D01*
X136360000Y-127735000D02*
X138645000Y-127735000D01*
X138645000Y-126265000D02*
X136360000Y-126265000D01*
%TO.C,C16*%
X152540580Y-132590000D02*
X152259420Y-132590000D01*
X152540580Y-131570000D02*
X152259420Y-131570000D01*
%TO.C,U4*%
X150480000Y-72590000D02*
X150930000Y-72590000D01*
X150930000Y-79360000D02*
X152220000Y-79360000D01*
X150480000Y-79810000D02*
X150930000Y-79810000D01*
X150930000Y-72590000D02*
X150930000Y-73040000D01*
X144160000Y-79810000D02*
X143710000Y-79810000D01*
X150930000Y-79810000D02*
X150930000Y-79360000D01*
X144160000Y-72590000D02*
X143710000Y-72590000D01*
X143710000Y-72590000D02*
X143710000Y-73040000D01*
X143710000Y-79810000D02*
X143710000Y-79360000D01*
%TO.C,C17*%
X157339420Y-131570000D02*
X157620580Y-131570000D01*
X157339420Y-132590000D02*
X157620580Y-132590000D01*
%TO.C,C13*%
X126859420Y-75690000D02*
X127140580Y-75690000D01*
X126859420Y-76710000D02*
X127140580Y-76710000D01*
%TO.C,C2*%
X133365000Y-27799420D02*
X133365000Y-28080580D01*
X132345000Y-27799420D02*
X132345000Y-28080580D01*
%TO.C,C8*%
X112270000Y-96660580D02*
X112270000Y-96379420D01*
X111250000Y-96660580D02*
X111250000Y-96379420D01*
%TO.C,C5*%
X106170000Y-61381740D02*
X106170000Y-61662900D01*
X107190000Y-61381740D02*
X107190000Y-61662900D01*
%TO.C,Q1*%
X145810000Y-34630000D02*
X145810000Y-37060000D01*
X145820000Y-34610000D02*
X146820000Y-34610000D01*
X147820000Y-34610000D02*
X148870000Y-34610000D01*
X148870000Y-34610000D02*
X148870000Y-36460000D01*
%TO.C,J6*%
X158690000Y-95190000D02*
X158690000Y-97850000D01*
X163890000Y-95190000D02*
X163890000Y-96520000D01*
X161290000Y-95190000D02*
X158690000Y-95190000D01*
X161290000Y-97850000D02*
X158690000Y-97850000D01*
X161290000Y-95190000D02*
X161290000Y-97850000D01*
X162560000Y-95190000D02*
X163890000Y-95190000D01*
%TO.C,SW4*%
X162060000Y-127950000D02*
X161010000Y-127950000D01*
X164070000Y-127930000D02*
X164070000Y-125500000D01*
X164060000Y-127950000D02*
X163060000Y-127950000D01*
X161010000Y-127950000D02*
X161010000Y-126100000D01*
%TO.C,SW1*%
X123084000Y-77750000D02*
X121234000Y-77750000D01*
X123064000Y-74690000D02*
X120634000Y-74690000D01*
X123084000Y-76700000D02*
X123084000Y-77750000D01*
X123084000Y-74700000D02*
X123084000Y-75700000D01*
%TO.C,SW2*%
X153950000Y-126050000D02*
X153950000Y-127900000D01*
X150900000Y-126050000D02*
X151900000Y-126050000D01*
X152900000Y-126050000D02*
X153950000Y-126050000D01*
X150890000Y-126070000D02*
X150890000Y-128500000D01*
%TO.C,C12*%
X111250000Y-76059420D02*
X111250000Y-76340580D01*
X112270000Y-76059420D02*
X112270000Y-76340580D01*
D10*
%TO.C,U3*%
X115165000Y-47395000D02*
X118515000Y-47395000D01*
X118515000Y-47395000D02*
X118515000Y-47095000D01*
X115165000Y-47395000D02*
X115165000Y-47095000D01*
X115165000Y-44045000D02*
X118515000Y-44045000D01*
X115165000Y-44270000D02*
X113940000Y-44270000D01*
X118515000Y-44045000D02*
X118515000Y-44345000D01*
X115165000Y-44045000D02*
X115165000Y-44270000D01*
D11*
%TO.C,J3*%
X105495000Y-44010000D02*
X105495000Y-43020000D01*
X109665000Y-44010000D02*
X107865000Y-44010000D01*
X103695000Y-45460000D02*
X103695000Y-44010000D01*
X104965000Y-48280000D02*
X108395000Y-48280000D01*
X103695000Y-44010000D02*
X105495000Y-44010000D01*
X109665000Y-45460000D02*
X109665000Y-44010000D01*
%TO.C,J7*%
X186675000Y-54550000D02*
X186675000Y-57210000D01*
X187945000Y-54550000D02*
X189275000Y-54550000D01*
X181535000Y-54550000D02*
X181535000Y-57210000D01*
X186675000Y-57210000D02*
X181535000Y-57210000D01*
X186675000Y-54550000D02*
X181535000Y-54550000D01*
X189275000Y-54550000D02*
X189275000Y-55880000D01*
%TO.C,J5*%
X119325000Y-108010000D02*
X119325000Y-106680000D01*
X170245000Y-108010000D02*
X170245000Y-105350000D01*
X121925000Y-108010000D02*
X121925000Y-105350000D01*
X121925000Y-105350000D02*
X170245000Y-105350000D01*
X121925000Y-108010000D02*
X170245000Y-108010000D01*
X120655000Y-108010000D02*
X119325000Y-108010000D01*
%TO.C,C10*%
X112270000Y-86500580D02*
X112270000Y-86219420D01*
X111250000Y-86500580D02*
X111250000Y-86219420D01*
%TO.C,R7*%
X159040000Y-121920000D02*
X159040000Y-121270000D01*
X159040000Y-121920000D02*
X159040000Y-122570000D01*
X155920000Y-121920000D02*
X155920000Y-123595000D01*
X155920000Y-121920000D02*
X155920000Y-121270000D01*
%TO.C,C1*%
X127510000Y-27799420D02*
X127510000Y-28080580D01*
X126490000Y-27799420D02*
X126490000Y-28080580D01*
%TO.C,U5*%
X187945000Y-68600000D02*
X189895000Y-68600000D01*
X187945000Y-63480000D02*
X184495000Y-63480000D01*
X187945000Y-68600000D02*
X185995000Y-68600000D01*
X187945000Y-63480000D02*
X189895000Y-63480000D01*
%TO.C,R6*%
X150840000Y-121920000D02*
X150840000Y-123595000D01*
X153960000Y-121920000D02*
X153960000Y-122570000D01*
X153960000Y-121920000D02*
X153960000Y-121270000D01*
X150840000Y-121920000D02*
X150840000Y-121270000D01*
%TO.C,C18*%
X162419420Y-132590000D02*
X162700580Y-132590000D01*
X162419420Y-131570000D02*
X162700580Y-131570000D01*
%TO.C,C15*%
X182739420Y-85850000D02*
X183020580Y-85850000D01*
X182739420Y-86870000D02*
X183020580Y-86870000D01*
%TO.C,C19*%
X178295000Y-66180580D02*
X178295000Y-65899420D01*
X177275000Y-66180580D02*
X177275000Y-65899420D01*
%TO.C,R5*%
X131842742Y-76722500D02*
X132317258Y-76722500D01*
X131842742Y-75677500D02*
X132317258Y-75677500D01*
%TO.C,C6*%
X107190000Y-65899420D02*
X107190000Y-66180580D01*
X106170000Y-65899420D02*
X106170000Y-66180580D01*
%TO.C,C7*%
X116205580Y-51310000D02*
X115924420Y-51310000D01*
X116205580Y-50290000D02*
X115924420Y-50290000D01*
%TO.C,R9*%
X127000000Y-120360000D02*
X125325000Y-120360000D01*
X127000000Y-123480000D02*
X127650000Y-123480000D01*
X127000000Y-120360000D02*
X127650000Y-120360000D01*
X127000000Y-123480000D02*
X126350000Y-123480000D01*
%TO.C,R2*%
X152162742Y-35037500D02*
X152637258Y-35037500D01*
X152162742Y-36082500D02*
X152637258Y-36082500D01*
%TO.C,R8*%
X161000000Y-121920000D02*
X161000000Y-121270000D01*
X161000000Y-121920000D02*
X161000000Y-123595000D01*
X164120000Y-121920000D02*
X164120000Y-121270000D01*
X164120000Y-121920000D02*
X164120000Y-122570000D01*
%TO.C,R11*%
X137160000Y-120360000D02*
X137810000Y-120360000D01*
X137160000Y-123480000D02*
X136510000Y-123480000D01*
X137160000Y-123480000D02*
X137810000Y-123480000D01*
X137160000Y-120360000D02*
X135485000Y-120360000D01*
%TO.C,D1*%
X128485000Y-126265000D02*
X126200000Y-126265000D01*
X128485000Y-127735000D02*
X128485000Y-126265000D01*
X126200000Y-127735000D02*
X128485000Y-127735000D01*
%TO.C,J4*%
X168910000Y-44390000D02*
X168910000Y-47050000D01*
X170180000Y-44390000D02*
X171510000Y-44390000D01*
X168910000Y-44390000D02*
X123130000Y-44390000D01*
X171510000Y-44390000D02*
X171510000Y-45720000D01*
X123130000Y-44390000D02*
X123130000Y-47050000D01*
X168910000Y-47050000D02*
X123130000Y-47050000D01*
%TD*%
M02*
